<?xml version="1.0" encoding="utf-8"?><svg xmlns="http://www.w3.org/2000/svg" xmlns:xlink="http://www.w3.org/1999/xlink"><symbol viewBox="-271 394.9 512 512" id="adv-clock"><style>.st0{fill:#030104}</style><path d="M20.8 474.8c1.6-2.4 2.4-5.7 2.4-8.9v-10.6c0-8.9-7.3-17.1-17.1-17.1h-48.8c-8.9 0-17.1 7.3-17.1 17.1v10.6c0 4.1 1.6 7.3 3.3 9.8-87.8 19.5-153.7 97.6-153.7 190.3 0 107.3 87.8 195.2 195.2 195.2S180.2 773.4 180.2 666c.8-95.2-68.3-174.9-159.4-191.2zm-63.5-19.5l49.7.8v10.6s0 .8-.8.8l-49.6-.8.7-11.4zm28.5 390.4c-98.4 0-178.9-80.5-178.9-178.9s80.5-178.9 178.9-178.9 178.9 80.5 178.9 178.9S84.2 845.7-14.2 845.7z"/><path d="M-14.2 509.8c-87 0-157 70.8-157 157 0 87 70.8 157 157 157s157-70.8 157-157c0-87.1-70-157-157-157zm0 297.6c-78.1 0-140.7-63.4-140.7-140.7 0-78.1 63.4-140.7 140.7-140.7s140.7 63.4 140.7 140.7c0 78.1-62.6 140.7-140.7 140.7z"/><path d="M-88.2 665.1c0 18.7-7.3 29.3-18.7 29.3-10.6 0-17.9-9.8-17.9-28.5s8.1-28.5 18.7-28.5c11.4.1 17.9 9.8 17.9 27.7zm-30.1.8c0 14.6 4.1 22.8 11.4 22.8s11.4-8.9 11.4-22.8c0-13.8-3.3-22.8-11.4-22.8-6.5.1-11.4 7.4-11.4 22.8zm70-21.9h-21.1l-2.4 13.8h4.9c4.1 0 8.1.8 12.2 3.3s8.1 7.3 8.1 13.8c0 10.6-8.1 18.7-20.3 18.7-5.7 0-11.4-1.6-13.8-3.3l1.6-5.7c2.4 1.6 6.5 3.3 11.4 3.3 7.3 0 13-4.9 13-12.2 0-7.3-4.9-12.2-15.5-12.2-3.3 0-5.7 0-7.3.8l3.3-26h26v5.7zm28.4 14.6c0-3.3 2.4-5.7 4.9-5.7 3.3 0 4.9 2.4 4.9 5.7 0 3.3-1.6 4.9-4.9 4.9-2.4.8-4.9-1.6-4.9-4.9zm0 30.1c0-3.3 2.4-5.7 4.9-5.7 3.3 0 4.9 2.4 4.9 5.7 0 3.3-1.6 4.9-4.9 4.9-2.4 0-4.9-1.6-4.9-4.9zm71.6-23.6c0 18.7-7.3 29.3-18.7 29.3-10.6 0-17.9-9.8-17.9-28.5s8.1-28.5 18.7-28.5c11.4.1 17.9 9.8 17.9 27.7zm-30.1.8c0 14.6 4.1 22.8 11.4 22.8s11.4-8.9 11.4-22.8c0-13.8-3.3-22.8-11.4-22.8-6.5.1-11.4 7.4-11.4 22.8zm73.2-.8c0 18.7-7.3 29.3-18.7 29.3-10.6 0-17.9-9.8-17.9-28.5s8.1-28.5 18.7-28.5c11.4.1 17.9 9.8 17.9 27.7zm-29.3.8c0 14.6 4.1 22.8 11.4 22.8 7.3 0 11.4-8.9 11.4-22.8 0-13.8-3.3-22.8-11.4-22.8-6.5.1-11.4 7.4-11.4 22.8z"/></symbol><symbol viewBox="0 0 512.001 512.001" id="adv-eco"><path d="M503.324 441.029H394.101v-51.792c23.851-3.208 44.99-18.104 57.282-40.687 16.331-3.733 31.167-13.188 42.142-26.947 11.914-14.937 18.476-34.027 18.476-53.754 0-30.009-15.366-57.784-39.543-72.211-2.519-50.043-41.096-89.945-88.079-89.945-14.789 0-29.422 4.025-42.316 11.64a8.434 8.434 0 0 0-2.975 11.552 8.435 8.435 0 0 0 11.553 2.975c10.298-6.082 21.964-9.296 33.738-9.296 39.263 0 71.265 35.053 71.339 78.139a8.437 8.437 0 0 0 4.626 7.512c21.132 10.695 34.785 34.102 34.785 59.633 0 32.222-21.821 60.12-50.759 64.893a8.436 8.436 0 0 0-6.225 4.66c-9.05 18.768-25.402 31.455-44.044 34.758v-74.645l41.516-38.177a8.435 8.435 0 0 0 .499-11.919 8.434 8.434 0 0 0-11.919-.499l-30.096 27.675v-56.312a8.436 8.436 0 0 0-16.872 0v102.1l-30.096-27.675a8.434 8.434 0 0 0-11.919.499 8.435 8.435 0 0 0 .499 11.919l41.517 38.177v29.252c-19.892-2.563-37.435-15.725-46.848-35.641a8.431 8.431 0 0 0-5.873-4.646c-27.992-5.947-48.308-33.038-48.308-64.419 0-24.744 12.478-47.139 32.564-58.442a8.436 8.436 0 0 0 4.298-7.455c-.002-.234-.01-.466-.018-.697-.005-.134-.01-.267-.01-.4 0-17.573 5.186-34.177 14.997-48.015a8.435 8.435 0 0 0-2.002-11.76 8.435 8.435 0 0 0-11.76 2.002c-11.177 15.764-17.381 34.439-18.045 54.212-22.878 14.919-36.894 41.492-36.894 70.556 0 37.804 24 70.734 57.638 79.942 12.661 23.845 35.055 39.276 60.263 41.746v51.492h-5.343c-1.243-22.077-16.334-41.283-37.349-47.768-6.594-14.029-19.402-24.201-34.463-27.499-4.938-22.445-25.143-39.182-48.688-39.182-18.156 0-34.619 9.758-43.395 25.29a51.51 51.51 0 0 0-41.748 24.194c-5.563-15.304-19.813-26.447-36.497-27.645V326.24c22.773-3.166 42.938-17.41 54.72-38.958 15.651-3.616 29.865-12.696 40.388-25.888 11.458-14.363 17.768-32.72 17.768-51.688 0-28.788-14.709-55.441-37.868-69.344-2.513-48.011-39.564-86.261-84.678-86.261-17.305 0-33.95 5.581-48.137 16.142a8.438 8.438 0 0 0-1.73 11.804 8.438 8.438 0 0 0 11.804 1.73c11.252-8.378 24.414-12.805 38.063-12.805 37.391 0 67.869 33.398 67.94 74.45a8.437 8.437 0 0 0 4.626 7.512c20.112 10.179 33.106 32.464 33.106 56.772 0 30.675-20.762 57.232-48.295 61.773a8.437 8.437 0 0 0-6.225 4.66c-8.545 17.72-23.924 29.748-41.484 33.008v-70.88l39.632-36.443a8.436 8.436 0 0 0-11.42-12.418l-28.212 25.942v-53.094a8.436 8.436 0 0 0-16.872 0v96.931l-28.211-25.942a8.434 8.434 0 0 0-11.919.499 8.435 8.435 0 0 0 .499 11.919l39.63 36.443v27.438c-18.756-2.566-35.272-15.047-44.167-33.865a8.431 8.431 0 0 0-5.873-4.646c-26.633-5.661-45.964-31.45-45.964-61.325 0-23.561 11.875-44.881 30.992-55.639a8.433 8.433 0 0 0 4.298-7.448 25.834 25.834 0 0 0-.017-.683c-.003-.123-.009-.245-.009-.37 0-10.434 1.923-20.524 5.715-29.989a77.696 77.696 0 0 1 3.864-8.212 8.434 8.434 0 0 0-3.374-11.442 8.432 8.432 0 0 0-11.442 3.373 94.541 94.541 0 0 0-4.707 10.006c-4.156 10.371-6.459 21.339-6.862 32.655C13.417 156.324 0 181.824 0 209.706c0 36.297 23.018 67.926 55.296 76.84 12.138 22.755 33.507 37.519 57.579 39.99v24.129a41.879 41.879 0 0 0-22.216 18.171c-20.486 1.165-37.039 16.295-40.247 36.249-15.109 6.71-26.342 20.018-30.478 35.942H8.436a8.436 8.436 0 0 0 0 16.872h494.888a8.436 8.436 0 0 0 0-16.87zm-465.697 0c4.024-10.255 12.489-18.424 23.273-21.917a8.435 8.435 0 0 0 5.833-7.776c.425-14.411 12.054-25.7 26.475-25.7.578 0 1.21.027 1.987.084a8.441 8.441 0 0 0 8.398-5.145 25.083 25.083 0 0 1 23.171-15.399c13.026 0 24.022 10.162 25.034 23.135a8.439 8.439 0 0 0 7.755 7.755c2.3.179 4.524.684 6.63 1.454l.026.011c.391.144.776.299 1.158.461l.247.106c.357.155.71.318 1.057.489.118.059.234.12.351.18.481.246.952.508 1.414.783.252.151.506.297.752.457.187.12.367.249.549.372a22.47 22.47 0 0 1 1.275.926c.326.254.648.516.961.787.087.074.174.145.26.22a25.213 25.213 0 0 1 3.432 3.723c.055.073.112.145.166.219a25.021 25.021 0 0 1 1.788 2.813c.071.13.138.263.208.395.19.363.371.733.544 1.108a25.409 25.409 0 0 1 .802 1.925l.02.052a8.437 8.437 0 0 0 6.155 5.375c.754.162 1.493.36 2.22.583.237.073.467.162.702.241.484.162.966.327 1.437.515.272.109.537.232.804.349.421.184.84.371 1.25.575.276.137.544.285.814.431a26.292 26.292 0 0 1 3.013 1.888c.251.181.499.362.743.551.349.27.687.551 1.022.836.227.193.457.385.678.585.343.312.671.637.998.964.193.193.393.382.58.582.368.391.716.799 1.061 1.209.128.153.264.297.389.452.46.574.899 1.164 1.313 1.773.087.127.162.263.246.391.319.486.63.977.919 1.482.13.229.247.467.371.7.224.418.444.837.647 1.266.126.267.238.54.355.81.178.411.35.822.508 1.242.108.288.207.579.306.871a28.282 28.282 0 0 1 .638 2.164c.107.43.201.863.288 1.299.061.304.12.608.171.916.024.143.036.288.057.432H37.627zm188.261.001v-.001c-.007-.08-.024-.159-.03-.238a43.656 43.656 0 0 0-.387-2.997l-.033-.174a44.042 44.042 0 0 0-.617-2.996c-.01-.043-.018-.086-.029-.127a44.882 44.882 0 0 0-.824-2.898c-.033-.102-.063-.207-.097-.309-.3-.918-.634-1.822-.993-2.716-.052-.129-.102-.259-.155-.387a44.024 44.024 0 0 0-1.36-2.982 45.539 45.539 0 0 0-1.34-2.482l-.217-.367a44.319 44.319 0 0 0-1.532-2.408c-.065-.096-.133-.189-.199-.283a45.52 45.52 0 0 0-1.751-2.364c-.038-.048-.079-.094-.117-.143a44.89 44.89 0 0 0-1.991-2.323l-.022-.025a45.562 45.562 0 0 0-2.13-2.155c-.064-.061-.126-.124-.19-.184a45.174 45.174 0 0 0-2.183-1.913l-.3-.249a44.743 44.743 0 0 0-2.267-1.715l-.36-.254a44.08 44.08 0 0 0-2.759-1.768 44.842 44.842 0 0 0-2.51-1.379c-.117-.06-.236-.115-.354-.173a44.367 44.367 0 0 0-2.687-1.226c-.081-.034-.163-.063-.244-.096a43.966 43.966 0 0 0-2.918-1.075l-.011-.005c-.043-.087-.092-.168-.135-.254a41.646 41.646 0 0 0-1.074-2.014c-.192-.337-.397-.666-.597-.998a38.232 38.232 0 0 0-2.184-3.249 40.587 40.587 0 0 0-.891-1.172c-.18-.225-.369-.441-.553-.661a41.842 41.842 0 0 0-2.231-2.476c-.134-.137-.262-.279-.397-.414-.386-.384-.785-.752-1.185-1.121a41.84 41.84 0 0 0-.697-.633c-.382-.336-.77-.666-1.166-.99-.288-.236-.581-.463-.875-.692-.367-.283-.731-.569-1.108-.841-.53-.384-1.072-.75-1.62-1.109-.146-.096-.285-.202-.433-.296a34.652 34.652 0 0 1 29.836-16.989c.761 0 1.587.035 2.599.109a8.434 8.434 0 0 0 8.397-5.145 32.929 32.929 0 0 1 30.422-20.218c17.103 0 31.54 13.344 32.868 30.378a8.436 8.436 0 0 0 7.755 7.754c12.867 1.003 24.021 9.498 28.417 21.643a8.437 8.437 0 0 0 6.155 5.375c15.564 3.354 27.11 16.738 28.407 32.428H225.888z"/></symbol><symbol viewBox="-41 164.9 512 512" id="adv-infrastructure"><path d="M-11.4 285.9h43.1c16.3 0 29.6-10.9 29.6-24.3 0-4.3-1.4-8.5-4-12.2-2.2-3.2-7.2-4.3-11-2.4-3.9 1.8-5.2 5.9-2.9 9.1 1.2 1.7 1.8 3.6 1.8 5.5 0 6.1-6 11.1-13.5 11.1h-43.1c-7.4 0-13.5-5-13.5-11.1s6-11.1 13.5-11.1H2.3c2.9 0 5.6-1.3 7-3.3 1.4-2.1 1.4-4.6 0-6.6-1.2-1.7-1.8-3.6-1.8-5.5 0-6.1 6-11.1 13.5-11.1h107.8c7.4 0 13.5 5 13.5 11.1s-6 11.1-13.5 11.1H85.7c-4.5 0-8.1 3-8.1 6.6s3.6 6.6 8.1 6.6h43.1c16.3 0 29.6-10.9 29.6-24.3s-13.3-24.3-29.6-24.3H21c-16.3 0-29.6 10.9-29.6 24.3 0 .7 0 1.5.1 2.2h-2.8c-16.3 0-29.6 10.9-29.6 24.3-.1 13.4 13.2 24.3 29.5 24.3zm294 59.8c0 3.7 3 6.6 6.7 6.6s6.7-3 6.7-6.6c0-37.8 31.1-68.6 69.3-68.6s69.3 30.8 69.3 68.6c0 33.3-24 61.7-57.1 67.5-3.6.6-6.1 4.1-5.4 7.7.6 3.2 3.4 5.5 6.6 5.5.4 0 .8 0 1.2-.1 39.5-7 68.1-40.8 68.1-80.6 0-45.1-37.1-81.9-82.7-81.9s-82.7 36.7-82.7 81.9z"/><path d="M365.3 378.9c-6.7 0-13.1-1.9-18.6-5.6-3.1-2-7.2-1.2-9.3 1.8-2.1 3-1.2 7.2 1.8 9.2 7.7 5.1 16.7 7.8 26.1 7.8 25.9 0 46.9-20.8 46.9-46.5s-21.1-46.5-46.9-46.5c-25.9 0-46.9 20.8-46.9 46.5 0 3.7 3 6.6 6.7 6.6s6.7-3 6.7-6.6c0-18.3 15-33.2 33.5-33.2s33.5 14.9 33.5 33.2-15 33.3-33.5 33.3zm-85.6-84.1c4.5 0 8.1-3 8.1-6.6 0-3.7-3.6-6.6-8.1-6.6-7.4 0-13.5-5-13.5-11.1s6-11.1 13.5-11.1h43.1c2.4 0 4.7.5 6.7 1.5 3.9 1.8 8.8.8 11-2.4 2.2-3.2.9-7.2-2.9-9.1-4.5-2.1-9.6-3.3-14.8-3.3h-43.1c-16.3 0-29.6 10.9-29.6 24.3-.1 13.5 13.2 24.4 29.6 24.4zm118.5 172.6h-10.8c-4.5 0-8.1 3-8.1 6.6 0 3.7 3.6 6.6 8.1 6.6h10.8c4.5 0 8.1-3 8.1-6.6 0-3.7-3.6-6.6-8.1-6.6zm-194-97.4c-4.5 0-8.1 3-8.1 6.6v115.1c0 3.7 3.6 6.6 8.1 6.6s8.1-3 8.1-6.6V376.6c0-3.6-3.6-6.6-8.1-6.6zm194 123.9h-10.8c-4.5 0-8.1 3-8.1 6.6 0 3.7 3.6 6.6 8.1 6.6h10.8c4.5 0 8.1-3 8.1-6.6 0-3.6-3.6-6.6-8.1-6.6zM88.3 544.8V403.2c0-3.7-3.6-6.6-8.1-6.6s-8.1 3-8.1 6.6v141.6c0 3.7 3.6 6.6 8.1 6.6s8.1-2.9 8.1-6.6z"/><path d="M462.9 617.8h-2.7V456.3c0-8.5-8.5-15.5-18.9-15.5h-78.1V412c0-8.5-8.5-15.5-18.9-15.5H320v-19.9c0-8.5-8.5-15.5-18.9-15.5h-45.8v-19.9c0-8.5-8.5-15.5-18.9-15.5h-13.5v-46.5c0-3.7-3.6-6.6-8.1-6.6s-8.1 3-8.1 6.6v46.5H169v-11.1c0-8.5-8.5-15.5-18.9-15.5h-10.8c-10.4 0-18.9 6.9-18.9 15.5V370H53.3c-10.4 0-18.9 6.9-18.9 15.5v159.3c0 3.7 3.6 6.6 8.1 6.6s8.1-3 8.1-6.6V385.5c0-1.2 1.2-2.2 2.7-2.2h67.4v234.5H83v-37.6c0-8.5-8.5-15.5-18.9-15.5h-75.5c-10.4 0-18.9 6.9-18.9 15.5v37.6H-33c-4.5 0-8.1 3-8.1 6.6 0 3.7 3.6 6.6 8.1 6.6h334.1c4.5 0 8.1-3 8.1-6.6 0-3.7-3.6-6.6-8.1-6.6H190.7v-7.3c0-17.4 11.4-33.7 29.9-42.4 2.5-1.2 4.1-3.4 4-5.8v-.4c0-15.5 15.4-28.1 34.3-28.1 16.2 0 30.4 9.5 33.6 22.5.8 3.1 4.1 5.3 7.9 5.3h.8c32.9 0 59.7 22 59.7 49v7.3h-27.3c-4.5 0-8.1 3-8.1 6.6 0 3.7 3.6 6.6 8.1 6.6h129.3c4.5 0 8.1-3 8.1-6.6 0-3.7-3.6-6.7-8.1-6.7zm-396.1 0H-14v-37.6c0-1.2 1.2-2.2 2.7-2.2h75.5c1.5 0 2.7 1 2.7 2.2l-.1 37.6zm188.6-243.4h45.8c1.5 0 2.7 1 2.7 2.2v19.9h-48.5v-22.1zm-118.5-59.7c0-1.2 1.2-2.2 2.7-2.2h10.8c1.5 0 2.7 1 2.7 2.2v11.1h-16.2v-11.1zm307.2 303.1h-67v-7.3c0-32.9-31.2-59.8-70.5-62.1-6.9-16.5-26-28-47.7-28-26.5 0-48.2 16.8-50.3 38.1-21.1 11.5-34 31-34 51.9v7.3h-37.7V339h99.7c1.5 0 2.7 1 2.7 2.2v159.3c0 3.7 3.6 6.6 8.1 6.6s8.1-3 8.1-6.6v-90.7h88.9c1.5 0 2.7 1 2.7 2.2v132.8c0 3.7 3.6 6.6 8.1 6.6s8.1-3 8.1-6.6v-90.7h78.1c1.5 0 2.7 1 2.7 2.2v161.5z"/><path d="M398.2 520.5h-10.8c-4.5 0-8.1 3-8.1 6.6 0 3.7 3.6 6.6 8.1 6.6h10.8c4.5 0 8.1-3 8.1-6.6s-3.6-6.6-8.1-6.6zM312 423.1c-4.5 0-8.1 3-8.1 6.6v62c0 3.7 3.6 6.6 8.1 6.6s8.1-3 8.1-6.6v-62c0-3.6-3.6-6.6-8.1-6.6z"/></symbol><symbol viewBox="-151 275.9 512 512" id="adv-parking"><path d="M-37.5 348h-27.3v54.5h13.6v-13.6h13.6c11.3 0 20.4-9.2 20.4-20.4.1-11.3-9.1-20.5-20.3-20.5zm0 27.2h-13.6v-13.6h13.6c3.8 0 6.8 3.1 6.8 6.8 0 3.8-3.1 6.8-6.8 6.8z"/><path d="M207.8 675c0-37.6-30.6-68.1-68.1-68.1S71.5 637.5 71.5 675c0 22.3 10.8 42.1 27.4 54.5H-3.5v-27.3h-20.4V552.4h-13.6V429.8h31.7l23.4-54.5-23.4-54.5h-77.1l-23.4 54.5 23.4 54.5h31.7v122.6h-13.6v149.9h-20.4v27.3h-20.4v13.6h422.4v-13.6H180.3c16.6-12.5 27.5-32.3 27.5-54.6zM-73.9 416.1l-17.5-40.9 17.5-40.9h59.2l17.5 40.9-17.5 40.9h-59.2zM-51.1 566h13.6v136.3h-13.6V566zm34 163.5h-54.5v-13.6h54.5v13.6zm156.7 0c-30.1 0-54.5-24.5-54.5-54.5 0-30.1 24.5-54.5 54.5-54.5s54.5 24.5 54.5 54.5c0 30.1-24.4 54.5-54.5 54.5z"/><path d="M270.2 375.2c-27.8 0-52.2 18.8-59.3 45.7l-22 83.7h-35.6c-45.9 0-88.4 24.5-111.6 64.1l-17.8 5.9v45.8H-3.5V675h61.3v-13.6H37.4v-76.9l18.7-6.2c24.5-8.2 50.1-12.3 75.9-12.3h4.9c30 0 57.9 13.4 76.6 36.8 13.3 16.6 20.8 37.3 21.4 58.6h-13.5V675h95.3v-13.6h-68.2c-.6-24.3-9.2-48-24.5-67.1-21.3-26.7-53.1-41.9-87.3-41.9H132c-23.5 0-46.8 3.3-69.3 9.7 21.8-27.3 55.1-43.7 90.6-43.7h46.1l24.7-93.9c5.5-20.9 24.5-35.6 46.1-35.6h46.6v-13.6l-46.6-.1zM23.8 661.4H10.2v-27.3h13.6v27.3z"/><path d="M139.6 641c-18.8 0-34.1 15.3-34.1 34.1s15.3 34.1 34.1 34.1 34.1-15.3 34.1-34.1-15.3-34.1-34.1-34.1zm0 54.5c-11.3 0-20.4-9.2-20.4-20.4s9.2-20.4 20.4-20.4c11.3 0 20.4 9.2 20.4 20.4.1 11.2-9.1 20.4-20.4 20.4zm99.8-271l-20 74.9c-1.6 6.2-.4 12.6 3.5 17.7s9.8 8 16.2 8h77.7v-13.6h-77.7c-2.1 0-4.1-1-5.4-2.7-1.3-1.7-1.7-3.8-1.2-5.9l20-74.9c.8-3 3.5-5.1 6.6-5.1h57.7v-13.6h-57.7c-9.2 0-17.4 6.3-19.7 15.2z"/></symbol><symbol viewBox="-41 164.9 512 512" id="adv-transport"><path d="M69.9 496.2c-14.1 0-25.6 11.5-25.6 25.6s11.5 25.6 25.6 25.6 25.6-11.5 25.6-25.6-11.5-25.6-25.6-25.6zm0 34.1c-4.7 0-8.5-3.8-8.5-8.5s3.8-8.5 8.5-8.5 8.5 3.8 8.5 8.5c.1 4.7-3.8 8.5-8.5 8.5z"/><path d="M411.3 240.2H-15.4c-14.1 0-25.6 11.5-25.6 25.6v238.9c0 14.1 11.5 25.6 25.6 25.6 4.7 0 8.5-3.8 8.5-8.5s-3.8-8.5-8.5-8.5-8.5-3.8-8.5-8.5v-25.6h8.5c4.7 0 8.5-3.8 8.5-8.5s-3.8-8.5-8.5-8.5h-8.5V265.8c0-4.7 3.8-8.5 8.5-8.5h366.9v17.1H1.7c-4.7 0-8.5 3.8-8.5 8.5s3.8 8.5 8.5 8.5h8.5v102.4H1.7c-4.7 0-8.5 3.8-8.5 8.5s3.8 8.5 8.5 8.5h349.9V445c0 4.7 3.8 8.5 8.5 8.5s8.5-3.8 8.5-8.5v-34.1h85.3V462h-8.5c-4.7 0-8.5 3.8-8.5 8.5s3.8 8.5 8.5 8.5h8.5v25.6c0 4.7-3.8 8.5-8.5 8.5h-26.3c-4.2-28.9-29-51.2-59.1-51.2-32.9 0-59.7 26.8-59.7 59.7 0 32.9 26.8 59.7 59.7 59.7 30 0 54.9-22.3 59.1-51.2h26.3c14.1 0 25.6-11.5 25.6-25.6V299.9c0-33.5-26.2-59.7-59.7-59.7zM95.5 393.8H27.3V291.4h68.3l-.1 102.4zm85.4 0h-68.3V291.4h68.3v102.4zm85.3 0h-68.3V291.4h68.3v102.4zm85.3 0h-68.3V291.4h68.3v102.4zm8.6 170.6c-23.5 0-42.7-19.1-42.7-42.7 0-23.5 19.1-42.7 42.7-42.7 23.5 0 42.7 19.1 42.7 42.7-.1 23.6-19.2 42.7-42.7 42.7zm93.8-170.6H425l11-21.8c2.1-4.2.4-9.3-3.8-11.4-4.2-2.1-9.3-.4-11.5 3.8L406 393.8h-37.4V257.2h42.7c24.3 0 42.7 18.3 42.7 42.7l-.1 93.9z"/><path d="M283.3 521.8c0-4.7-3.8-8.5-8.5-8.5H129c-4.2-28.9-29-51.2-59.1-51.2-32.9 0-59.7 26.8-59.7 59.7 0 32.9 26.8 59.7 59.7 59.7 30 0 54.9-22.3 59.1-51.2h145.7c4.7 0 8.6-3.8 8.6-8.5zM69.9 564.4c-23.5 0-42.7-19.1-42.7-42.7 0-23.5 19.1-42.7 42.7-42.7 23.5 0 42.7 19.1 42.7 42.7s-19.1 42.7-42.7 42.7zm290.2-68.2c-14.1 0-25.6 11.5-25.6 25.6s11.5 25.6 25.6 25.6 25.6-11.5 25.6-25.6-11.5-25.6-25.6-25.6zm0 34.1c-4.7 0-8.5-3.8-8.5-8.5s3.8-8.5 8.5-8.5 8.5 3.8 8.5 8.5-3.8 8.5-8.5 8.5zM87 598.6H-32.5c-4.7 0-8.5 3.8-8.5 8.5s3.8 8.5 8.5 8.5H87c4.7 0 8.5-3.8 8.5-8.5s-3.8-8.5-8.5-8.5zm204.8 0h-17.1c-4.7 0-8.5 3.8-8.5 8.5s3.8 8.5 8.5 8.5h17.1c4.7 0 8.5-3.8 8.5-8.5s-3.8-8.5-8.5-8.5zm170.7 0H325.9c-4.7 0-8.5 3.8-8.5 8.5s3.8 8.5 8.5 8.5h136.5c4.7 0 8.5-3.8 8.5-8.5.1-4.7-3.7-8.5-8.4-8.5zm-239 0h-85.3c-4.7 0-8.5 3.8-8.5 8.5s3.8 8.5 8.5 8.5h85.3c4.7 0 8.5-3.8 8.5-8.5.1-4.7-3.8-8.5-8.5-8.5z"/><path d="M291.8 479.1c4.7 0 8.5-3.8 8.5-8.5s-3.8-8.5-8.5-8.5H138.2c-4.7 0-8.5 3.8-8.5 8.5s3.8 8.5 8.5 8.5h153.6z"/></symbol><symbol viewBox="-172.1 33.8 774.2 774.2" id="area-map"><g fill="#FFF"><path d="M325.9 642.8H87c-4.7 0-8.5 3.8-8.5 8.5v17.1c0 4.7 3.8 8.5 8.5 8.5s8.5-3.8 8.5-8.5v-8.5h230.4c4.7 0 8.5-3.8 8.5-8.5.1-4.8-3.8-8.6-8.5-8.6zM146.7 378.2c0 4.7 3.8 8.5 8.5 8.5h34.1c4.7 0 8.5-3.8 8.5-8.5V327c0-4.7-3.8-8.5-8.5-8.5h-34.1c-4.7 0-8.5 3.8-8.5 8.5v51.2zm17.1-42.6h17.1v34.1h-17.1v-34.1zm-93.9-68.3H-32.5c-4.7 0-8.5 3.8-8.5 8.5v170.7c0 4.7 3.8 8.5 8.5 8.5s8.5-3.8 8.5-8.5V284.4h93.9c4.7 0 8.5-3.8 8.5-8.5s-3.8-8.6-8.5-8.6zM368.6 583c0 4.7 3.8 8.5 8.5 8.5h34.1c4.7 0 8.5-3.8 8.5-8.5v-51.2c0-4.7-3.8-8.5-8.5-8.5h-34.1c-4.7 0-8.5 3.8-8.5 8.5V583zm17.1-42.6h17.1v34.1h-17.1v-34.1zm-384-68.3C-40.5 472.1-41 581.9-41 583c0 20.6 14.7 37.8 34.1 41.8v43.5c0 4.7 3.8 8.5 8.5 8.5s8.5-3.8 8.5-8.5v-43.5c19.4-4 34.1-21.2 34.1-41.8.1-1.1-.4-110.9-42.5-110.9zm0 136.5c-14.1 0-25.6-11.5-25.6-25.6 0-42.5 11.4-93.9 25.6-93.9s25.6 51.4 25.6 93.9c0 14.1-11.5 25.6-25.6 25.6zm51.2-187.7H18.7c-4.7 0-8.5 3.8-8.5 8.5v17.1c0 4.7 3.8 8.5 8.5 8.5s8.5-3.8 8.5-8.5V438h17.1v42.7c0 4.7 3.8 8.5 8.5 8.5s8.5-3.8 8.5-8.5v-51.2c.1-4.8-3.7-8.6-8.4-8.6zm324.2-34.1h34.1c4.7 0 8.5-3.8 8.5-8.5V327c0-4.7-3.8-8.5-8.5-8.5h-34.1c-4.7 0-8.5 3.8-8.5 8.5v51.2c0 4.7 3.8 8.6 8.5 8.6zm8.6-51.2h17.1v34.1h-17.1v-34.1z"/><path d="M52.9 318.5H18.7c-4.7 0-8.5 3.8-8.5 8.5v51.2c0 4.7 3.8 8.5 8.5 8.5h34.1c4.7 0 8.5-3.8 8.5-8.5V327c.1-4.7-3.7-8.5-8.4-8.5zm-8.6 51.2h-17v-34.1h17.1l-.1 34.1zm187.8 8.5c0 4.7 3.8 8.5 8.5 8.5h34.1c4.7 0 8.5-3.8 8.5-8.5V327c0-4.7-3.8-8.5-8.5-8.5h-34.1c-4.7 0-8.5 3.8-8.5 8.5v51.2zm17-42.6h17.1v34.1h-17.1v-34.1zm213.4-68.3H360.1c-4.7 0-8.5 3.8-8.5 8.5s3.8 8.5 8.5 8.5H454v342.9c-2.7-1-5.5-1.6-8.5-1.6-1.5 0-2.9.1-4.4.4-5.9-10.6-17.1-17.5-29.7-17.5s-23.9 6.8-29.7 17.5c-1.4-.3-2.9-.4-4.4-.4-14.1 0-25.6 11.5-25.6 25.6s11.5 25.6 25.6 25.6h68.3c14.1 0 25.6-11.5 25.6-25.6V275.8c-.2-4.7-4-8.5-8.7-8.5zm-17.1 392.5h-68.3c-4.7 0-8.5-3.8-8.5-8.5s3.8-8.5 8.5-8.5c1.6 0 3.2.5 4.6 1.4 2.3 1.5 5.3 1.8 7.8.7 2.6-1 4.5-3.3 5.1-6 1.8-7.8 8.6-13.2 16.6-13.2s14.8 5.4 16.6 13.2c.6 2.7 2.5 4.9 5.1 6 2.6 1 5.5.8 7.8-.7 5.6-3.6 13.2.8 13.2 7.1 0 4.7-3.8 8.5-8.5 8.5zM240.6 284.4h34.1c4.7 0 8.5-3.8 8.5-8.5v-51.2c0-4.7-3.8-8.5-8.5-8.5h-34.1c-4.7 0-8.5 3.8-8.5 8.5v51.2c0 4.6 3.8 8.5 8.5 8.5zm8.5-51.2h17.1v34.1h-17.1v-34.1zm-17 247.4c0 4.7 3.8 8.5 8.5 8.5h34.1c4.7 0 8.5-3.8 8.5-8.5v-51.2c0-4.7-3.8-8.5-8.5-8.5h-34.1c-4.7 0-8.5 3.8-8.5 8.5v51.2zm17-42.6h17.1v34.1h-17.1V438zm-93.8-153.6h34.1c4.7 0 8.5-3.8 8.5-8.5v-51.2c0-4.7-3.8-8.5-8.5-8.5h-34.1c-4.7 0-8.5 3.8-8.5 8.5v51.2c-.1 4.6 3.8 8.5 8.5 8.5zm8.5-51.2h17.1v34.1h-17.1v-34.1zM208.9 577c-1.5 1.6-2.5 3.8-2.5 6.1s.9 4.4 2.5 6.1c1.6 1.5 3.8 2.5 6.1 2.5 2.2 0 4.4-.9 6.1-2.5 1.5-1.6 2.5-3.8 2.5-6.1s-.9-4.4-2.5-6.1c-3.3-3.2-8.9-3.2-12.2 0zm-62.2-96.4c0 4.7 3.8 8.5 8.5 8.5h34.1c4.7 0 8.5-3.8 8.5-8.5v-51.2c0-4.7-3.8-8.5-8.5-8.5h-34.1c-4.7 0-8.5 3.8-8.5 8.5v51.2zm17.1-42.6h17.1v34.1h-17.1V438z"/><path d="M129.7 531.8c0 4.7 3.8 8.5 8.5 8.5h25.6v76.8c0 4.7 3.8 8.5 8.5 8.5s8.5-3.8 8.5-8.5v-76.8h68.3v76.8c0 4.7 3.8 8.5 8.5 8.5s8.5-3.8 8.5-8.5v-76.8h25.6c4.7 0 8.5-3.8 8.5-8.5s-3.8-8.5-8.5-8.5H138.2c-4.7 0-8.5 3.8-8.5 8.5zm238.9-51.2c0 4.7 3.8 8.5 8.5 8.5h34.1c4.7 0 8.5-3.8 8.5-8.5v-51.2c0-4.7-3.8-8.5-8.5-8.5h-34.1c-4.7 0-8.5 3.8-8.5 8.5v51.2zm17.1-42.6h17.1v34.1h-17.1V438z"/><path d="M325.9 164.9H104.1c-4.7 0-8.5 3.8-8.5 8.5v443.7c0 4.7 3.8 8.5 8.5 8.5s8.5-3.8 8.5-8.5V182h204.8v435.2c0 4.7 3.8 8.5 8.5 8.5s8.5-3.8 8.5-8.5V173.4c.1-4.7-3.8-8.5-8.5-8.5z"/></g><path fill="#FDCF79" d="M585.1 50.8V791h-740.2V50.8h740.2m17-17h-774.2V808h774.2V33.8z"/></symbol><symbol viewBox="0 0 451.847 451.847" id="arrow-left-900"><path d="M97.141 225.92c0-8.095 3.091-16.192 9.259-22.366L300.689 9.27c12.359-12.359 32.397-12.359 44.751 0 12.354 12.354 12.354 32.388 0 44.748L173.525 225.92l171.903 171.909c12.354 12.354 12.354 32.391 0 44.744-12.354 12.365-32.386 12.365-44.745 0l-194.29-194.281c-6.167-6.177-9.252-14.274-9.252-22.372z"/></symbol><symbol viewBox="0 0 451.846 451.847" id="arrow-right-900"><path d="M345.441 248.292L151.154 442.573c-12.359 12.365-32.397 12.365-44.75 0-12.354-12.354-12.354-32.391 0-44.744L278.318 225.92 106.409 54.017c-12.354-12.359-12.354-32.394 0-44.748 12.354-12.359 32.391-12.359 44.75 0l194.287 194.284c6.177 6.18 9.262 14.271 9.262 22.366 0 8.099-3.091 16.196-9.267 22.373z"/></symbol><symbol viewBox="-256 379.4 82.5 82.5" id="btn-arrow-bottom"><path d="M-255.3 420.5l7.1-7.1 33.2 33.4 33.4-33.2 7.1 7.1-40.6 40.2z"/><path d="M-220.1 451.9v-66.7l5-5 5 5v66.7z"/></symbol><symbol viewBox="-256 379.4 82.5 82.5" id="btn-arrow-left"><path d="M-215 460.9l-7-7.1 33.3-33.1-33.1-33.5 7-7 40.3 40.5z"/><path d="M-183.6 425.7h-66.7l-5-5 5-5h66.7z"/></symbol><symbol viewBox="0 0 477 477" id="contacts-address"><path d="M238.4 0C133 0 47.2 85.8 47.2 191.2c0 12 1.1 24.1 3.4 35.9.1.7.5 2.8 1.3 6.4 2.9 12.9 7.2 25.6 12.8 37.7 20.6 48.5 65.9 123 165.3 202.8 2.5 2 5.5 3 8.5 3s6-1 8.5-3c99.3-79.8 144.7-154.3 165.3-202.8 5.6-12.1 9.9-24.7 12.8-37.7.8-3.6 1.2-5.7 1.3-6.4 2.2-11.8 3.4-23.9 3.4-35.9C429.6 85.8 343.8 0 238.4 0zm161.2 222.4c0 .2-.1.4-.1.6-.1.5-.4 2-.9 4.3v.2c-2.5 11.2-6.2 22.1-11.1 32.6-.1.1-.1.3-.2.4-18.7 44.3-59.7 111.9-148.9 185.6-89.2-73.7-130.2-141.3-148.9-185.6-.1-.1-.1-.3-.2-.4-4.8-10.4-8.5-21.4-11.1-32.6v-.2c-.6-2.3-.8-3.8-.9-4.3 0-.2-.1-.4-.1-.7-2-10.3-3-20.7-3-31.2 0-90.5 73.7-164.2 164.2-164.2s164.2 73.7 164.2 164.2c0 10.6-1 21.1-3 31.3z"/><path d="M238.4 71.9c-66.9 0-121.4 54.5-121.4 121.4s54.5 121.4 121.4 121.4 121.4-54.5 121.4-121.4S305.3 71.9 238.4 71.9zm0 215.8c-52.1 0-94.4-42.4-94.4-94.4s42.4-94.4 94.4-94.4 94.4 42.4 94.4 94.4-42.3 94.4-94.4 94.4z"/></symbol><symbol viewBox="0 0 488 488" id="contacts-email"><path d="M416.5 71.5C370.4 25.4 309.2 0 244 0S117.6 25.4 71.5 71.5C25.4 117.6 0 178.8 0 244s25.4 126.4 71.5 172.5C117.6 462.6 178.8 488 244 488c39.7 0 79-9.7 113.9-28.2 8.8-4.6 12.1-15.5 7.5-24.3s-15.5-12.1-24.3-7.5c-29.7 15.7-63.2 24-97.1 24-114.7 0-208-93.3-208-208S129.3 36 244 36s208 93.3 208 208c0 38.6-10.8 60.6-19.9 72.2-9.7 12.5-22.7 19.6-35.7 19.6-18.1 0-36.4-14.4-36.4-46.6V149.1c0-9.9-8.1-18-18-18s-18 8.1-18 18v7.9c-22.4-22.5-53.3-36.4-87.5-36.4C168.4 120.5 113 175.9 113 244s55.4 123.5 123.5 123.5c12.1 0 24-1.7 35.4-5.2 9.5-2.8 14.9-12.9 12.1-22.4s-12.9-14.9-22.4-12.1c-8.1 2.4-16.6 3.7-25.1 3.7-48.2 0-87.5-39.2-87.5-87.5 0-48.2 39.2-87.5 87.5-87.5S324 195.7 324 244v45.2c0 54.2 36.4 82.6 72.4 82.6 24.1 0 47.5-12.2 64.1-33.5 18-23.1 27.5-55.7 27.5-94.3 0-65.2-25.4-126.4-71.5-172.5z"/></symbol><symbol viewBox="0 0 482.6 482.6" id="contacts-phone"><path d="M98.339 320.8c47.6 56.9 104.9 101.7 170.3 133.4 24.9 11.8 58.2 25.8 95.3 28.2 2.3.1 4.5.2 6.8.2 24.9 0 44.9-8.6 61.2-26.3.1-.1.3-.3.4-.5 5.8-7 12.4-13.3 19.3-20 4.7-4.5 9.5-9.2 14.1-14 21.3-22.2 21.3-50.4-.2-71.9l-60.1-60.1c-10.2-10.6-22.4-16.2-35.2-16.2-12.8 0-25.1 5.6-35.6 16.1l-35.8 35.8c-3.3-1.9-6.7-3.6-9.9-5.2-4-2-7.7-3.9-11-6-32.6-20.7-62.2-47.7-90.5-82.4-14.3-18.1-23.9-33.3-30.6-48.8 9.4-8.5 18.2-17.4 26.7-26.1 3-3.1 6.1-6.2 9.2-9.3 10.8-10.8 16.6-23.3 16.6-36s-5.7-25.2-16.6-36l-29.8-29.8c-3.5-3.5-6.8-6.9-10.2-10.4-6.6-6.8-13.5-13.8-20.3-20.1-10.3-10.1-22.4-15.4-35.2-15.4-12.7 0-24.9 5.3-35.6 15.5l-37.4 37.4c-13.6 13.6-21.3 30.1-22.9 49.2-1.9 23.9 2.5 49.3 13.9 80 17.5 47.5 43.9 91.6 83.1 138.7zm-72.6-216.6c1.2-13.3 6.3-24.4 15.9-34l37.2-37.2c5.8-5.6 12.2-8.5 18.4-8.5 6.1 0 12.3 2.9 18 8.7 6.7 6.2 13 12.7 19.8 19.6 3.4 3.5 6.9 7 10.4 10.6l29.8 29.8c6.2 6.2 9.4 12.5 9.4 18.7s-3.2 12.5-9.4 18.7c-3.1 3.1-6.2 6.3-9.3 9.4-9.3 9.4-18 18.3-27.6 26.8l-.5.5c-8.3 8.3-7 16.2-5 22.2.1.3.2.5.3.8 7.7 18.5 18.4 36.1 35.1 57.1 30 37 61.6 65.7 96.4 87.8 4.3 2.8 8.9 5 13.2 7.2 4 2 7.7 3.9 11 6 .4.2.7.4 1.1.6 3.3 1.7 6.5 2.5 9.7 2.5 8 0 13.2-5.1 14.9-6.8l37.4-37.4c5.8-5.8 12.1-8.9 18.3-8.9 7.6 0 13.8 4.7 17.7 8.9l60.3 60.2c12 12 11.9 25-.3 37.7-4.2 4.5-8.6 8.8-13.3 13.3-7 6.8-14.3 13.8-20.9 21.7-11.5 12.4-25.2 18.2-42.9 18.2-1.7 0-3.5-.1-5.2-.2-32.8-2.1-63.3-14.9-86.2-25.8-62.2-30.1-116.8-72.8-162.1-127-37.3-44.9-62.4-86.7-79-131.5-10.3-27.5-14.2-49.6-12.6-69.7z"/></symbol><symbol viewBox="0 0 512 512" id="contacts-time"><path d="M297.811 257.216h-30.164l-.003-66.751c0-8.802-7.135-15.936-15.936-15.936-8.802 0-15.936 7.135-15.936 15.936l.003 82.686c0 8.801 7.135 15.936 15.936 15.936h46.1c8.801 0 15.936-7.135 15.936-15.936 0-8.8-7.135-15.935-15.936-15.935z"/><path d="M256 60.375C148.132 60.375 60.375 148.132 60.375 256S148.132 451.625 256 451.625 451.625 363.868 451.625 256 363.868 60.375 256 60.375zm128.109 297.498l-10.505-10.505c-6.223-6.224-16.313-6.224-22.537 0s-6.224 16.313 0 22.537l10.862 10.862c-24.77 21.062-55.862 34.896-89.993 38.208v-16.292c0-8.801-7.135-15.936-15.936-15.936s-15.936 7.135-15.936 15.936v16.293c-34.131-3.312-65.223-17.146-89.993-38.208l10.862-10.862c6.224-6.224 6.224-16.313 0-22.537-6.223-6.224-16.313-6.224-22.537 0l-10.505 10.505c-19.913-24.988-32.684-55.904-35.188-89.635h12.916c8.801 0 15.936-7.135 15.936-15.936s-7.135-15.936-15.936-15.936H93.428c3.922-32.677 17.505-62.423 37.804-86.295l7.164 7.164a15.886 15.886 0 0 0 11.269 4.668c4.078 0 8.157-1.556 11.268-4.667 6.224-6.224 6.224-16.313 0-22.537l-6.807-6.807c24.072-19.182 53.645-31.734 85.938-34.867v8.897c0 8.801 7.135 15.936 15.936 15.936s15.936-7.135 15.936-15.936v-8.899c32.293 3.133 61.866 15.685 85.938 34.867l-6.807 6.807c-6.222 6.224-6.222 16.313 0 22.537a15.884 15.884 0 0 0 11.268 4.667c4.077 0 8.157-1.555 11.269-4.668l7.164-7.164c20.298 23.872 33.881 53.617 37.804 86.295h-12.191c-8.801 0-15.936 7.135-15.936 15.936s7.137 15.937 15.938 15.937h12.916c-2.506 33.732-15.278 64.647-35.19 89.635z"/><path d="M437.02 74.98C388.667 26.628 324.381 0 256 0S123.332 26.628 74.98 74.98 0 187.619 0 256s26.628 132.667 74.98 181.02C123.332 485.372 187.619 512 256 512s132.668-26.628 181.02-74.98S512 324.381 512 256s-26.629-132.668-74.98-181.02zM256 480.128C132.416 480.128 31.872 379.584 31.872 256S132.416 31.872 256 31.872 480.128 132.416 480.128 256 379.584 480.128 256 480.128z"/></symbol><symbol viewBox="0 0 202.2 121.4" id="district"><path d="M38.5 86.1c-.2 0-.3 0-.5-.1l-1.9-1.1c-.3-.2-.5-.5-.5-.9V68.6c0-.6.4-1 1-1s1 .4 1 1v14.9l1.4.8c.5.3.6.9.4 1.4-.2.2-.5.4-.9.4zm-.9-35.6V12.9L63.9 2.1l30 10.1V20c0 .6.4 1 1 1s1-.4 1-1v-8.5c0-.4-.3-.8-.7-.9L64.2.1c-.2-.1-.5-.1-.7 0L36.2 11.3c-.4.2-.6.5-.6.9v38.3c0 .6.4 1 1 1s1-.4 1-1zm34.1 48.3c.3-.2.5-.5.5-.8V24.4c0-.4-.3-.8-.7-.9L37 11.3c-.5-.2-1.1.1-1.3.6-.2.5.1 1.1.6 1.3l33.9 11.9v71.2l-7.8-3.5c-.5-.2-1.1 0-1.3.5-.2.5 0 1.1.5 1.3l9.2 4.2c.1.1.3.1.4.1.2 0 .4 0 .5-.1zm0-73.5l23.7-12.9c.5-.3.7-.9.4-1.4s-.9-.7-1.4-.4L70.7 23.5c-.5.3-.7.9-.4 1.4.2.3.5.5.9.5.2 0 .3 0 .5-.1zm.1 73.4l6.3-4.5c.5-.3.6-.9.2-1.4-.3-.4-.9-.6-1.4-.2l-6.3 4.5c-.5.3-.6.9-.2 1.4.2.3.5.4.8.4.2 0 .4 0 .6-.2zM164.6 72l5.6-2.9c.3-.2.5-.5.5-.9V46.6c0-.4-.2-.7-.6-.9l-18-8.7c-.3-.1-.6-.1-.9 0l-15.7 7.7c-.5.2-.7.8-.5 1.3.2.5.8.7 1.3.5l15.2-7.5 17 8.2v20.4l-5.1 2.6c-.5.3-.7.9-.4 1.3.2.3.5.5.9.5.4.2.5.1.7 0zm-78.2 30.3c.2-.5-.1-1.1-.7-1.2l-7.2-2.2V28.7l25.9-10.9 29.3 8.7v59.9c0 .3.2.7.5.9.3.2.7.2 1 0l21.5-11.2c.5-.3.7-.9.4-1.3-.3-.5-.9-.7-1.3-.4l-20.1 10.4v-59c0-.4-.3-.8-.7-1l-30.3-9c-.2-.1-.5-.1-.7 0L77.2 27.2c-.4.2-.6.5-.6.9v71.5c0 .4.3.8.7 1l7.9 2.4h.3c.4 0 .8-.3.9-.7zm26.5 11.1l11.3-6.5c.5-.3.6-.9.4-1.4-.3-.5-.9-.6-1.4-.4l-9.8 5.6v-71l21.9-13.2c.5-.3.6-.9.3-1.4-.3-.5-.9-.6-1.4-.3l-22.3 13.5c-.3.2-.5.5-.5.9v73.3c0 .4.2.7.5.9.2.1.3.1.5.1s.3 0 .5-.1zm.4-73.8c.2-.5-.1-1.1-.6-1.3L77.8 27.1c-.5-.2-1.1.1-1.3.6-.2.5.1 1.1.6 1.3l34.8 11.2h.3c.6.1 1-.2 1.1-.6zm-28.2 62V39.7l18.3 6.6v44c0 .6.4 1 1 1s1-.4 1-1V45.6c0-.4-.3-.8-.7-.9l-20.3-7.3c-.3-.1-.6-.1-.9.1-.3.2-.4.5-.4.8v63.4c0 .6.4 1 1 1s1-.5 1-1.1zm27.7-49.8l22.3-11.7c.5-.3.7-.9.4-1.3-.3-.5-.9-.7-1.3-.4L111.9 50c-.5.3-.7.9-.4 1.3.2.3.5.5.9.5.1.1.3.1.4 0zm.1 12.7l22.3-12.7c.5-.3.6-.9.4-1.4s-.9-.6-1.4-.4l-22.3 12.7c-.5.3-.6.9-.4 1.4.2.3.5.5.9.5.1 0 .3-.1.5-.1zm-.1 12l22.3-12 35-17c.5-.2.7-.8.5-1.3-.2-.5-.8-.7-1.3-.5l-35 17-22.3 12c-.5.3-.7.9-.4 1.4.2.3.5.5.9.5 0 0 .2-.1.3-.1zm.1 14L170.2 59c.5-.3.7-.9.4-1.4-.3-.5-.9-.7-1.4-.4l-57.3 31.5c-.5.3-.7.9-.4 1.4.2.3.5.5.9.5.1 0 .3-.1.5-.1zm0 12l16-9.3c.5-.3.6-.9.4-1.4-.3-.5-.9-.6-1.4-.4l-16 9.3c-.5.3-.6.9-.4 1.4.2.3.5.5.9.5.1 0 .3 0 .5-.1zm11.3-.9c.6 0 1-.5 1-1l-.7-68.1c0-.5-.5-1-1-1-.6 0-1 .5-1 1l.7 68.1c0 .5.5 1 1 1zM153 77.9c.6 0 1-.5 1-1l-.8-21.9c0-.6-.5-1-1-1-.6 0-1 .5-1 1l.8 22c0 .5.4.9 1 .9zM94.8 89.8v-48c0-.6-.4-1-1-1s-1 .4-1 1v48c0 .6.4 1 1 1s1-.5 1-1zm10.5-32.2c.2-.5-.1-1.1-.6-1.3l-20.3-7.8c-.5-.2-1.1.1-1.3.6s.1 1.1.6 1.3l20.3 7.8c.1 0 .2.1.4.1.4 0 .8-.3.9-.7zm0 9.8c.2-.5-.1-1.1-.6-1.3l-20.3-7.6c-.5-.2-1.1.1-1.3.6-.2.5.1 1.1.6 1.3L104 68c.1 0 .2.1.3.1.5 0 .9-.3 1-.7zm0 9.9c.2-.5-.1-1.1-.6-1.3l-20.3-7.8c-.5-.2-1.1.1-1.3.6-.2.5.1 1.1.6 1.3l20.3 7.8c.1 0 .2.1.4.1.4-.1.8-.3.9-.7zm0 10.1c.2-.5-.1-1.1-.6-1.3l-20.3-7.3c-.5-.2-1.1.1-1.3.6-.2.5.1 1.1.6 1.3L104 88c.1 0 .2.1.3.1.5 0 .9-.3 1-.7zm-14.4 5.2c.2-.5 0-1.1-.5-1.3l-5.8-2.6c-.5-.2-1.1 0-1.3.5-.2.5 0 1.1.5 1.3l5.8 2.6c.1.1.3.1.4.1.3 0 .7-.3.9-.6zm-26.1 1.9V30.4c0-.4-.3-.8-.7-.9L43.9 22c-.3-.1-.7-.1-.9.1s-.4.5-.4.8v52c0 .6.4 1 1 1s1-.4 1-1V24.4l18.3 6.8v63.4c0 .6.4 1 1 1 .5-.1.9-.5.9-1.1zm48-59.9l11.8-5.6c.4-.2.6-.6.6-1s-.3-.8-.7-.9l-19.8-6.8c-.2-.1-.5-.1-.7 0l-13.2 5.5c-.4.2-.6.5-.6 1 0 .4.3.8.7.9l21.2 6.9h.3c.1.1.3 0 .4 0zm-8.4-12.3l17.1 5.9-9.3 4.4-18.2-6 10.4-4.3zm-33.6-3.4l12-5.7c.4-.2.6-.6.6-1s-.3-.8-.7-.9l-18.6-6c-.2-.1-.5-.1-.7 0l-12.6 5.3c-.4.2-.6.5-.6 1 0 .4.3.8.7.9L70.1 19c.1 0 .2.1.3.1.1-.1.3-.2.4-.2zm-7-11.6l15.8 5.1-9.4 4.5L54 11.4l9.8-4.1zm-10 65.8V26.4c0-.6-.4-1-1-1s-1 .4-1 1v46.7c0 .6.4 1 1 1s1-.5 1-1zm10.9-31c.2-.5 0-1.1-.6-1.3l-20.3-8.1c-.5-.2-1.1 0-1.3.6-.2.5 0 1.1.6 1.3l20.3 8.1c.1 0 .2.1.4.1.4 0 .8-.3.9-.7zm0 10.2c.2-.5-.1-1.1-.6-1.3l-20.3-7.8c-.5-.2-1.1.1-1.3.6s.1 1.1.6 1.3l20.3 7.8c.1 0 .2.1.4.1.4-.1.8-.3.9-.7zm0 10.1c.2-.5-.1-1.1-.6-1.3l-20.3-7.8c-.5-.2-1.1.1-1.3.6-.2.5.1 1.1.6 1.3L63.4 63c.1 0 .2.1.4.1.4 0 .8-.3.9-.7zm0 10c.2-.5-.1-1.1-.6-1.3l-20.3-7.8c-.5-.2-1.1.1-1.3.6-.2.5.1 1.1.6 1.3L63.4 73c.1 0 .2.1.4.1.4 0 .8-.3.9-.7zM9.6 92.7c.6 0 1-.5 1-1l-.2-9.8c0-.4-.3-.8-.7-1-.1 0-5.7-1.5-7.3-5.1-.7-1.6-.4-3.4.7-5.4.1-.2.1-.4.1-.6-.2-1.7-.5-5.7 1.7-7.5 1.4-1.2 3.7-1.3 6.8-.3.5.2 1.1-.1 1.3-.7.2-.5-.1-1.1-.7-1.3-3.8-1.2-6.7-1-8.7.6-2.7 2.2-2.7 6.4-2.5 9-1.3 2.5-1.5 4.8-.6 6.9 1.6 3.7 6.1 5.5 7.9 6.1l.2 9.1c0 .6.4 1 1 1-.1 0 0 0 0 0zm-.2-9.8c10.1-.5 10.8-8.9 10.8-9 0-.6-.4-1-.9-1.1-.5 0-1 .4-1.1.9 0 .3-.5 6.7-8.9 7.2-.6 0-1 .5-.9 1.1 0 .5.4.9 1 .9zM26.7 91V75.3l.1-.1c.4-.2 1.2-.5 2.9-1.2 2.7-1 5.5-3 7.6-5.3 1.2-1.3 2.7-3.3 3-5.3.3-2.1-.5-4.2-1.3-6.2-.7-1.7-1.4-3.5-1.4-5.3 0-.4 0-.8-.1-1.2-.9-4.4-6.2-7.8-11.8-7.6-2.1.1-4.1 1-5.6 2.7-2.2 2.5-3.2 6.1-3.1 8.7-3 1.8-4.6 3.6-5.2 5.8-.7 2.5.1 5.4 2.4 9.4 3.2 5.5 8.2 6.1 10.5 6.1V91c0 .6.4 1 1 1s1-.4 1-1zm8.8-39.9c.1.3.1.5.1.8 0 2.1.8 4.1 1.5 6 .7 1.9 1.4 3.7 1.2 5.2-.2 1.2-1.1 2.7-2.5 4.2-1.9 2-4.5 3.8-6.9 4.8-2.1.8-3.2 1.2-3.7 1.7-1.3.1-6.3.1-9.4-5.1-2-3.5-2.7-5.9-2.2-7.8.5-1.8 2-3.3 4.8-4.9.3-.2.5-.6.5-1-.2-1.9.5-5.5 2.6-7.9 1.1-1.3 2.5-2 4.1-2h.3c5 0 9 3.1 9.6 6zm152.7 35.6V71.1l.1-.1c.4-.2 1.2-.5 2.9-1.2 4.6-1.8 10-6.6 10.6-10.6.3-2.1-.5-4.2-1.3-6.2-.7-1.7-1.4-3.5-1.4-5.3 0-1.8-.9-3.7-2.5-5.3-2.4-2.3-5.9-3.6-9.4-3.5-2.1.1-4.1 1-5.6 2.7-2.2 2.4-3.2 6.1-3.1 8.7-3 1.8-4.6 3.6-5.2 5.8-.7 2.5.1 5.4 2.4 9.4 3.2 5.5 8.2 6.1 10.5 6.1v15.2c0 .6.4 1 1 1s1-.5 1-1.1zm7-42.9c1.2 1.2 1.9 2.6 1.9 3.9 0 2.1.8 4.1 1.5 6 .7 1.9 1.4 3.7 1.2 5.2-.4 2.9-5 7.3-9.4 9-2.1.8-3.2 1.2-3.7 1.7-1.3.1-6.3.1-9.4-5.1-2-3.5-2.7-5.9-2.2-7.8.5-1.8 2-3.3 4.8-4.9.3-.2.5-.6.5-1-.2-1.9.5-5.5 2.6-7.9 1.1-1.3 2.5-2 4.1-2h.3c3-.1 5.9 1 7.8 2.9zM50.8 104.4c5.5 0 10.8-6.5 12.3-12.4 1.1-4.3-2.1-5.2-3.6-5.7-.2-.1-.4-.1-.6-.2 2.1-3 2.3-3.9.1-9.5-1.7-4.3-2.9-4.5-6.3-4.1-1.1.2-2.6.3-4.5.3-7.7 0-8.1 7.1-8.2 10.9-5.7 2.3-4.7 6.4-3.5 11.6.3 1.2.6 2.4.8 3.8.4 2.1 1.4 3.7 3.1 4.7 1.6 1 3.6 1.3 5.4 1.3 2.3 0 4.4-.5 5-.7zM57 77.3c2 5.1 1.8 5.3.1 7.7-.5.6-.6 1.2-.4 1.8.3.9 1.2 1.2 2.1 1.4 1.8.6 2.8 1 2.2 3.3-1.3 5.2-6.1 11.1-10.4 10.9h-.3c-.1 0-5.7 1.6-9-.4-1.2-.7-1.9-1.8-2.2-3.4-.3-1.4-.6-2.7-.8-3.9-1.2-5.4-1.8-7.9 2.9-9.5.4-.1.7-.5.7-.9 0-5.8 1-9.6 6.2-9.6 2 0 3.6-.2 4.7-.4.7-.1 1.2-.2 1.6-.2 1.3.2 1.7.8 2.6 3.2zm41.3 43.4c.1 0 .1 0 0 0 5.5 0 10.8-6.5 12.3-12.4 1.1-4.3-2.1-5.2-3.6-5.7-.2-.1-.4-.1-.6-.2 2.1-3 2.3-3.9.1-9.5-1.7-4.3-2.9-4.6-6.3-4.1-1.1.2-2.6.3-4.5.3-7.7 0-8.1 7.1-8.2 10.9-5.7 2.3-4.7 6.4-3.5 11.6.3 1.2.6 2.4.8 3.8.4 2.1 1.4 3.7 3.1 4.7 1.6 1 3.6 1.3 5.4 1.3 2.4 0 4.4-.5 5-.7zm6.3-27.1c2 5.1 1.8 5.3.1 7.7-.5.6-.6 1.2-.4 1.8.3.9 1.2 1.2 2.1 1.4 1.8.6 2.8 1 2.2 3.3-1.3 5.2-6.1 11.1-10.4 10.9h-.3c-.1 0-5.7 1.6-9-.4-1.2-.7-1.9-1.8-2.2-3.4-.3-1.4-.6-2.7-.8-3.9-1.2-5.4-1.8-7.9 2.9-9.5.4-.1.7-.5.7-.9 0-5.8 1-9.6 6.2-9.6 2 0 3.6-.2 4.7-.4.7-.1 1.2-.2 1.6-.2 1.3.2 1.7.8 2.6 3.2zm33.5 23.7s.1 0 0 0c5.5 0 10.8-6.5 12.3-12.4 1.1-4.3-2.1-5.2-3.6-5.7-.2-.1-.4-.1-.6-.2 2.1-3 2.3-3.9.1-9.5-1.7-4.3-2.9-4.5-6.3-4.1-1.1.2-2.6.3-4.5.3-7.7 0-8.1 7.1-8.2 10.9-5.7 2.3-4.7 6.4-3.5 11.6.3 1.2.6 2.4.8 3.8.4 2.1 1.4 3.7 3.1 4.7 1.6 1 3.6 1.3 5.4 1.3 2.3 0 4.4-.5 5-.7zm6.3-27.1c2 5.1 1.8 5.3.1 7.7-.5.6-.6 1.2-.4 1.8.3.9 1.2 1.2 2.1 1.4 1.8.6 2.8 1 2.2 3.3-1.3 5.2-6.1 11.1-10.4 10.9h-.3c-.1 0-5.7 1.6-9-.4-1.2-.7-1.9-1.8-2.2-3.4-.3-1.4-.6-2.7-.8-3.9-1.2-5.4-1.8-7.9 2.9-9.5.4-.1.7-.5.7-.9 0-5.8 1-9.6 6.2-9.6 2 0 3.6-.2 4.7-.4.7-.1 1.2-.2 1.6-.2 1.3.2 1.6.8 2.6 3.2zm21.1 11.7c5.5 0 10.8-6.5 12.3-12.4 1.1-4.3-2.1-5.2-3.6-5.7-.2-.1-.4-.1-.6-.2 2.1-3 2.3-3.9.1-9.5-1.7-4.3-2.9-4.6-6.3-4.1-1.1.2-2.6.3-4.5.3-7.7 0-8.1 7.1-8.2 10.9-5.7 2.3-4.7 6.4-3.5 11.6.3 1.2.6 2.4.8 3.8.4 2.1 1.4 3.7 3.1 4.7 1.6 1 3.6 1.3 5.4 1.3 2.3 0 4.4-.5 5-.7zm6.3-27.1c2 5.1 1.8 5.3.1 7.7-.5.6-.6 1.2-.4 1.8.3.9 1.2 1.2 2.1 1.4 1.8.6 2.8 1 2.2 3.3-1.3 5.2-6.1 11-10.4 10.9h-.3c-.1 0-5.7 1.6-9-.4-1.2-.7-1.9-1.8-2.2-3.4-.3-1.4-.6-2.7-.8-3.9-1.2-5.4-1.8-7.9 2.9-9.5.4-.1.7-.5.7-.9 0-5.8 1-9.6 6.2-9.6 2 0 3.6-.2 4.7-.4.7-.1 1.2-.2 1.6-.2 1.3.2 1.6.8 2.6 3.2z"/></symbol><symbol viewBox="0 0 139.4 44.7" id="dorohovdesign"><path d="M52.2 19.5V8.1H57c3.6 0 6.1 2.1 6.1 5.7 0 3.5-2.6 5.7-6.1 5.7h-4.8zm7.9-5.7c0-1.8-1.1-3.1-3.1-3.1h-1.9v6.2H57c2 0 3.1-1.4 3.1-3.1m4.1 0c0-3.4 2.6-5.9 6.1-5.9 3.5 0 6.1 2.4 6.1 5.9 0 3.5-2.6 5.9-6.1 5.9-3.5 0-6.1-2.4-6.1-5.9m9.2 0c0-1.9-1.2-3.3-3.1-3.3-1.9 0-3.1 1.4-3.1 3.3 0 1.8 1.2 3.3 3.1 3.3 1.9 0 3.1-1.4 3.1-3.3m11 5.7l-1.9-3.8H81v3.8h-2.9V8.1h5.7c2.5 0 3.9 1.7 3.9 3.8 0 2-1.2 3-2.3 3.4l2.3 4.2h-3.3zm.3-7.6c0-.8-.6-1.2-1.4-1.2H81v2.4h2.3c.8 0 1.4-.4 1.4-1.2m4.2 1.9c0-3.4 2.6-5.9 6.1-5.9 3.5 0 6.1 2.4 6.1 5.9 0 3.5-2.6 5.9-6.1 5.9-3.5 0-6.1-2.4-6.1-5.9m9.1 0c0-1.9-1.2-3.3-3.1-3.3-1.9 0-3.1 1.4-3.1 3.3 0 1.8 1.2 3.3 3.1 3.3 1.9 0 3.1-1.4 3.1-3.3m12.4 5.7v-4.6h-4.7v4.6h-3V8.1h3v4.3h4.7V8.1h2.9v11.4zm4.6-5.7c0-3.4 2.6-5.9 6.1-5.9 3.5 0 6.1 2.4 6.1 5.9 0 3.5-2.6 5.9-6.1 5.9-3.5 0-6.1-2.4-6.1-5.9m9.2 0c0-1.9-1.2-3.3-3.1-3.3-1.9 0-3.1 1.4-3.1 3.3 0 1.8 1.2 3.3 3.1 3.3 1.9 0 3.1-1.4 3.1-3.3m7.3 5.7l-4.3-11.4h3.3l2.8 8.2 2.8-8.2h3.3l-4.2 11.4zm-79.3 17V25.1H57c3.6 0 6.1 2.1 6.1 5.7 0 3.5-2.6 5.7-6.1 5.7h-4.8zm7.9-5.7c0-1.8-1.1-3.1-3.1-3.1h-1.9v6.2H57c2 0 3.1-1.4 3.1-3.1m4.7 5.7V25.1h8.3v2.6h-5.3v1.8H73V32h-5.2v1.9h5.3v2.6zm9.6-1.6l1.5-2.2c.8.8 2.1 1.5 3.6 1.5 1 0 1.6-.4 1.6-.9 0-1.5-6.4-.3-6.4-4.7 0-1.9 1.6-3.6 4.5-3.6 1.8 0 3.4.5 4.6 1.6l-1.6 2.1c-1-.8-2.2-1.2-3.3-1.2-.8 0-1.2.3-1.2.8 0 1.4 6.4.4 6.4 4.6 0 2.3-1.7 3.8-4.7 3.8-2.2 0-3.8-.7-5-1.8m11.5-9.8h2.9v11.3h-2.9zm4.7 5.7c0-3.6 2.8-5.9 6.1-5.9 2.5 0 4.1 1.3 4.8 2.8L99.1 29c-.4-.7-1.3-1.4-2.4-1.4-1.9 0-3.2 1.4-3.2 3.3s1.3 3.3 3.2 3.3c.8 0 1.7-.3 2.1-.7v-.9h-2.6V30h5.5v4.5c-1.2 1.3-2.9 2.2-5 2.2-3.4 0-6.1-2.3-6.1-5.9m20.9 5.7l-4.8-6.6v6.6h-2.9V25.1h3l4.6 6.3v-6.3h2.9v11.4zM17.7 0H0v44.7h17.8c15 0 24.6-8.8 24.6-22.4C42.4 8.7 32.7 0 17.7 0m-.4 35.7h-8V9.5h8c9.3 0 15.7 3.7 15.7 12.7.1 7.5-5.8 13.5-15.7 13.5"/><path d="M19.1 17H17v10.6h2c4 0 6.4-2.4 6.4-5.4 0-3.7-2.6-5.2-6.3-5.2"/></symbol><symbol viewBox="0 0 96.124 96.123" id="fb"><path d="M72.089.02L59.624 0C45.62 0 36.57 9.285 36.57 23.656v10.907H24.037a1.96 1.96 0 0 0-1.96 1.961v15.803a1.96 1.96 0 0 0 1.96 1.96H36.57v39.876a1.96 1.96 0 0 0 1.96 1.96h16.352a1.96 1.96 0 0 0 1.96-1.96V54.287h14.654a1.96 1.96 0 0 0 1.96-1.96l.006-15.803a1.963 1.963 0 0 0-1.961-1.961H56.842v-9.246c0-4.444 1.059-6.7 6.848-6.7l8.397-.003a1.96 1.96 0 0 0 1.959-1.96V1.98A1.96 1.96 0 0 0 72.089.02z"/></symbol><symbol viewBox="0 0 482.9 482.9" id="form-name"><path d="M239.7 260.2h3.2c29.3-.5 53-10.8 70.5-30.5 38.5-43.4 32.1-117.8 31.4-124.9-2.5-53.3-27.7-78.8-48.5-90.7C280.8 5.2 262.7.4 242.5 0h-1.7c-11.1 0-32.9 1.8-53.8 13.7-21 11.9-46.6 37.4-49.1 91.1-.7 7.1-7.1 81.5 31.4 124.9 17.4 19.7 41.1 30 70.4 30.5zm-75.1-152.9c0-.3.1-.6.1-.8 3.3-71.7 54.2-79.4 76-79.4h1.2c27 .6 72.9 11.6 76 79.4 0 .3 0 .6.1.8.1.7 7.1 68.7-24.7 104.5-12.6 14.2-29.4 21.2-51.5 21.4h-1c-22-.2-38.9-7.2-51.4-21.4-31.7-35.6-24.9-103.9-24.8-104.5z"/><path d="M446.8 383.6v-.3c0-.8-.1-1.6-.1-2.5-.6-19.8-1.9-66.1-45.3-80.9-.3-.1-.7-.2-1-.3-45.1-11.5-82.6-37.5-83-37.8-6.1-4.3-14.5-2.8-18.8 3.3-4.3 6.1-2.8 14.5 3.3 18.8 1.7 1.2 41.5 28.9 91.3 41.7 23.3 8.3 25.9 33.2 26.6 56 0 .9 0 1.7.1 2.5.1 9-.5 22.9-2.1 30.9-16.2 9.2-79.7 41-176.3 41-96.2 0-160.1-31.9-176.4-41.1-1.6-8-2.3-21.9-2.1-30.9 0-.8.1-1.6.1-2.5.7-22.8 3.3-47.7 26.6-56 49.8-12.8 89.6-40.6 91.3-41.7 6.1-4.3 7.6-12.7 3.3-18.8-4.3-6.1-12.7-7.6-18.8-3.3-.4.3-37.7 26.3-83 37.8-.4.1-.7.2-1 .3-43.4 14.9-44.7 61.2-45.3 80.9 0 .9 0 1.7-.1 2.5v.3c-.1 5.2-.2 31.9 5.1 45.3 1 2.6 2.8 4.8 5.2 6.3 3 2 74.9 47.8 195.2 47.8s192.2-45.9 195.2-47.8c2.3-1.5 4.2-3.7 5.2-6.3 5-13.3 4.9-40 4.8-45.2z"/></symbol><symbol viewBox="0 0 482.6 482.6" id="form-tel"><path d="M98.339 320.8c47.6 56.9 104.9 101.7 170.3 133.4 24.9 11.8 58.2 25.8 95.3 28.2 2.3.1 4.5.2 6.8.2 24.9 0 44.9-8.6 61.2-26.3.1-.1.3-.3.4-.5 5.8-7 12.4-13.3 19.3-20 4.7-4.5 9.5-9.2 14.1-14 21.3-22.2 21.3-50.4-.2-71.9l-60.1-60.1c-10.2-10.6-22.4-16.2-35.2-16.2-12.8 0-25.1 5.6-35.6 16.1l-35.8 35.8c-3.3-1.9-6.7-3.6-9.9-5.2-4-2-7.7-3.9-11-6-32.6-20.7-62.2-47.7-90.5-82.4-14.3-18.1-23.9-33.3-30.6-48.8 9.4-8.5 18.2-17.4 26.7-26.1 3-3.1 6.1-6.2 9.2-9.3 10.8-10.8 16.6-23.3 16.6-36s-5.7-25.2-16.6-36l-29.8-29.8c-3.5-3.5-6.8-6.9-10.2-10.4-6.6-6.8-13.5-13.8-20.3-20.1-10.3-10.1-22.4-15.4-35.2-15.4-12.7 0-24.9 5.3-35.6 15.5l-37.4 37.4c-13.6 13.6-21.3 30.1-22.9 49.2-1.9 23.9 2.5 49.3 13.9 80 17.5 47.5 43.9 91.6 83.1 138.7zm-72.6-216.6c1.2-13.3 6.3-24.4 15.9-34l37.2-37.2c5.8-5.6 12.2-8.5 18.4-8.5 6.1 0 12.3 2.9 18 8.7 6.7 6.2 13 12.7 19.8 19.6 3.4 3.5 6.9 7 10.4 10.6l29.8 29.8c6.2 6.2 9.4 12.5 9.4 18.7s-3.2 12.5-9.4 18.7c-3.1 3.1-6.2 6.3-9.3 9.4-9.3 9.4-18 18.3-27.6 26.8l-.5.5c-8.3 8.3-7 16.2-5 22.2.1.3.2.5.3.8 7.7 18.5 18.4 36.1 35.1 57.1 30 37 61.6 65.7 96.4 87.8 4.3 2.8 8.9 5 13.2 7.2 4 2 7.7 3.9 11 6 .4.2.7.4 1.1.6 3.3 1.7 6.5 2.5 9.7 2.5 8 0 13.2-5.1 14.9-6.8l37.4-37.4c5.8-5.8 12.1-8.9 18.3-8.9 7.6 0 13.8 4.7 17.7 8.9l60.3 60.2c12 12 11.9 25-.3 37.7-4.2 4.5-8.6 8.8-13.3 13.3-7 6.8-14.3 13.8-20.9 21.7-11.5 12.4-25.2 18.2-42.9 18.2-1.7 0-3.5-.1-5.2-.2-32.8-2.1-63.3-14.9-86.2-25.8-62.2-30.1-116.8-72.8-162.1-127-37.3-44.9-62.4-86.7-79-131.5-10.3-27.5-14.2-49.6-12.6-69.7z"/></symbol><symbol viewBox="0 0 470 470" id="header-areas"><path d="M470 310.715V159.176a7.5 7.5 0 0 0-5.366-7.19l-70.113-20.802c5.427-13.275 8.81-26.451 8.81-38.684 0-51.004-41.495-92.5-92.5-92.5s-92.5 41.495-92.5 92.5c0 12.233 3.383 25.409 8.81 38.684l-67.979 20.169L9.633 106.985A7.5 7.5 0 0 0 0 114.176V417.5a7.5 7.5 0 0 0 5.367 7.19l151.549 44.967.113.033c.024.007.049.009.073.016.279.08.565.141.857.188a7.547 7.547 0 0 0 1.191.105c.348 0 .667-.028.982-.069.078-.01.155-.023.233-.036.292-.047.579-.109.859-.188.024-.007.049-.009.073-.016l.069-.021 146.427-43.445a7.464 7.464 0 0 0 6.078 0l146.496 43.465a7.496 7.496 0 0 0 6.62-1.18 7.503 7.503 0 0 0 3.014-6.01V310.775l-.001-.06zm-15-145.941V300.79l-136.669-40.55v-21.332c9.78-10.071 48.188-50.995 69.876-93.951L455 164.774zM310.831 15c42.733 0 77.5 34.766 77.5 77.5 0 12.181-4.075 25.748-10.412 39.485a7.491 7.491 0 0 0-.765 1.633c-18.072 38.149-53.029 77.25-66.325 91.396-13.288-14.131-48.213-53.178-66.292-91.314a7.5 7.5 0 0 0-.833-1.78c-6.314-13.712-10.373-27.254-10.373-39.421 0-42.733 34.767-77.499 77.5-77.499zm-7.5 223.907v21.332l-136.669 40.55V164.774l66.793-19.817c21.689 42.956 60.096 83.88 69.876 93.95zM15 275.886l51.818 15.375c.712.211 1.43.312 2.136.312a7.502 7.502 0 0 0 2.13-14.692L15 260.24V124.224l136.662 40.55V300.79l-51.817-15.375a7.498 7.498 0 0 0-9.323 5.057 7.498 7.498 0 0 0 5.057 9.323l56.084 16.641v136.016L15 411.902V275.886zm303.331 136.016v-54.297c0-4.142-3.357-7.5-7.5-7.5s-7.5 3.358-7.5 7.5v54.297l-136.669 40.549V316.436l136.669-40.55v51.719c0 4.142 3.357 7.5 7.5 7.5s7.5-3.358 7.5-7.5v-51.719L455 316.436v136.016l-136.669-40.55z"/><path d="M310.831 145c28.948 0 52.5-23.551 52.5-52.5 0-28.948-23.552-52.5-52.5-52.5s-52.5 23.551-52.5 52.5c0 28.948 23.552 52.5 52.5 52.5zm0-90c20.678 0 37.5 16.822 37.5 37.5s-16.822 37.5-37.5 37.5-37.5-16.822-37.5-37.5 16.822-37.5 37.5-37.5z"/></symbol><symbol viewBox="0 0 512 512" id="header-com"><path d="M486.4 460.8c-1.476 0-2.944.128-4.386.384-5.888-10.607-17.092-17.451-29.747-17.451-12.655 0-23.859 6.844-29.747 17.451a25.094 25.094 0 0 0-4.386-.384c-14.114 0-25.6 11.486-25.6 25.6 0 3.004.614 5.845 1.579 8.533H358.4v-51.2h42.667a8.536 8.536 0 0 0 8.533-8.533V93.867a8.536 8.536 0 0 0-8.533-8.533h-256a8.536 8.536 0 0 0-8.533 8.533v409.6a8.536 8.536 0 0 0 8.533 8.533H486.4c14.114 0 25.6-11.486 25.6-25.6s-11.486-25.6-25.6-25.6zm-128-358.4h34.133v51.2H358.4v-51.2zm0 68.267h34.133v51.2H358.4v-51.2zm0 68.266h34.133v51.2H358.4v-51.2zm0 68.267h34.133v51.2H358.4v-51.2zm0 68.267h34.133v51.2H358.4v-51.2zM187.733 494.933H153.6v-51.2h34.133v51.2zm0-68.266H153.6v-51.2h34.133v51.2zm0-68.267H153.6v-51.2h34.133v51.2zm0-68.267H153.6v-51.2h34.133v51.2zm0-68.266H153.6v-51.2h34.133v51.2zm0-68.267H153.6v-51.2h34.133v51.2zm51.2 341.333H204.8v-51.2h34.133v51.2zm0-68.266H204.8v-51.2h34.133v51.2zm0-68.267H204.8v-51.2h34.133v51.2zm0-68.267H204.8v-51.2h34.133v51.2zm0-68.266H204.8v-51.2h34.133v51.2zm0-68.267H204.8v-51.2h34.133v51.2zm51.2 341.333H256v-51.2h34.133v51.2zm0-68.266H256v-51.2h34.133v51.2zm0-68.267H256v-51.2h34.133v51.2zm0-68.267H256v-51.2h34.133v51.2zm0-68.266H256v-51.2h34.133v51.2zm0-68.267H256v-51.2h34.133v51.2zm51.2 341.333H307.2v-51.2h34.133v51.2zm0-68.266H307.2v-51.2h34.133v51.2zm0-68.267H307.2v-51.2h34.133v51.2zm0-68.267H307.2v-51.2h34.133v51.2zm0-68.266H307.2v-51.2h34.133v51.2zm0-68.267H307.2v-51.2h34.133v51.2zM486.4 494.933h-68.267c-4.702 0-8.533-3.831-8.533-8.533s3.831-8.533 8.533-8.533c1.638 0 3.191.469 4.625 1.391a8.558 8.558 0 0 0 7.834.734 8.51 8.51 0 0 0 5.103-5.982c1.801-7.774 8.619-13.21 16.572-13.21 7.953 0 14.771 5.436 16.572 13.21a8.51 8.51 0 0 0 5.103 5.982 8.559 8.559 0 0 0 7.834-.734c5.547-3.584 13.167.802 13.158 7.142-.001 4.702-3.832 8.533-8.534 8.533z"/><path d="M187.733 59.733v-25.6h59.733a8.536 8.536 0 0 0 8.533-8.533v-8.533h34.133V25.6a8.536 8.536 0 0 0 8.533 8.533H358.4V51.2H213.333c-4.71 0-8.533 3.823-8.533 8.533s3.823 8.533 8.533 8.533h213.333V422.22c0 4.71 3.823 8.533 8.533 8.533s8.533-3.823 8.533-8.533V59.733a8.536 8.536 0 0 0-8.533-8.533h-59.733V25.6a8.536 8.536 0 0 0-8.533-8.533H307.2V8.533A8.536 8.536 0 0 0 298.667 0h-51.2a8.536 8.536 0 0 0-8.533 8.533v8.533H179.2a8.536 8.536 0 0 0-8.533 8.533v25.6h-59.733a8.536 8.536 0 0 0-8.533 8.533v435.2H51.2v-34.995c19.447-3.968 34.133-21.197 34.133-41.805 0-1.109-.486-110.933-42.667-110.933C.486 307.2 0 417.024 0 418.133c0 20.608 14.686 37.837 34.133 41.805v34.995h-25.6c-4.71 0-8.533 3.823-8.533 8.533S3.823 512 8.533 512h102.4a8.536 8.536 0 0 0 8.533-8.533v-435.2H179.2c4.71 0 8.533-3.823 8.533-8.534zm-170.666 358.4c0-42.513 11.418-93.867 25.6-93.867 14.182 0 25.6 51.354 25.6 93.867 0 14.114-11.486 25.6-25.6 25.6s-25.6-11.486-25.6-25.6z"/></symbol><symbol viewBox="0 0 512 512" id="header-houses"><path d="M239.778 179.14a384.483 384.483 0 0 0-.845 25.66c0 42.743 12.757 68.267 34.133 68.267 26.948 0 34.133-32.179 34.133-51.2 0-4.71-3.823-8.533-8.533-8.533s-8.533 3.823-8.533 8.533c0 .341-.734 34.133-17.067 34.133-9.89 0-17.067-21.53-17.067-51.2 0-99.49 34.918-110.822 36.019-111.138 4.497-1.024 7.39-5.453 6.477-10.001a8.503 8.503 0 0 0-10.035-6.69c-1.707.341-7.893 1.963-15.334 8.337.009-1.468.128-2.935.521-4.395a16.929 16.929 0 0 1 7.953-10.359 16.962 16.962 0 0 1 12.945-1.707c4.403 1.186 8.09 4.011 10.359 7.953 4.71 8.149 1.911 18.611-6.238 23.313a8.542 8.542 0 0 0-3.123 11.665 8.529 8.529 0 0 0 7.398 4.258 8.469 8.469 0 0 0 4.258-1.143c16.299-9.421 21.897-30.336 12.493-46.626-4.557-7.893-11.921-13.542-20.727-15.906-8.823-2.364-18.014-1.143-25.899 3.413-7.893 4.557-13.542 11.921-15.906 20.727-2.21 8.243-1.161 16.802 2.85 24.593-7.322 11.913-14.165 29.653-17.971 56.038-12.774-15.3-20.173-34.79-20.173-54.733 0-47.053 38.281-85.333 85.333-85.333s85.333 38.281 85.333 85.333-38.281 85.333-85.333 85.333a85.381 85.381 0 0 1-27.076-4.378c-4.463-1.485-9.31.922-10.795 5.385-1.502 4.471.913 9.301 5.385 10.795a102.32 102.32 0 0 0 32.486 5.265c56.465 0 102.4-45.935 102.4-102.4C409.6 45.935 363.665 0 307.2 0S204.8 45.935 204.8 102.4c0 29.099 13.065 57.378 34.978 76.74zM509.5 249.967l-88.627-88.627c-3.328-3.328-8.73-3.328-12.066 0-3.328 3.337-3.328 8.738 0 12.066l86.127 86.127v30.601h-30.601l-3.533-3.533v-22.067a8.536 8.536 0 0 0-8.533-8.533h-8.533v-8.533a8.536 8.536 0 0 0-8.533-8.533h-22.059l-3.541-3.541v-22.059a8.536 8.536 0 0 0-8.533-8.533H379l-.828-.828c-3.328-3.328-8.73-3.328-12.066 0-3.328 3.337-3.328 8.738 0 12.066l3.328 3.328a8.513 8.513 0 0 0 6.033 2.5h17.067v17.058a8.52 8.52 0 0 0 2.492 6.025l8.533 8.55a8.532 8.532 0 0 0 6.042 2.5h17.067v8.533a8.536 8.536 0 0 0 8.533 8.533h8.533v17.067c0 2.261.896 4.437 2.5 6.033l8.533 8.533a8.513 8.513 0 0 0 6.033 2.5h42.667a8.536 8.536 0 0 0 8.533-8.533V256a8.513 8.513 0 0 0-2.5-6.033zm-458.3-104.9a8.536 8.536 0 0 0 8.533 8.533h8.533v51.2h-8.533a8.536 8.536 0 0 0-8.533 8.533 8.536 8.536 0 0 0 8.533 8.533h8.533v51.2h-8.533c-4.71 0-8.533 3.823-8.533 8.533s3.823 8.533 8.533 8.533h8.533v51.2h-8.533c-4.71 0-8.533 3.823-8.533 8.533s3.823 8.533 8.533 8.533h8.533v51.2h-8.533c-4.71 0-8.533 3.823-8.533 8.533s3.823 8.533 8.533 8.533h8.533v42.667c0 4.71 3.823 8.533 8.533 8.533s8.533-3.823 8.533-8.533v-42.667h34.133v42.667c0 4.71 3.823 8.533 8.533 8.533s8.533-3.823 8.533-8.533v-42.667h34.133v42.667c0 4.71 3.823 8.533 8.533 8.533s8.533-3.823 8.533-8.533v-42.667h34.133v42.667c0 4.71 3.823 8.533 8.533 8.533s8.533-3.823 8.533-8.533v-42.667h8.533c4.71 0 8.533-3.823 8.533-8.533s-3.823-8.533-8.533-8.533h-8.533v-51.2h8.533c4.71 0 8.533-3.823 8.533-8.533s-3.823-8.533-8.533-8.533h-8.533v-51.2c4.71 0 8.533-3.823 8.533-8.533s-3.823-8.533-8.533-8.533c0-4.71-3.823-8.533-8.533-8.533s-8.533 3.823-8.533 8.533H187.73v-51.2h25.6a8.536 8.536 0 0 0 8.533-8.533 8.536 8.536 0 0 0-8.533-8.533h-25.6v-51.2H192a8.536 8.536 0 0 0 8.533-8.533 8.536 8.536 0 0 0-8.533-8.533H59.733c-4.71-.001-8.533 3.822-8.533 8.533zm136.533 145.066h34.133v51.2h-34.133v-51.2zm0 68.267h34.133v51.2h-34.133v-51.2zm-51.2-204.8h34.133v51.2h-34.133v-51.2zm0 68.267h34.133v51.2h-34.133v-51.2zm0 68.266h34.133v51.2h-34.133v-51.2zm0 68.267h34.133v51.2h-34.133v-51.2zm-51.2-204.8h34.133v51.2H85.333v-51.2zm0 68.267h34.133v51.2H85.333v-51.2zm0 68.266h34.133v51.2H85.333v-51.2zm0 68.267h34.133v51.2H85.333v-51.2zM179.2 119.467c4.71 0 8.533-3.823 8.533-8.533s-3.823-8.533-8.533-8.533H128c-4.71 0-8.533 3.823-8.533 8.533s3.823 8.533 8.533 8.533h51.2z"/><path d="M503.467 494.933h-128v-34.995c19.447-3.968 34.133-21.197 34.133-41.805 0-1.109-.486-110.933-42.667-110.933s-42.667 109.824-42.667 110.933c0 20.608 14.686 37.837 34.133 41.805v34.995h-68.267V298.667c0-4.71-3.823-8.533-8.533-8.533s-8.533 3.823-8.533 8.533v196.267H34.133V119.467h59.733a8.536 8.536 0 0 0 8.533-8.533v-25.6h76.8c4.71 0 8.533-3.823 8.533-8.533s-3.823-8.533-8.533-8.533H93.867a8.536 8.536 0 0 0-8.533 8.533v25.6H25.6a8.536 8.536 0 0 0-8.533 8.533v384H8.533c-4.71 0-8.533 3.823-8.533 8.533S3.823 512 8.533 512h494.933c4.71 0 8.533-3.823 8.533-8.533s-3.822-8.534-8.532-8.534zm-162.134-76.8c0-42.513 11.418-93.867 25.6-93.867s25.6 51.354 25.6 93.867c0 14.114-11.486 25.6-25.6 25.6s-25.6-11.486-25.6-25.6z"/></symbol><symbol viewBox="0 0 612.07 612.07" id="header-map"><path d="M454.515 228.113c-4.463 2.769-10.38 1.395-13.147-3.068-2.771-4.462-1.396-10.379 3.066-13.148l152.985-95.688c4.463-2.789 10.358-1.395 13.147 3.068a9.485 9.485 0 0 1 1.436 5.041h.021v363.467c0 3.586-1.991 6.713-4.921 8.367L435.569 610.486c-2.85 1.893-6.355 2.03-9.265.696v.021L182.573 498.68 14.905 610.465c-4.383 2.93-10.34 1.734-13.249-2.647a9.623 9.623 0 0 1-1.574-6.156L.202 241.6a9.484 9.484 0 0 1 4.682-8.188l-.02-.02 133.74-79.013c4.522-2.669 10.38-1.175 13.069 3.347 2.669 4.542 1.175 10.399-3.367 13.069L19.249 247.059l-.119 337.607 157.248-104.852.02.02a9.5 9.5 0 0 1 9.284-.738L429.472 591.6l163.425-108.916V141.549l-138.382 86.564z"/><path d="M306.013 0c36.956 0 70.426 15.001 94.651 39.227l.02.02.021-.02c24.226 24.206 39.207 57.716 39.207 94.692 0 37.474-20.938 82.001-47.437 123.878-26.078 41.24-57.337 79.77-79.092 106.326-3.348 4.084-9.383 4.682-13.448 1.336a9.74 9.74 0 0 1-1.833-2.012c-21.855-26.679-52.915-65.048-78.634-105.709-26.477-41.897-47.376-86.404-47.376-123.839 0-36.976 15.002-70.466 39.208-94.691C235.547 15.001 269.038 0 306.013 0zm81.203 52.735c-20.778-20.739-49.487-33.589-81.183-33.589-31.697 0-60.405 12.85-81.165 33.609-20.76 20.759-33.629 49.467-33.629 81.144 0 33.291 19.584 74.411 44.388 113.678 22.592 35.721 49.527 69.829 70.366 95.409 20.878-25.642 47.893-59.828 70.386-95.37 24.823-39.227 44.427-80.387 44.427-113.718 0-31.696-12.85-60.405-33.608-81.164l.018.001z"/><path d="M306.013 76.522c15.838 0 30.222 6.435 40.582 16.814v.04c10.379 10.38 16.814 24.744 16.814 40.542 0 15.799-6.437 30.163-16.814 40.542l-.04.04c-10.38 10.379-24.744 16.814-40.542 16.814-15.838 0-30.223-6.435-40.583-16.814-10.379-10.36-16.814-24.744-16.814-40.583 0-15.818 6.435-30.163 16.814-40.542v-.04c10.381-10.377 24.744-16.813 40.583-16.813zm27.074 30.322l-.021.021a38.169 38.169 0 0 0-27.055-11.196 38.17 38.17 0 0 0-27.055 11.196l-.02-.021c-6.894 6.933-11.177 16.496-11.177 27.075a38.167 38.167 0 0 0 11.197 27.055 38.17 38.17 0 0 0 27.055 11.196c10.56 0 20.121-4.264 27.055-11.157l.039-.04a38.214 38.214 0 0 0 11.157-27.055c.022-10.578-4.262-20.161-11.175-27.074zm106.765 495.674c0 5.259-4.264 9.521-9.521 9.521-5.26 0-9.523-4.264-9.523-9.521l.04-344.282c0-5.26 4.265-9.523 9.522-9.523 5.26 0 9.522 4.264 9.522 9.523l-.04 344.282zM191.159 483.6a9.522 9.522 0 0 1-9.523 9.523c-5.259 0-9.523-4.264-9.523-9.523l.06-225.384c0-5.26 4.263-9.523 9.522-9.523a9.522 9.522 0 0 1 9.523 9.523l-.059 225.384z"/></symbol><symbol viewBox="0 0 512 512" id="header-news"><path d="M464.714 34.786h-200.56v-4.892C264.154 13.41 250.743 0 234.26 0h-34.786c-16.483 0-29.894 13.41-29.894 29.894v4.892h-48.374a8.152 8.152 0 0 0-8.153 8.153v65.766H47.288a8.152 8.152 0 0 0-8.153 8.153v304.368c0 .271.014.542.041.812.011.11.032.216.047.325.022.155.04.31.071.464.025.129.061.254.092.38.033.132.062.263.101.394.038.125.085.245.128.367.046.129.089.259.141.386.048.114.103.224.155.336.061.129.118.26.186.387.058.108.123.209.185.313.074.124.145.25.225.371.076.114.161.221.243.332.077.103.149.209.232.309.159.192.327.377.502.555l.037.041 82.616 82.616c.011.011.023.02.033.029.18.178.368.349.565.511.091.075.188.14.282.211.12.089.236.182.36.265.111.075.227.139.34.208.114.068.226.14.344.203.116.062.237.115.357.172.122.058.241.118.366.17.116.048.236.087.354.129.133.048.263.099.398.139.12.036.24.062.361.092.137.035.273.073.412.1.14.028.282.044.423.064.122.017.242.041.365.052.267.026.536.04.804.04h239.151a8.152 8.152 0 0 0 8.153-8.153v-35.329h87.507a8.152 8.152 0 0 0 8.153-8.153V42.938a8.149 8.149 0 0 0-8.151-8.152zm-278.828-4.892c0-7.493 6.095-13.588 13.588-13.588h34.786c7.493 0 13.588 6.095 13.588 13.588v4.892h-61.962v-4.892zm0 95.117h40.221v40.221h-40.221v-40.221zm37.478 56.526c-2.482 3.293-6.412 5.435-10.844 5.435h-13.045c-4.432 0-8.363-2.143-10.844-5.435h34.733zM129.36 51.091h40.221v57.614H129.36V51.091zm-7.609 409.274v23.799l-54.78-54.78h54.78v30.981zm239.15 0v35.329H138.056v-74.463a8.152 8.152 0 0 0-8.153-8.153H55.441V125.011h114.14v40.221h-65.767c-4.504 0-8.153 3.65-8.153 8.153s3.649 8.153 8.153 8.153h66.906c3.559 12.531 15.098 21.741 28.755 21.741h13.045c13.657 0 25.196-9.209 28.755-21.741h75.602c4.504 0 8.153-3.65 8.153-8.153s-3.649-8.153-8.153-8.153h-74.463v-40.221h118.488v335.354zm95.661-8.153h-79.355V116.858a8.152 8.152 0 0 0-8.153-8.153H242.413V69.028c0-4.503-3.649-8.153-8.153-8.153s-8.153 3.65-8.153 8.153v39.677h-40.221V51.091h270.675v401.121z"/><path d="M316.876 234.803H103.814c-4.504 0-8.153 3.65-8.153 8.153s3.649 8.153 8.153 8.153h213.062c4.504 0 8.153-3.65 8.153-8.153s-3.649-8.153-8.153-8.153zm0 69.571H103.814c-4.504 0-8.153 3.65-8.153 8.153s3.649 8.153 8.153 8.153h213.062c4.504 0 8.153-3.65 8.153-8.153s-3.649-8.153-8.153-8.153zm0 69.571H103.814a8.152 8.152 0 0 0-8.153 8.153 8.152 8.152 0 0 0 8.153 8.153h213.062a8.152 8.152 0 0 0 8.153-8.153 8.152 8.152 0 0 0-8.153-8.153z"/></symbol><symbol viewBox="-41 164.9 512 512" id="header-search"><path d="M10.2 310c0 4.7 3.8 8.5 8.5 8.5h8.5v51.2h-8.5c-4.7 0-8.5 3.8-8.5 8.5s3.8 8.5 8.5 8.5h8.5V438h-8.5c-4.7 0-8.5 3.8-8.5 8.5s3.8 8.5 8.5 8.5h8.5v51.2h-8.5c-4.7 0-8.5 3.8-8.5 8.5s3.8 8.5 8.5 8.5h8.5v51.2h-8.5c-4.7 0-8.5 3.8-8.5 8.5s3.8 8.5 8.5 8.5h8.5v42.7c0 4.7 3.8 8.5 8.5 8.5s8.5-3.8 8.5-8.5v-42.7h34.1v42.7c0 4.7 3.8 8.5 8.5 8.5s8.5-3.8 8.5-8.5v-42.7h34.1v42.7c0 4.7 3.8 8.5 8.5 8.5s8.5-3.8 8.5-8.5v-42.7h34.1v42.7c0 4.7 3.8 8.5 8.5 8.5s8.5-3.8 8.5-8.5v-42.7h8.5c4.7 0 8.5-3.8 8.5-8.5s-3.8-8.5-8.5-8.5h-8.5v-51.2h8.5c4.7 0 8.5-3.8 8.5-8.5s-3.8-8.5-8.5-8.5h-8.5V455c4.7 0 8.5-3.8 8.5-8.5s-3.8-8.5-8.5-8.5c0-4.7-3.8-8.5-8.5-8.5s-8.5 3.8-8.5 8.5h-34.1v-51.2H172c4.7 0 8.5-3.8 8.5-8.5s-3.8-8.5-8.5-8.5h-25.6v-51.2h4.3c4.7 0 8.5-3.8 8.5-8.5s-3.8-8.5-8.5-8.5h-132c-4.7-.2-8.5 3.6-8.5 8.4zm136.5 145h34.1v51.2h-34.1V455zm0 68.3h34.1v51.2h-34.1v-51.2zM95.5 318.5h34.1v51.2H95.5v-51.2zm0 68.3h34.1V438H95.5v-51.2zm0 68.2h34.1v51.2H95.5V455zm0 68.3h34.1v51.2H95.5v-51.2zM44.3 318.5h34.1v51.2H44.3v-51.2zm0 68.3h34.1V438H44.3v-51.2zm0 68.2h34.1v51.2H44.3V455zm0 68.3h34.1v51.2H44.3v-51.2zm93.9-238.9c4.7 0 8.5-3.8 8.5-8.5s-3.8-8.5-8.5-8.5H87c-4.7 0-8.5 3.8-8.5 8.5s3.8 8.5 8.5 8.5h51.2z"/><path d="M462.5 659.8h-128v-35c19.4-4 34.1-21.2 34.1-41.8 0-1.1-.5-110.9-42.7-110.9S283.3 581.9 283.3 583c0 20.6 14.7 37.8 34.1 41.8v35h-68.3V463.6c0-4.7-3.8-8.5-8.5-8.5s-8.5 3.8-8.5 8.5v196.3h-239V284.4h59.7c4.7 0 8.5-3.8 8.5-8.5v-25.6h76.8c4.7 0 8.5-3.8 8.5-8.5s-3.8-8.5-8.5-8.5H52.9c-4.7 0-8.5 3.8-8.5 8.5v25.6h-59.7c-4.7 0-8.5 3.8-8.5 8.5v384h-8.5c-4.7 0-8.5 3.8-8.5 8.5s3.8 8.5 8.5 8.5h494.9c4.7 0 8.5-3.8 8.5-8.5-.1-4.8-3.9-8.6-8.6-8.6zM300.3 583c0-42.5 11.4-93.9 25.6-93.9s25.6 51.4 25.6 93.9c0 14.1-11.5 25.6-25.6 25.6s-25.6-11.5-25.6-25.6z"/><path d="M421.8 434l-57.3-57.3c17-19.1 27.6-44 27.6-71.5 0-59.8-48.6-108.4-108.4-108.4-59.7 0-108.4 48.6-108.4 108.4 0 59.7 48.6 108.3 108.4 108.3 24.5 0 46.8-8.5 65-22.2l57.9 57.9c2.1 2.1 4.9 3.2 7.6 3.2 2.8 0 5.5-1 7.6-3.2 4.2-4.2 4.2-11 0-15.2zm-225-128.9c0-47.9 39-86.8 86.8-86.8 47.9 0 86.8 39 86.8 86.8s-39 86.8-86.8 86.8c-47.9 0-86.8-38.9-86.8-86.8z"/></symbol><symbol viewBox="0 0 97.395 97.395" id="inst"><path d="M12.501 0h72.393c6.875 0 12.5 5.09 12.5 12.5v72.395c0 7.41-5.625 12.5-12.5 12.5H12.501C5.624 97.395 0 92.305 0 84.895V12.5C0 5.09 5.624 0 12.501 0zm58.447 10.821a4.395 4.395 0 0 0-4.383 4.385v10.495a4.396 4.396 0 0 0 4.383 4.385h11.008a4.398 4.398 0 0 0 4.385-4.385V15.206a4.397 4.397 0 0 0-4.385-4.385H70.948zm15.439 30.367h-8.572a28.486 28.486 0 0 1 1.25 8.355c0 16.2-13.556 29.332-30.275 29.332-16.718 0-30.272-13.132-30.272-29.332 0-2.904.438-5.708 1.25-8.355h-8.945v41.141a3.884 3.884 0 0 0 3.872 3.872h67.822a3.883 3.883 0 0 0 3.872-3.872V41.188h-.002zM48.789 29.533c-10.802 0-19.56 8.485-19.56 18.953s8.758 18.953 19.56 18.953c10.803 0 19.562-8.485 19.562-18.953s-8.758-18.953-19.562-18.953z"/></symbol><symbol viewBox="0 0 228.5 193.1" id="logotip"><path d="M182.6 146.7h35.1v4.6h-35.1v-4.6zm-57.3 0h35.1v4.6h-35.1v-4.6zm-57.4 0H103v4.6H67.9v-4.6zm-57.2 0h35.1v4.6H10.7v-4.6zM0 144.2h228.5v10.5H0v-10.5z" fill-rule="evenodd" clip-rule="evenodd" fill="#4bb3cc"/><path d="M111.5 74.7v64.9h33.7V74.7h-33.7zm28.2 59.4h-11.4v-8.7h11.4v8.7zm0-15.1h-11.4v-8.7h11.4v8.7zm0-15.1h-11.4v-8.7h11.4v8.7zm0-15.1h-11.4v-8.7h11.4v8.7zM0 74.7v64.9h37.2V74.7H0zm6 50.7h12.6v8.7H6v-8.7zm0-15.1h12.6v8.7H6v-8.7zm0-15.1h12.6v8.7H6v-8.7zm0-15.1h12.6v8.7H6v-8.7zm192.8 11.4h21.7v9.9h-21.7zm-1.8 32.6h21.7v9.9H197zm-33.2 0h21.7v9.9h-21.7zm33.2-14.2h21.7v9.9H197zm-33.2 0h21.7v9.9h-21.7zM71.6 74.7v5.6h-2.5V89h2.5v6.4h-2.5v8.6h2.5v6.4h-2.5v8.6h2.5v6.4h-2.5v8.6h2.5v5.6h37.1V74.7H71.6zm33.6 61.8H75V134h27.8v-8.6H75V119h27.8v-8.6H75V104h27.8v-8.6H75V89h27.8v-8.6H75v-2.5h30.3v58.6z" fill-rule="evenodd" clip-rule="evenodd" fill="#21528a"/><path d="M216.4 85.7V64.4h-13.6v21.3h-12v18.5H154v35.4h74.4V85.7h-12zm-10.1-18.2h6.8v18.2h-6.8V67.5zm18.8 69h-67.6v-29.3h67.6v29.3zm0-32.3h-30.8V88.8h30.8v15.4zm-.6-68.7l-8.4-5.2-4.1-2.6-.9-.5L53.7 0 .6 38H41v101.6h3.4v-.1h17l-.2.1h6V38h161.2l-3.9-2.5zM54.1 9.7l9.5 24.2h-19l9.5-24.2zM60.3 38L44.5 52.3V38h15.8zM9.1 34.9l5.5-3.8 5.5 3.8h-11zm8.4-4.6h10.9L23 34.1l-5.5-3.8zm9.8 4.6l5.5-3.8 5.5 3.8h-11zm14-1.7l-8.7-6H21.1L52.5 4.8 41.3 33.2zm20.1 24.3l-17 15.3V57.5h17zm0 20.5l-17 15.3V78h17zm0 20.5l-17 15.3V98.5h17zM44.5 119h17l-17 15.3V119zm19.4 17.4h-17l17-15.3v15.3zm0-20.5h-17l17-15.3v15.3zm0-20.5h-17l17-15.3v15.3zm0-20.5h-17l17-15.3v15.3zm0-20.5h-17l17-15.3v15.3zm20.4-19.5H70.1l6.7-4.6h7.5v4.6zm0-7.7h-8.7l-8.7 6L55.3 3.4 193 27.2H84.3zm3.4 3.1h7.6l-7.6 2.9v-2.9zm13.3 4.6h-9l9-3.4v3.4zm3.4-4.6h7.6l-7.6 2.9v-2.9zm13.3 4.6h-9l9-3.4v3.4zm3.3-4.6h7.6l-7.6 2.9v-2.9zm13.3 4.6h-9l9-3.4v3.4zm3.4-4.6h7.6l-7.6 2.9v-2.9zm13.3 4.6h-9l9-3.4v3.4zm3.4-4.6h7.6l-7.6 2.9v-2.9zm13.3 4.6h-9l9-3.4v3.4zm3.4-4.6h7.6l-7.6 2.9v-2.9zm13.3 4.6h-9l9-3.4v3.4zm3.3-4.6h7.6l-7.6 2.9v-2.9zm13.3 4.6h-9l9-3.4v3.4zm3.4 0v-4.6h5.6l7.5 4.6h-13.1z" fill-rule="evenodd" clip-rule="evenodd" fill="#21528a"/><path d="M23 180.5c0 9.9-3.8 12.6-11.3 12.6-7.6 0-11.4-2.8-11.4-12.6 0-9.7 3.8-12.3 11.4-12.3 7.5 0 11.3 2.6 11.3 12.3zm-4.8.1c0-7.2-1.3-8.3-6.5-8.3s-6.5 1.1-6.5 8.3c0 7.2 1.3 8.5 6.5 8.5s6.5-1.3 6.5-8.5zm11.6 12.1v-23.9h12.4c5 0 6.6 3.5 6.6 8.2 0 4.1-1.9 7.8-6.5 7.8h-8v7.9h-4.5zM40.9 181c1.9 0 2.9-1.4 2.9-4.1 0-2.9-1-4.3-2.8-4.3h-6.7v8.4h6.6zm31.4-12.2v3.9H59.5v5.5h9.1v3.9h-9.1v6.7h12.8v3.9H55v-23.9h17.3zM61.8 165c0 1.8-.5 2.1-2 2.1s-2.1-.3-2.1-2.1c0-1.6.5-1.9 2.1-1.9s2 .3 2 1.9zm7.3 0c0 1.8-.5 2.1-2 2.1-1.6 0-2.1-.3-2.1-2.1 0-1.6.5-1.9 2.1-1.9s2 .3 2 1.9zm17.4 7.7c-.5 6.1-1.9 13.4-4.2 20h-4.8c2.3-7.1 4.5-15.2 4.8-23.9h16v23.9h-4.4v-20h-7.4zm29.8-4.5c2.2 0 5 .4 6.8.9l-1 4c-1.2-.4-3.5-.8-5.1-.8-5.2 0-7.2.9-7.2 8.2 0 7.3 2 8.5 7.2 8.5 1.6 0 3.8-.3 5.1-.8l1 4c-1.8.5-4.7.9-6.8.9-7.6 0-11.2-2.9-11.2-12.6s3.6-12.3 11.2-12.3zm19.3 24.5v-20h-8v-3.9h20.6v3.9h-8v20h-4.6zm18.4 0v-23.9h12.4c5 0 6.6 3.5 6.6 8.2 0 4.1-2 7.8-6.5 7.8h-8v7.9H154zm11.1-11.7c1.9 0 2.9-1.4 2.9-4.1 0-2.9-1-4.3-2.8-4.3h-6.7v8.4h6.6zm36.2-.5c0 9.9-3.8 12.6-11.3 12.6-7.6 0-11.4-2.8-11.4-12.6 0-9.7 3.8-12.3 11.4-12.3 7.5 0 11.3 2.6 11.3 12.3zm-4.8.1c0-7.2-1.3-8.3-6.5-8.3s-6.5 1.1-6.5 8.3c0 7.2 1.3 8.5 6.5 8.5s6.5-1.3 6.5-8.5zm32 12.1H224v-17.3c-3.1 5.8-6.6 11.8-10.1 17.3H208v-23.9h4.4v18c3.7-6 7.3-12 10.5-18h5.4v23.9zm-12.4-29.8c0 1.6.8 2 2.3 2 1.5 0 2.3-.4 2.3-2h2.7c0 3.3-1.8 4.7-5.1 4.7-3.2 0-5.1-1.4-5.1-4.7h2.9z" fill="#21528a"/></symbol><symbol viewBox="0 0 487.724 487.724" id="map-location"><path d="M236.925.124c-96.9 3.4-177.4 79-186.7 175.5-1.9 19.3-.8 38 2.6 55.9 0 0 .3 2.1 1.3 6.1 3 13.4 7.5 26.4 13.1 38.6 19.5 46.2 64.6 123.5 165.8 207.6 6.2 5.2 15.3 5.2 21.6 0 101.2-84 146.3-161.3 165.9-207.7 5.7-12.2 10.1-25.1 13.1-38.6.9-3.9 1.3-6.1 1.3-6.1 2.3-12 3.5-24.3 3.5-36.9 0-109.8-90.9-198.3-201.5-194.4zm6.9 291.2c-52.2 0-94.5-42.3-94.5-94.5s42.3-94.5 94.5-94.5 94.5 42.3 94.5 94.5-42.3 94.5-94.5 94.5z" fill="#e7392f"/></symbol><symbol viewBox="0 0 15.642 15.642" id="modal-close"><path fill-rule="evenodd" d="M8.882 7.821l6.541-6.541A.75.75 0 1 0 14.362.219L7.821 6.76 1.28.22A.75.75 0 1 0 .219 1.281L6.76 7.822l-6.54 6.54a.75.75 0 0 0 1.06 1.061l6.541-6.541 6.541 6.541a.75.75 0 1 0 1.06-1.061l-6.54-6.541z"/></symbol><symbol viewBox="-41 164.9 512 512" id="print"><path d="M131 242.9H82.3c-5.9 0-11.2-3.6-13.5-9-2.3-5.5-1-11.7 3.2-15.9l48.7-48.7c4.2-4.2 10.4-5.4 15.9-3.2 5.5 2.3 9 7.6 9 13.5v48.7c0 8.1-6.5 14.6-14.6 14.6zm216.7 87.9c-8.1 0-14.6-6.5-14.6-14.6v-122H195.7c-8.1 0-14.6-6.5-14.6-14.6s6.5-14.6 14.6-14.6h139.4c15 0 27.1 12.2 27.1 27.1v124c.1 8.2-6.5 14.7-14.5 14.7z"/><path d="M82.3 330.8c-8.1 0-14.6-6.5-14.6-14.6v-87.9c0-3.9 1.5-7.6 4.3-10.3l48.7-48.7c5.7-5.7 14.9-5.7 20.6 0 5.7 5.7 5.7 14.9 0 20.6l-44.4 44.4v81.8c0 8.2-6.5 14.7-14.6 14.7zm265.4 345.9H82.3c-8.1 0-14.6-6.5-14.6-14.6V514.8c0-8.1 6.5-14.6 14.6-14.6h265.4c8.1 0 14.6 6.5 14.6 14.6s-6.5 14.6-14.6 14.6H96.9v118.2h250.8c8.1 0 14.6 6.5 14.6 14.6 0 8-6.6 14.5-14.6 14.5z"/><path d="M424.9 587.1h-77.2c-8.1 0-14.6-6.5-14.6-14.6v-43.2H96.9v43.2c0 8.1-6.5 14.6-14.6 14.6H5.1c-25.4 0-46.1-20.7-46.1-46.1V355.9c0-25.4 20.7-46.1 46.1-46.1h419.8c25.4 0 46.1 20.7 46.1 46.1V541c0 25.5-20.7 46.1-46.1 46.1zM362.3 558h62.6c9.3 0 16.9-7.6 16.9-16.9V355.9c0-9.3-7.6-16.9-16.9-16.9H5.1c-9.3 0-16.9 7.6-16.9 16.9V541c0 9.3 7.6 16.9 16.9 16.9h62.6v-43.2c0-8.1 6.5-14.6 14.6-14.6h265.4c8.1 0 14.6 6.5 14.6 14.6V558z"/><path d="M424.9 587.1h-77.2c-8.1 0-14.6-6.5-14.6-14.6v-43.2H96.9v43.2c0 8.1-6.5 14.6-14.6 14.6H5.1c-25.4 0-46.1-20.7-46.1-46.1v-92.6c0-8.1 6.5-14.6 14.6-14.6h482.8c8.1 0 14.6 6.5 14.6 14.6V541c0 25.5-20.7 46.1-46.1 46.1zM362.3 558h62.6c9.3 0 16.9-7.6 16.9-16.9v-78H-11.8v78c0 9.3 7.6 16.9 16.9 16.9h62.6v-43.2c0-8.1 6.5-14.6 14.6-14.6h265.4c8.1 0 14.6 6.5 14.6 14.6V558z"/></symbol><symbol viewBox="0 0 512 512" id="ruble"><path d="M279.273 263.758c72.718 0 131.879-59.161 131.879-131.879S351.991 0 279.273 0c-.284 0-.566.005-.847.016H170.698l-.029-.002c-12.853 0-23.273 10.42-23.273 23.273v287.017h-23.274c-12.853 0-23.273 10.42-23.273 23.273s10.42 23.273 23.273 23.273h23.273v131.879c0 12.853 10.42 23.273 23.273 23.273s23.273-10.42 23.273-23.273V356.848h85.333c12.853 0 23.273-10.42 23.273-23.273s-10.42-23.273-23.273-23.273h-85.333v-46.545h85.332zm0-217.197c.251 0 .503-.005.751-.012 46.71.403 84.582 38.527 84.582 85.33 0 47.053-38.281 85.333-85.333 85.333H193.94V46.561h85.333z"/></symbol><symbol viewBox="0 0 626.52 626.52" id="search"><path d="M611.531 581.494L470.974 440.937c41.573-46.902 67.614-107.85 67.614-175.292C538.566 119.155 419.389 0 272.899 0 126.431 0 7.254 119.155 7.254 265.645c0 146.447 119.177 265.602 265.645 265.602 60.042 0 114.819-20.755 159.37-54.432l141.938 141.98c5.178 5.156 11.908 7.724 18.661 7.724s13.506-2.567 18.662-7.724c10.313-10.29 10.313-26.988.001-37.301zM60.025 265.645c0-117.364 95.51-212.896 212.896-212.896 117.408 0 212.896 95.509 212.896 212.896s-95.488 212.832-212.896 212.832c-117.386 0-212.896-95.446-212.896-212.832z"/></symbol><symbol viewBox="0 0 304.36 304.36" id="vk"><path d="M261.945 175.576c10.096 9.857 20.752 19.131 29.807 29.982 4 4.822 7.787 9.798 10.684 15.394 4.105 7.955.387 16.709-6.746 17.184l-44.34-.02c-11.436.949-20.559-3.655-28.23-11.474-6.139-6.253-11.824-12.908-17.727-19.372-2.42-2.642-4.953-5.128-7.979-7.093-6.053-3.929-11.307-2.726-14.766 3.587-3.523 6.421-4.322 13.531-4.668 20.687-.475 10.441-3.631 13.186-14.119 13.664-22.414 1.057-43.686-2.334-63.447-13.641-17.422-9.968-30.932-24.04-42.691-39.971-22.895-31.021-40.428-65.108-56.186-100.15C-2.01 76.458.584 72.22 9.295 72.07c14.465-.281 28.928-.261 43.41-.02 5.879.086 9.771 3.458 12.041 9.012 7.826 19.243 17.402 37.551 29.422 54.521 3.201 4.518 6.465 9.036 11.113 12.216 5.142 3.521 9.057 2.354 11.476-3.374 1.535-3.632 2.207-7.544 2.553-11.434 1.146-13.383 1.297-26.743-.713-40.079-1.234-8.323-5.922-13.711-14.227-15.286-4.238-.803-3.607-2.38-1.555-4.799 3.564-4.172 6.916-6.769 13.598-6.769h50.111c7.889 1.557 9.641 5.101 10.721 13.039l.043 55.663c-.086 3.073 1.535 12.192 7.07 14.226 4.43 1.448 7.35-2.096 10.008-4.905 11.998-12.734 20.561-27.783 28.211-43.366 3.395-6.852 6.314-13.968 9.143-21.078 2.096-5.276 5.385-7.872 11.328-7.757l48.229.043c1.43 0 2.877.021 4.262.258 8.127 1.385 10.354 4.881 7.844 12.817-3.955 12.451-11.65 22.827-19.174 33.251-8.043 11.129-16.645 21.877-24.621 33.072-7.328 10.223-6.746 15.376 2.357 24.255zm0 0" fill-rule="evenodd" clip-rule="evenodd"/></symbol></svg>