<svg version="1" xmlns="http://www.w3.org/2000/svg" width="346.667" height="346.667" viewBox="0 0 260.000000 260.000000"><path d="M32.5 8.8c-2.2 1.5-10.1 7.1-17.7 12.5L1.2 31.1l-.4 4.8c-.5 8-1.1 7.6 11.7 7.4 6.3-.1 11.5.1 11.6.5 0 .4.1 30.2.1 66.2l.1 65.5-9.6 6.4-9.7 6.4v28.4c0 18.2-.4 28.3-1 28.3-.5 0-1 2.1-1 4.8v4.7h257.1l-.3-4.5c-.3-4-.6-4.5-2.5-4.3l-2.3.3V69.3L235.9 62c-10.5-4-19.7-7.3-20.3-7.3-.7 0-14.7 8.2-31 18.2-23.6 14.5-30.3 18.2-32.4 17.9-1.5-.3-8.1-2-14.7-3.7-6.6-1.8-12.7-3.5-13.5-3.7-.8-.2-5.1-1.3-9.5-2.5-4.4-1.1-8.4-2.2-9-2.3-.5-.2-2.9-.8-5.3-1.5-2.3-.6-4.8-.8-5.6-.4-.8.4-5.4 4.4-10.2 8.9-4.9 4.4-10.7 9.7-12.9 11.6l-4 3.6v60l9.5 2.6c5.2 1.4 27.5 7.3 49.5 13.1s40.8 10.8 41.8 11.1c1.6.5 1.7 2.8 1.7 29V245l-20.2-.2-20.3-.3v-10.3c0-6.1-.4-10.2-1-10.3-4.6-.5-7.1-.7-14.7-1.3l-8.8-.7v23.6l-25.2-.1c-13.9-.1-26-.2-26.8-.3-1.3-.1-1.5-5.4-1.5-43.1 0-23.7-.3-43-.7-43-.5 0-.8-26-.8-57.9V43.2h75.8c41.6-.1 77.1-.1 78.7-.2h3l-3-2c-7.4-5-15.4-8.9-19.5-9.5-2.5-.3-5.2-.8-6-1-.8-.2-3.5-.7-6-1-2.5-.4-6.3-1-8.5-1.5s-14.8-2.7-28-4.9c-13.2-2.3-25.1-4.3-26.5-4.6-1.4-.2-3.6-.7-5-1-1.4-.2-3.8-.7-5.5-.9-4.5-.7-22.7-3.8-25-4.2-1.1-.2-4.7-.9-8-1.4-3.3-.6-10.9-1.9-17-3-6-1.1-11.4-2-12-2-.5 0-2.8 1.3-5 2.8zM53 12c2.5.6 13.7 2.5 25 4.4 11.3 1.9 22.1 3.8 24 4.1 6.6 1.2 30.5 5.4 34 5.9 1.9.3 4.6.8 6 1.1 1.4.3 7 1.2 12.5 2.1 5.5.9 10.3 1.9 10.7 2.3.4.3-23.7.6-53.5.6H57.5l-3.7 2.8c-3.4 2.6-3.7 2.7-4.6 1C48.1 34.2 39 11.1 39 10.4c0-.6 7.6.3 14 1.6zM30.1 23.7c-2.5 6.5-5 12.4-5.4 13-.6.9-1.8.5-4.7-1.6-3.2-2.3-4.8-2.8-8.5-2.6-2.8.2-4.5-.1-4.3-.7.4-1 25.7-19.6 26.9-19.7.4-.1-1.4 5.2-4 11.6zm11.6 4l4.1 10.8-4.4.3c-2.4.2-6.4.2-8.8 0l-4.3-.3 4.1-10.7C34.6 21.9 36.7 17 37 17c.3 0 2.4 4.8 4.7 10.7zm-33 10c-1.2 1.2-1.9 1.3-3.6.4-3.2-1.8-2.5-2.7 1.5-2.3 3.2.4 3.4.6 2.1 1.9zm57.9.6c.2 1.5-.7 1.7-6.3 1.7h-6.6l2.4-1.9c1.3-1 3.1-2 3.9-2.3 2.5-.8 6.3.7 6.6 2.5zm6.8-1.2c-2.7 1.1-3.4 1-3.4 0 0-1.1 3.1-2 4.4-1.3.5.3.1.9-1 1.3zm16 0c-2.7 1.1-3.4 1-3.4 0 0-1.1 3.1-2 4.4-1.3.5.3.1.9-1 1.3zm81.6.1c-2.5.9-3.6.5-2.6-1 .3-.6 1.6-.8 2.8-.4l2.2.5-2.4.9zm-65-.2c-1.9 1.3-3 1.3-3 0 0-.6 1-1 2.3-1 1.8 0 1.9.2.7 1zm16.5 0c-2.7 1.2-3.5 1.2-3.5 0 0-.6 1.2-1 2.8-.9 2.4 0 2.5.1.7.9zm18.4-.6c-1.2 1-5.9 1.5-5.9.6 0-.5 1.4-1 3.2-1 1.7 0 2.9.2 2.7.4zm14.1.6c-1.9 1.3-3 1.3-3 0 0-.6 1-1 2.3-1 1.8 0 1.9.2.7 1zm37 .5c1.7.9 3 1.8 3 2 0 .3-2.5.5-5.5.5-4.8 0-5.5-.2-5.5-2 0-2.5 3.7-2.7 8-.5zm-173.4 1c1.8 1.3 1.6 1.4-2.5 1.5-4.2 0-4.3-.1-2.5-1.5 2.4-1.8 2.6-1.8 5 0zm64.4 0c0 1.1-1 1.5-3.7 1.4l-3.8-.1 3.5-1.3c1.9-.7 3.6-1.4 3.8-1.4.1-.1.2.6.2 1.4zm16 0c0 1-1 1.5-3.2 1.4l-3.3-.1 3-1.3c1.7-.8 3.1-1.4 3.3-1.5.1 0 .2.7.2 1.5zm16.4 0c.4 1.2-.3 1.5-3.2 1.5l-3.7-.1 3-1.4c1.7-.7 3.1-1.4 3.1-1.4.1-.1.4.6.8 1.4zm16.3 0c0 1.1-1.1 1.5-3.6 1.4l-3.6-.1 3.5-1.3c1.9-.7 3.5-1.4 3.6-1.4 0-.1.1.6.1 1.4zm16.3 0c0 1-1 1.5-3.2 1.4l-3.3-.1 3-1.3c1.7-.8 3.1-1.4 3.3-1.5.1 0 .2.7.2 1.5zm16.5.6c-.4.5-2.1.9-3.8.9l-3.2-.1 3-1.3c3.1-1.4 5-1.1 4 .5zm16.5-.6c0 1-1 1.5-3.2 1.4l-3.3-.1 3-1.3c1.7-.8 3.1-1.4 3.3-1.5.1 0 .2.7.2 1.5zM35.5 49.6c-5.8 5.4-7.1 6.2-7.6 4.7-.3-1-.5-2.5-.3-3.3.1-.8.3-2.9.3-4.6l.1-3.2h14.5l-7 6.4zm11 3v5.9l-8 .3-8 .3 7-6.5c3.9-3.6 7.5-6.4 8-6.2.6.1 1 2.9 1 6.2zM246 71.2l3.5 1.5-.1 85.4c-.1 47-.2 85.7-.3 86.1-.2 1.3-3.9.9-4.3-.5-.2-.6-.4-36.7-.4-80 .1-73.1 0-79-1.6-79.8-.9-.5-2.1-.9-2.7-.9-.8 0-1.1 24.3-1.1 81v81h-7v-82c0-80 0-82-1.9-83-1.1-.5-2.4-1-3-1-.8 0-1.1 24.9-1.1 83v83h-8v-7.8c-.1-9.7-.1-165.1 0-171.4V61l12.3 4.4c6.7 2.4 13.8 5 15.7 5.8zM42.3 63.5c-.8 1.8-13.2 12-14 11.5-.7-.5-.7-10.6.1-11.8.7-1.2 14.4-.9 13.9.3zm4.2 8c0 3.5-.4 6.7-.8 7.1-1 1-13.7.8-13.5-.2.1-.5 2.2-2.7 4.6-4.9 4.4-3.9 9.6-8.5 9.8-8.5 0 0 0 2.9-.1 6.5zm-4.7 12.1c-.2.5-2.8 3.1-5.8 5.8-3 2.7-5.8 5.4-6.2 6-.4.6-1 .8-1.3.5-.5-.5-.9-9.2-.6-12.4.1-.6 2.9-1 7.1-1 3.9.1 6.9.6 6.8 1.1zm110 53.1l.2 41.1-2.7-.7-2.8-.7-.1-34c0-18.7-.4-34.6-.8-35.2-.4-.7-1.7-1.2-2.9-1.2h-2.2v34c0 33.4 0 34-2 34-1.1 0-3.6-.4-5.5-1l-3.5-1v-34.6c0-31.5-.1-34.7-1.7-35.5-4.4-2.3-4.3-2.7-4.3 33.6V170l-3.5-.7c-1.9-.3-4.6-.9-6-1.3l-2.5-.6-.2-34.3c-.1-18.9-.4-34.5-.6-34.7-.3-.3-1.7-.6-3.2-.7l-2.7-.2v34.2c0 18.9-.4 34.3-.9 34.3-.4 0-1.9-.4-3.3-1l-2.6-1V82.2l26.8 6.7 26.7 6.7.3 41.1zM46.5 92.2v6.3l-5 .5c-2.8.3-6.3.3-7.8.1l-2.8-.3 2.3-2.1c1.3-1.1 4.4-4 7-6.4 2.6-2.4 5.1-4.3 5.5-4.3.5 0 .8 2.8.8 6.2zM42 103.1c.3.2-1.7 2.4-4.4 4.9-2.8 2.5-5.8 5.3-6.8 6.2-2.7 2.6-3.3 2.2-3.1-1.9.1-2.1.2-5.2.2-6.8l.1-3.1 6.8.1c3.7.1 6.9.4 7.2.6zm4.5 8.4c0 3.5-.3 6.7-.6 7-.6.5-8.4.9-13.3.6-1.4-.1-.7-1.1 2.9-4.4 2.7-2.3 6.2-5.4 7.9-6.9 1.7-1.5 3.1-2.8 3.2-2.8 0 0 0 2.9-.1 6.5zm-4 11.7c.3.3-.7 1.6-2.2 2.8-1.5 1.2-4.9 4.2-7.5 6.6-3.7 3.5-4.8 4.1-4.9 2.7-.2-5.3 0-11.3.5-12.1.6-.9 13.2-1 14.1 0zm4.1 9.3v6.5H30.8l4.7-4.3C43 128 45.5 126 46 126c.3 0 .5 2.9.6 6.5zm-9.1 16c-3.3 3.1-6.8 6-7.7 6.6-2 1.1-2 1-2-5.1-.1-7.4-.5-7 8-7h7.7l-6 5.5zm8.9 3.7c-.1 3.5-.2 6.5-.3 6.8-.1.4-13.9.5-14.9.1C30.8 159 45.4 146 46 146c.3 0 .5 2.8.4 6.2zM44 162.7c0 .7-15.3 10.4-15.7 9.9-.5-.4-.7-5.7-.4-9.1.1-.9 16.1-1.6 16.1-.8z"/><path d="M64.2 176.2c.3 1.9 2.3 2.5 24.8 7 13.5 2.6 34.6 6.9 47 9.3 12.4 2.5 23.1 4.5 23.8 4.5.6 0 1.2-.7 1.2-1.5s-.2-1.5-.4-1.5c-.6 0-25.7-5.3-55.1-11.5-12.1-2.6-22.9-4.9-24-5.1-3.5-.7-5.9-1.2-10.5-2.3-6.4-1.5-7.2-1.4-6.8 1.1zM64 188.3c0 2.3.6 2.7 5.3 3.6 2.8.6 7 1.3 9.2 1.6 2.3.3 5.2.7 6.5 1 1.4.3 7.2 1.2 13 2 11.7 1.8 10.9 1.6 27.5 4.4 6.6 1.1 14.3 2.3 17 2.7 2.8.3 5.2.7 5.5.9.3.2 3.3.6 6.8 1 5.2.5 6.2.4 6.2-.8 0-1.1-1.7-1.9-5.2-2.6-6.1-1.2-26.5-4.8-37.3-6.6-1.1-.2-11-2-22-3.9s-21.6-3.8-23.5-4.1c-1.9-.3-4.7-.8-6.2-1.1-2.5-.5-2.8-.3-2.8 1.9zM64 200.9c0 1.5.6 2.8 1.3 2.8 2.8.1 13 1.3 18.9 2.2 6.3 1 11.1 1.6 20.3 2.6 2.8.3 6.1.8 7.5 1 1.4.2 5 .7 8 1 3 .3 6.6.8 8 1 1.4.2 4.8.6 7.5 1 2.8.3 9.4 1.2 14.8 1.9 8.5 1.1 10 1.1 10.4-.2.7-1.7-1.3-3.1-4.7-3.3-1.4 0-3.4-.2-4.5-.4s-9-1.3-17.5-2.5c-18.4-2.5-19.2-2.6-24.9-3.5-2.4-.4-5.8-.9-7.5-1-2.5-.3-23.2-3.2-34.8-4.9-2.5-.4-2.8-.1-2.8 2.3zM64 225.4c0 6.4.1 11.6.3 11.6.1.1 2.6.3 5.5.6l5.2.6v-11.5c0-12.6.2-12.2-6.7-12.6l-4.3-.3v11.6zM84.4 216.2c-.5.7-.9 5.9-.9 11.5V238l2.7.1c1.6.1 3.5.1 4.3.1.8 0 2 0 2.5-.1.7-.1 1-4.2.9-11.1l-.1-11H91c-1.6 0-3.5-.3-4.3-.6-.8-.3-1.9.1-2.3.8zM138.4 222.3c-.3.8-.4 4.9-.2 9.3l.3 7.9h8l.3-9.3.3-9.2H143c-2.5 0-4.3.5-4.6 1.3zM154 230.9c0 9.4.4 10.1 4.7 9.3 2.2-.4 2.3-.9 2.3-9.1v-8.7l-3.5-.2-3.5-.3v9z"/></svg>