<?xml version="1.0" encoding="utf-8"?>
<!-- Generator: Adobe Illustrator 19.0.0, SVG Export Plug-In . SVG Version: 6.00 Build 0)  -->
<svg version="1.1" id="Capa_1" xmlns="http://www.w3.org/2000/svg" xmlns:xlink="http://www.w3.org/1999/xlink" x="0px" y="0px"
	 viewBox="-103 105 52 52" style="enable-background:new -103 105 52 52;" xml:space="preserve">
<style type="text/css">
	.st0{stroke:#000000;stroke-width:0.4267;stroke-miterlimit:10;}
</style>
<g>
	<g>
		<path class="st0" d="M-62.8,128.6h-0.3V124c0-0.3-0.3-0.5-0.5-0.5h-3.2c-0.3,0-0.5,0.3-0.5,0.5v10.1v3.9v2.6h-2.2V133v-3.9v-7.7
			h2.2v0.9c0,0.3,0.3,0.5,0.5,0.5c0.3,0,0.5-0.3,0.5-0.5v-1.5c0-0.3-0.3-0.5-0.5-0.5h-3.3c-0.3,0-0.5,0.3-0.5,0.5v7.7h-2.5h-7.7
			h-2.5v-7.7c0-0.3-0.3-0.5-0.5-0.5h-3.2c-0.3,0-0.5,0.3-0.5,0.5v2.6h-2.7c-0.3,0-0.5,0.3-0.5,0.5v4.5h-0.3c-1.4,0-2.5,1.1-2.5,2.5
			c0,1.4,1.1,2.5,2.5,2.5h0.3v4.5c0,0.3,0.3,0.5,0.5,0.5h3.2c0.3,0,0.5-0.3,0.5-0.5v-1.5V124v-2.6h2.2v7.7v3.9v7.7h-2.2v-0.9
			c0-0.3-0.3-0.5-0.5-0.5s-0.5,0.3-0.5,0.5v1.5c0,0.3,0.3,0.5,0.5,0.5h3.2c0.3,0,0.5-0.3,0.5-0.5v-7.7h2.5h7.7h2.5v7.7
			c0,0.3,0.3,0.5,0.5,0.5h3.2c0.3,0,0.5-0.3,0.5-0.5v-2.6h2.7c0.3,0,0.5-0.3,0.5-0.5v-4.5h0.3c1.4,0,2.5-1.1,2.5-2.5
			C-60.4,129.7-61.5,128.6-62.8,128.6z M-90.9,132.5h-0.3c-0.8,0-1.5-0.7-1.5-1.5s0.7-1.5,1.5-1.5h0.3V132.5z M-87.7,136.7v0.9l0,0
			h-2.2v-4.5v-3.9v-4.5h2.2V136.7z M-81.4,132.5h-2v-2.9h2V132.5z M-73.7,132.5h-6.6v-2.9h6.6V132.5z M-70.7,132.5h-2v-2.9h2V132.5
			L-70.7,132.5z M-64.1,129.1v3.9v4.5h-2.2v-3.4v-9.6h2.2V129.1z M-62.8,132.5h-0.3v-2.9h0.3c0.8,0,1.5,0.7,1.5,1.5
			S-62.1,132.5-62.8,132.5z"/>
	</g>
</g>
<path d="M-77,110.5c11.3,0,20.5,9.2,20.5,20.5s-9.2,20.5-20.5,20.5s-20.5-9.2-20.5-20.5S-88.3,110.5-77,110.5 M-77,108.8
	c-12.3,0-22.2,9.9-22.2,22.2s9.9,22.2,22.2,22.2s22.2-9.9,22.2-22.2S-64.7,108.8-77,108.8L-77,108.8z"/>
</svg>
