<?xml version="1.0" encoding="utf-8"?>
<!-- Generator: Adobe Illustrator 19.0.0, SVG Export Plug-In . SVG Version: 6.00 Build 0)  -->
<svg version="1.1" id="Capa_1" xmlns="http://www.w3.org/2000/svg" xmlns:xlink="http://www.w3.org/1999/xlink" x="0px" y="0px"
	 viewBox="-103 105 52 52" style="enable-background:new -103 105 52 52;" xml:space="preserve">
<g>
	<g>
		<g>
			<path d="M-65.8,126.5h-6.8v-6.7c0-1.4-1.1-2.4-2.4-2.4h-4c-1.4,0-2.4,1.1-2.4,2.4v6.8h-6.8c-1.4,0-2.4,1.1-2.4,2.4v4
				c0,1.4,1.1,2.4,2.4,2.4h6.8v6.8c0,1.4,1.1,2.4,2.4,2.4h4c1.4,0,2.4-1.1,2.4-2.4v-6.8h6.8c1.4,0,2.4-1.1,2.4-2.4v-4
				C-63.3,127.7-64.5,126.5-65.8,126.5z M-64.8,133c0,0.6-0.5,1-1,1h-7.5c-0.4,0-0.7,0.3-0.7,0.7v7.5c0,0.6-0.5,1-1,1h-4
				c-0.6,0-1-0.5-1-1v-7.5c0-0.4-0.3-0.7-0.7-0.7h-7.6c-0.6,0-1-0.5-1-1v-4c0-0.6,0.5-1,1-1l0,0h7.5c0.4,0,0.7-0.3,0.7-0.7v-7.5
				c0-0.6,0.5-1,1-1h4c0.6,0,1,0.5,1,1v7.5c0,0.4,0.3,0.7,0.7,0.7h7.5c0.6,0,1,0.5,1,1L-64.8,133L-64.8,133z"/>
		</g>
	</g>
	<g>
		<g>
			<path d="M-68.5,150.3h-25.4c-1.3,0-2.4-1-2.4-2.4V114c0-1.3,1-2.4,2.4-2.4h3.6c0.4,0,0.7-0.3,0.7-0.7c0-0.4-0.3-0.7-0.7-0.7h-3.6
				c-2.1,0-3.8,1.7-3.8,3.8v33.9c0,2.1,1.7,3.8,3.8,3.8h25.4c0.4,0,0.7-0.3,0.7-0.7S-68.1,150.3-68.5,150.3z"/>
		</g>
	</g>
	<g>
		<g>
			<path d="M-60.1,110.3h-27.4c-0.4,0-0.7,0.3-0.7,0.7s0.3,0.7,0.7,0.7h27.4c1.3,0,2.4,1,2.4,2.4V148c0,1.3-1,2.4-2.4,2.4h-5.6
				c-0.4,0-0.7,0.3-0.7,0.7s0.3,0.7,0.7,0.7h5.6c2.1,0,3.8-1.7,3.8-3.8v-33.9C-56.3,112-57.9,110.3-60.1,110.3z"/>
		</g>
	</g>
</g>
</svg>
