<?xml version="1.0" encoding="utf-8"?>
<!-- Generator: Adobe Illustrator 19.0.0, SVG Export Plug-In . SVG Version: 6.00 Build 0)  -->
<svg version="1.1" id="Layer_1" xmlns="http://www.w3.org/2000/svg" xmlns:xlink="http://www.w3.org/1999/xlink" x="0px" y="0px"
	 viewBox="-41 164.9 512 512" style="enable-background:new -41 164.9 512 512;" xml:space="preserve">
<g>
	<g>
		<g>
			<path d="M69.9,496.2c-14.1,0-25.6,11.5-25.6,25.6s11.5,25.6,25.6,25.6s25.6-11.5,25.6-25.6S84,496.2,69.9,496.2z M69.9,530.3
				c-4.7,0-8.5-3.8-8.5-8.5c0-4.7,3.8-8.5,8.5-8.5c4.7,0,8.5,3.8,8.5,8.5C78.5,526.5,74.6,530.3,69.9,530.3z"/>
			<path d="M411.3,240.2H-15.4c-14.1,0-25.6,11.5-25.6,25.6v238.9c0,14.1,11.5,25.6,25.6,25.6c4.7,0,8.5-3.8,8.5-8.5
				c0-4.7-3.8-8.5-8.5-8.5c-4.7,0-8.5-3.8-8.5-8.5v-25.6h8.5c4.7,0,8.5-3.8,8.5-8.5s-3.8-8.5-8.5-8.5h-8.5V265.8
				c0-4.7,3.8-8.5,8.5-8.5h366.9v17.1H1.7c-4.7,0-8.5,3.8-8.5,8.5s3.8,8.5,8.5,8.5h8.5v102.4H1.7c-4.7,0-8.5,3.8-8.5,8.5
				c0,4.7,3.8,8.5,8.5,8.5h349.9V445c0,4.7,3.8,8.5,8.5,8.5s8.5-3.8,8.5-8.5v-34.1h85.3V462h-8.5c-4.7,0-8.5,3.8-8.5,8.5
				s3.8,8.5,8.5,8.5h8.5v25.6c0,4.7-3.8,8.5-8.5,8.5h-26.3c-4.2-28.9-29-51.2-59.1-51.2c-32.9,0-59.7,26.8-59.7,59.7
				c0,32.9,26.8,59.7,59.7,59.7c30,0,54.9-22.3,59.1-51.2h26.3c14.1,0,25.6-11.5,25.6-25.6V299.9C471,266.4,444.8,240.2,411.3,240.2
				z M95.5,393.8H27.3V291.4h68.3L95.5,393.8L95.5,393.8z M180.9,393.8h-68.3V291.4h68.3V393.8z M266.2,393.8h-68.3V291.4h68.3
				V393.8z M351.5,393.8h-68.3V291.4h68.3V393.8z M360.1,564.4c-23.5,0-42.7-19.1-42.7-42.7c0-23.5,19.1-42.7,42.7-42.7
				c23.5,0,42.7,19.1,42.7,42.7C402.7,545.3,383.6,564.4,360.1,564.4z M453.9,393.8h-28.9L436,372c2.1-4.2,0.4-9.3-3.8-11.4
				c-4.2-2.1-9.3-0.4-11.5,3.8L406,393.8h-37.4V257.2h42.7c24.3,0,42.7,18.3,42.7,42.7L453.9,393.8L453.9,393.8z"/>
			<path d="M283.3,521.8c0-4.7-3.8-8.5-8.5-8.5H129c-4.2-28.9-29-51.2-59.1-51.2c-32.9,0-59.7,26.8-59.7,59.7
				c0,32.9,26.8,59.7,59.7,59.7c30,0,54.9-22.3,59.1-51.2h145.7C279.4,530.3,283.3,526.5,283.3,521.8z M69.9,564.4
				c-23.5,0-42.7-19.1-42.7-42.7c0-23.5,19.1-42.7,42.7-42.7c23.5,0,42.7,19.1,42.7,42.7C112.6,545.3,93.5,564.4,69.9,564.4z"/>
			<path d="M360.1,496.2c-14.1,0-25.6,11.5-25.6,25.6s11.5,25.6,25.6,25.6s25.6-11.5,25.6-25.6S374.2,496.2,360.1,496.2z
				 M360.1,530.3c-4.7,0-8.5-3.8-8.5-8.5c0-4.7,3.8-8.5,8.5-8.5s8.5,3.8,8.5,8.5C368.6,526.5,364.8,530.3,360.1,530.3z"/>
			<path d="M87,598.6H-32.5c-4.7,0-8.5,3.8-8.5,8.5s3.8,8.5,8.5,8.5H87c4.7,0,8.5-3.8,8.5-8.5C95.5,602.4,91.7,598.6,87,598.6z"/>
			<path d="M291.8,598.6h-17.1c-4.7,0-8.5,3.8-8.5,8.5c0,4.7,3.8,8.5,8.5,8.5h17.1c4.7,0,8.5-3.8,8.5-8.5
				C300.3,602.4,296.5,598.6,291.8,598.6z"/>
			<path d="M462.5,598.6H325.9c-4.7,0-8.5,3.8-8.5,8.5c0,4.7,3.8,8.5,8.5,8.5h136.5c4.7,0,8.5-3.8,8.5-8.5
				C471,602.4,467.2,598.6,462.5,598.6z"/>
			<path d="M223.5,598.6h-85.3c-4.7,0-8.5,3.8-8.5,8.5c0,4.7,3.8,8.5,8.5,8.5h85.3c4.7,0,8.5-3.8,8.5-8.5
				C232.1,602.4,228.2,598.6,223.5,598.6z"/>
			<path d="M291.8,479.1c4.7,0,8.5-3.8,8.5-8.5s-3.8-8.5-8.5-8.5H138.2c-4.7,0-8.5,3.8-8.5,8.5s3.8,8.5,8.5,8.5H291.8z"/>
		</g>
	</g>
</g>
</svg>
