<?xml version="1.0" encoding="utf-8"?>
<!-- Generator: Adobe Illustrator 19.0.0, SVG Export Plug-In . SVG Version: 6.00 Build 0)  -->
<svg version="1.1" id="Layer_1" xmlns="http://www.w3.org/2000/svg" xmlns:xlink="http://www.w3.org/1999/xlink" x="0px" y="0px"
	 viewBox="-151 275.9 512 512" style="enable-background:new -151 275.9 512 512;" xml:space="preserve">
<g>
	<g>
		<g>
			<path d="M-37.5,348h-27.3v54.5h13.6v-13.6h13.6c11.3,0,20.4-9.2,20.4-20.4C-17.1,357.2-26.3,348-37.5,348z M-37.5,375.2h-13.6
				v-13.6h13.6c3.8,0,6.8,3.1,6.8,6.8C-30.7,372.2-33.8,375.2-37.5,375.2z"/>
			<path d="M207.8,675c0-37.6-30.6-68.1-68.1-68.1S71.5,637.5,71.5,675c0,22.3,10.8,42.1,27.4,54.5H-3.5v-27.3h-20.4V552.4h-13.6
				V429.8h31.7l23.4-54.5l-23.4-54.5h-77.1l-23.4,54.5l23.4,54.5h31.7v122.6h-13.6v149.9h-20.4v27.3h-20.4v13.6h20.4h81.8h320.2
				v-13.6H180.3C196.9,717.1,207.8,697.3,207.8,675z M-73.9,416.1l-17.5-40.9l17.5-40.9h59.2l17.5,40.9l-17.5,40.9H-73.9z
				 M-51.1,566h13.6v136.3h-13.6V566z M-17.1,729.5h-54.5v-13.6h6.8h40.9h6.8V729.5z M139.6,729.5c-30.1,0-54.5-24.5-54.5-54.5
				c0-30.1,24.5-54.5,54.5-54.5s54.5,24.5,54.5,54.5C194.1,705.1,169.7,729.5,139.6,729.5z"/>
			<path d="M270.2,375.2c-27.8,0-52.2,18.8-59.3,45.7l-22,83.7h-35.6c-45.9,0-88.4,24.5-111.6,64.1l-17.8,5.9v45.8H-3.5V675h27.3
				h13.6h20.4v-13.6H37.4v-40.9v-36l18.7-6.2c24.5-8.2,50.1-12.3,75.9-12.3h4.9c30,0,57.9,13.4,76.6,36.8
				c13.3,16.6,20.8,37.3,21.4,58.6h-13.5V675H235h6.8h74.9v-13.6h-68.2c-0.6-24.3-9.2-48-24.5-67.1c-21.3-26.7-53.1-41.9-87.3-41.9
				H132c-23.5,0-46.8,3.3-69.3,9.7c21.8-27.3,55.1-43.7,90.6-43.7h46.1l24.7-93.9c5.5-20.9,24.5-35.6,46.1-35.6h46.6v-13.6
				L270.2,375.2L270.2,375.2z M23.8,661.4H10.2v-27.3h13.6V661.4z"/>
			<path d="M139.6,641c-18.8,0-34.1,15.3-34.1,34.1c0,18.8,15.3,34.1,34.1,34.1c18.8,0,34.1-15.3,34.1-34.1
				C173.7,656.3,158.4,641,139.6,641z M139.6,695.5c-11.3,0-20.4-9.2-20.4-20.4s9.2-20.4,20.4-20.4c11.3,0,20.4,9.2,20.4,20.4
				C160.1,686.3,150.9,695.5,139.6,695.5z"/>
			<path d="M239.4,424.5l-20,74.9c-1.6,6.2-0.4,12.6,3.5,17.7c3.9,5.1,9.8,8,16.2,8h77.7v-13.6h-77.7c-2.1,0-4.1-1-5.4-2.7
				c-1.3-1.7-1.7-3.8-1.2-5.9l20-74.9c0.8-3,3.5-5.1,6.6-5.1h57.7v-13.6h-57.7C249.9,409.3,241.7,415.6,239.4,424.5z"/>
		</g>
	</g>
</g>
</svg>
