<?xml version="1.0" encoding="utf-8"?>
<!-- Generator: Adobe Illustrator 19.0.0, SVG Export Plug-In . SVG Version: 6.00 Build 0)  -->
<svg version="1.1" id="Layer_1" xmlns="http://www.w3.org/2000/svg" xmlns:xlink="http://www.w3.org/1999/xlink" x="0px" y="0px"
	 viewBox="-41 164.9 512 512" style="enable-background:new -41 164.9 512 512;" xml:space="preserve">
<g>
	<g>
		<g>
			<path d="M-11.4,285.9h43.1c16.3,0,29.6-10.9,29.6-24.3c0-4.3-1.4-8.5-4-12.2c-2.2-3.2-7.2-4.3-11-2.4c-3.9,1.8-5.2,5.9-2.9,9.1
				c1.2,1.7,1.8,3.6,1.8,5.5c0,6.1-6,11.1-13.5,11.1h-43.1c-7.4,0-13.5-5-13.5-11.1c0-6.1,6-11.1,13.5-11.1H2.3c2.9,0,5.6-1.3,7-3.3
				c1.4-2.1,1.4-4.6,0-6.6c-1.2-1.7-1.8-3.6-1.8-5.5c0-6.1,6-11.1,13.5-11.1h107.8c7.4,0,13.5,5,13.5,11.1c0,6.1-6,11.1-13.5,11.1
				H85.7c-4.5,0-8.1,3-8.1,6.6s3.6,6.6,8.1,6.6h43.1c16.3,0,29.6-10.9,29.6-24.3c0-13.4-13.3-24.3-29.6-24.3H21
				c-16.3,0-29.6,10.9-29.6,24.3c0,0.7,0,1.5,0.1,2.2h-2.8c-16.3,0-29.6,10.9-29.6,24.3C-41,275-27.7,285.9-11.4,285.9z"/>
			<path d="M282.6,345.7c0,3.7,3,6.6,6.7,6.6c3.7,0,6.7-3,6.7-6.6c0-37.8,31.1-68.6,69.3-68.6s69.3,30.8,69.3,68.6
				c0,33.3-24,61.7-57.1,67.5c-3.6,0.6-6.1,4.1-5.4,7.7c0.6,3.2,3.4,5.5,6.6,5.5c0.4,0,0.8,0,1.2-0.1c39.5-7,68.1-40.8,68.1-80.6
				c0-45.1-37.1-81.9-82.7-81.9S282.6,300.5,282.6,345.7z"/>
			<path d="M365.3,378.9c-6.7,0-13.1-1.9-18.6-5.6c-3.1-2-7.2-1.2-9.3,1.8c-2.1,3-1.2,7.2,1.8,9.2c7.7,5.1,16.7,7.8,26.1,7.8
				c25.9,0,46.9-20.8,46.9-46.5s-21.1-46.5-46.9-46.5c-25.9,0-46.9,20.8-46.9,46.5c0,3.7,3,6.6,6.7,6.6c3.7,0,6.7-3,6.7-6.6
				c0-18.3,15-33.2,33.5-33.2c18.5,0,33.5,14.9,33.5,33.2S383.8,378.9,365.3,378.9z"/>
			<path d="M279.7,294.8c4.5,0,8.1-3,8.1-6.6c0-3.7-3.6-6.6-8.1-6.6c-7.4,0-13.5-5-13.5-11.1c0-6.1,6-11.1,13.5-11.1h43.1
				c2.4,0,4.7,0.5,6.7,1.5c3.9,1.8,8.8,0.8,11-2.4c2.2-3.2,0.9-7.2-2.9-9.1c-4.5-2.1-9.6-3.3-14.8-3.3h-43.1
				c-16.3,0-29.6,10.9-29.6,24.3C250,283.9,263.3,294.8,279.7,294.8z"/>
			<path d="M398.2,467.4h-10.8c-4.5,0-8.1,3-8.1,6.6c0,3.7,3.6,6.6,8.1,6.6h10.8c4.5,0,8.1-3,8.1-6.6
				C406.3,470.3,402.7,467.4,398.2,467.4z"/>
			<path d="M204.2,370c-4.5,0-8.1,3-8.1,6.6v115.1c0,3.7,3.6,6.6,8.1,6.6c4.5,0,8.1-3,8.1-6.6V376.6C212.3,373,208.7,370,204.2,370z
				"/>
			<path d="M398.2,493.9h-10.8c-4.5,0-8.1,3-8.1,6.6c0,3.7,3.6,6.6,8.1,6.6h10.8c4.5,0,8.1-3,8.1-6.6
				C406.3,496.9,402.7,493.9,398.2,493.9z"/>
			<path d="M88.3,544.8V403.2c0-3.7-3.6-6.6-8.1-6.6c-4.5,0-8.1,3-8.1,6.6v141.6c0,3.7,3.6,6.6,8.1,6.6
				C84.7,551.4,88.3,548.5,88.3,544.8z"/>
			<path d="M462.9,617.8h-2.7V456.3c0-8.5-8.5-15.5-18.9-15.5h-78.1V412c0-8.5-8.5-15.5-18.9-15.5h-24.3v-19.9
				c0-8.5-8.5-15.5-18.9-15.5h-45.8v-19.9c0-8.5-8.5-15.5-18.9-15.5h-13.5v-46.5c0-3.7-3.6-6.6-8.1-6.6c-4.5,0-8.1,3-8.1,6.6v46.5
				h-37.7v-11.1c0-8.5-8.5-15.5-18.9-15.5h-10.8c-10.4,0-18.9,6.9-18.9,15.5V370H53.3c-10.4,0-18.9,6.9-18.9,15.5v159.3
				c0,3.7,3.6,6.6,8.1,6.6c4.5,0,8.1-3,8.1-6.6V385.5c0-1.2,1.2-2.2,2.7-2.2h67.4v234.5H83v-37.6c0-8.5-8.5-15.5-18.9-15.5h-75.5
				c-10.4,0-18.9,6.9-18.9,15.5v37.6h-2.7c-4.5,0-8.1,3-8.1,6.6c0,3.7,3.6,6.6,8.1,6.6h334.1c4.5,0,8.1-3,8.1-6.6
				c0-3.7-3.6-6.6-8.1-6.6H190.7v-7.3c0-17.4,11.4-33.7,29.9-42.4c2.5-1.2,4.1-3.4,4-5.8l0-0.4c0-15.5,15.4-28.1,34.3-28.1
				c16.2,0,30.4,9.5,33.6,22.5c0.8,3.1,4.1,5.3,7.9,5.3h0.8c32.9,0,59.7,22,59.7,49v7.3h-27.3c-4.5,0-8.1,3-8.1,6.6
				c0,3.7,3.6,6.6,8.1,6.6h129.3c4.5,0,8.1-3,8.1-6.6C471,620.8,467.4,617.8,462.9,617.8z M66.8,617.8h-80.8v-37.6
				c0-1.2,1.2-2.2,2.7-2.2h75.5c1.5,0,2.7,1,2.7,2.2L66.8,617.8L66.8,617.8z M255.4,374.4h45.8c1.5,0,2.7,1,2.7,2.2v19.9h-48.5
				V374.4z M136.9,314.7c0-1.2,1.2-2.2,2.7-2.2h10.8c1.5,0,2.7,1,2.7,2.2v11.1h-16.2L136.9,314.7L136.9,314.7z M444.1,617.8h-67
				v-7.3c0-32.9-31.2-59.8-70.5-62.1c-6.9-16.5-26-28-47.7-28c-26.5,0-48.2,16.8-50.3,38.1c-21.1,11.5-34,31-34,51.9v7.3h-37.7V339
				h99.7c1.5,0,2.7,1,2.7,2.2v159.3c0,3.7,3.6,6.6,8.1,6.6c4.5,0,8.1-3,8.1-6.6v-90.7h88.9c1.5,0,2.7,1,2.7,2.2v132.8
				c0,3.7,3.6,6.6,8.1,6.6c4.5,0,8.1-3,8.1-6.6v-90.7h78.1c1.5,0,2.7,1,2.7,2.2L444.1,617.8L444.1,617.8z"/>
			<path d="M398.2,520.5h-10.8c-4.5,0-8.1,3-8.1,6.6c0,3.7,3.6,6.6,8.1,6.6h10.8c4.5,0,8.1-3,8.1-6.6S402.7,520.5,398.2,520.5z"/>
			<path d="M312,423.1c-4.5,0-8.1,3-8.1,6.6v62c0,3.7,3.6,6.6,8.1,6.6c4.5,0,8.1-3,8.1-6.6v-62C320.1,426.1,316.5,423.1,312,423.1z"
				/>
		</g>
	</g>
</g>
</svg>
