<?xml version="1.0" encoding="utf-8"?>
<!-- Generator: Adobe Illustrator 19.0.0, SVG Export Plug-In . SVG Version: 6.00 Build 0)  -->
<svg version="1.1" id="Capa_1" xmlns="http://www.w3.org/2000/svg" xmlns:xlink="http://www.w3.org/1999/xlink" x="0px" y="0px"
	 viewBox="-103 105 52 52" style="enable-background:new -103 105 52 52;" xml:space="preserve">
<style type="text/css">
	.st0{fill:#030104;}
</style>
<g>
	<g>
		<path class="st0" d="M-73.3,112.7c0.2-0.3,0.3-0.6,0.3-0.9v-1.1c0-0.9-0.8-1.8-1.8-1.8h-5.1c-0.9,0-1.8,0.8-1.8,1.8v1.1
			c0,0.4,0.2,0.8,0.3,1c-9.2,2-16.1,10.2-16.1,19.9c0,11.2,9.2,20.4,20.4,20.4s20.4-9.2,20.4-20.4
			C-56.5,122.7-63.7,114.4-73.3,112.7z M-79.9,110.7l5.2,0.1v1.1c0,0,0,0.1-0.1,0.1l-5.2-0.1L-79.9,110.7z M-76.9,151.5
			c-10.3,0-18.7-8.4-18.7-18.7c0-10.3,8.4-18.7,18.7-18.7s18.7,8.4,18.7,18.7S-66.6,151.5-76.9,151.5z"/>
		<path class="st0" d="M-76.9,116.4c-9.1,0-16.4,7.4-16.4,16.4c0,9.1,7.4,16.4,16.4,16.4s16.4-7.4,16.4-16.4
			C-60.5,123.7-67.8,116.4-76.9,116.4z M-76.9,147.5c-8.2,0-14.7-6.6-14.7-14.7c0-8.2,6.6-14.7,14.7-14.7s14.7,6.6,14.7,14.7
			C-62.2,141-68.7,147.5-76.9,147.5z"/>
	</g>
</g>
<g>
	<g>
		<path d="M-86.9,128.8L-86.9,128.8l-1,0.5l-0.2-0.6l1.3-0.7h0.7v5.9h-0.8C-86.9,133.9-86.9,128.8-86.9,128.8z"/>
	</g>
	<path d="M-80.9,128.7h-2.2l-0.3,1.4c0.2,0,0.3,0,0.5,0c0.4,0,0.9,0.1,1.3,0.3c0.4,0.3,0.9,0.8,0.9,1.4c0,1.1-0.9,2-2.1,2
		c-0.6,0-1.2-0.2-1.4-0.3l0.2-0.6c0.3,0.2,0.7,0.3,1.2,0.3c0.8,0,1.4-0.5,1.4-1.3s-0.5-1.3-1.6-1.3c-0.3,0-0.6,0-0.8,0.1l0.3-2.7
		h2.7C-80.9,128.1-80.9,128.7-80.9,128.7z"/>
	<path d="M-77.9,130.2c0-0.3,0.3-0.6,0.5-0.6c0.3,0,0.5,0.3,0.5,0.6c0,0.3-0.2,0.5-0.5,0.5C-77.7,130.8-77.9,130.6-77.9,130.2z
		 M-77.9,133.4c0-0.3,0.3-0.6,0.5-0.6c0.3,0,0.5,0.3,0.5,0.6c0,0.3-0.2,0.5-0.5,0.5C-77.7,133.9-77.9,133.7-77.9,133.4z"/>
	<path d="M-70.4,130.9c0,2-0.8,3.1-2,3.1c-1.1,0-1.9-1-1.9-3s0.9-3,2-3C-71.1,128-70.4,129-70.4,130.9z M-73.6,131
		c0,1.5,0.4,2.4,1.2,2.4c0.8,0,1.2-0.9,1.2-2.4s-0.3-2.4-1.2-2.4C-73.1,128.6-73.6,129.4-73.6,131z"/>
	<path d="M-65.9,130.9c0,2-0.8,3.1-2,3.1c-1.1,0-1.9-1-1.9-3s0.9-3,2-3C-66.6,128-65.9,129-65.9,130.9z M-69,131
		c0,1.5,0.4,2.4,1.2,2.4s1.2-0.9,1.2-2.4s-0.3-2.4-1.2-2.4C-68.5,128.6-69,129.4-69,131z"/>
</g>
</svg>
