<?xml version="1.0" encoding="utf-8"?>
<!-- Generator: Adobe Illustrator 19.0.0, SVG Export Plug-In . SVG Version: 6.00 Build 0)  -->
<svg version="1.1" id="Layer_1" xmlns="http://www.w3.org/2000/svg" xmlns:xlink="http://www.w3.org/1999/xlink" x="0px" y="0px"
	 viewBox="-172.1 33.8 774.2 774.2" enable-background="new -172.1 33.8 774.2 774.2" xml:space="preserve">
<g>
	<g>
		<g>
			<path fill="#FFFFFF" d="M325.9,642.8H87c-4.7,0-8.5,3.8-8.5,8.5v17.1c0,4.7,3.8,8.5,8.5,8.5c4.7,0,8.5-3.8,8.5-8.5v-8.5h230.4
				c4.7,0,8.5-3.8,8.5-8.5C334.5,646.6,330.6,642.8,325.9,642.8z"/>
			<path fill="#FFFFFF" d="M146.7,378.2c0,4.7,3.8,8.5,8.5,8.5h34.1c4.7,0,8.5-3.8,8.5-8.5V327c0-4.7-3.8-8.5-8.5-8.5h-34.1
				c-4.7,0-8.5,3.8-8.5,8.5L146.7,378.2L146.7,378.2z M163.8,335.6h17.1v34.1h-17.1V335.6z"/>
			<path fill="#FFFFFF" d="M69.9,267.3H-32.5c-4.7,0-8.5,3.8-8.5,8.5v170.7c0,4.7,3.8,8.5,8.5,8.5s8.5-3.8,8.5-8.5V284.4h93.9
				c4.7,0,8.5-3.8,8.5-8.5S74.6,267.3,69.9,267.3z"/>
			<path fill="#FFFFFF" d="M368.6,583c0,4.7,3.8,8.5,8.5,8.5h34.1c4.7,0,8.5-3.8,8.5-8.5v-51.2c0-4.7-3.8-8.5-8.5-8.5h-34.1
				c-4.7,0-8.5,3.8-8.5,8.5V583z M385.7,540.4h17.1v34.1h-17.1V540.4z"/>
			<path fill="#FFFFFF" d="M1.7,472.1C-40.5,472.1-41,581.9-41,583c0,20.6,14.7,37.8,34.1,41.8v43.5c0,4.7,3.8,8.5,8.5,8.5
				s8.5-3.8,8.5-8.5v-43.5c19.4-4,34.1-21.2,34.1-41.8C44.3,581.9,43.8,472.1,1.7,472.1z M1.7,608.6c-14.1,0-25.6-11.5-25.6-25.6
				c0-42.5,11.4-93.9,25.6-93.9s25.6,51.4,25.6,93.9C27.3,597.1,15.8,608.6,1.7,608.6z"/>
			<path fill="#FFFFFF" d="M52.9,420.9H18.7c-4.7,0-8.5,3.8-8.5,8.5v17.1c0,4.7,3.8,8.5,8.5,8.5s8.5-3.8,8.5-8.5V438h17.1v42.7
				c0,4.7,3.8,8.5,8.5,8.5s8.5-3.8,8.5-8.5v-51.2C61.4,424.7,57.6,420.9,52.9,420.9z"/>
			<path fill="#FFFFFF" d="M377.1,386.8h34.1c4.7,0,8.5-3.8,8.5-8.5V327c0-4.7-3.8-8.5-8.5-8.5h-34.1c-4.7,0-8.5,3.8-8.5,8.5v51.2
				C368.6,382.9,372.4,386.8,377.1,386.8z M385.7,335.6h17.1v34.1h-17.1V335.6z"/>
			<path fill="#FFFFFF" d="M52.9,318.5H18.7c-4.7,0-8.5,3.8-8.5,8.5v51.2c0,4.7,3.8,8.5,8.5,8.5h34.1c4.7,0,8.5-3.8,8.5-8.5V327
				C61.4,322.3,57.6,318.5,52.9,318.5z M44.3,369.7H27.3v-34.1h17.1L44.3,369.7L44.3,369.7z"/>
			<path fill="#FFFFFF" d="M232.1,378.2c0,4.7,3.8,8.5,8.5,8.5h34.1c4.7,0,8.5-3.8,8.5-8.5V327c0-4.7-3.8-8.5-8.5-8.5h-34.1
				c-4.7,0-8.5,3.8-8.5,8.5L232.1,378.2L232.1,378.2z M249.1,335.6h17.1v34.1h-17.1L249.1,335.6L249.1,335.6z"/>
			<path fill="#FFFFFF" d="M462.5,267.3H360.1c-4.7,0-8.5,3.8-8.5,8.5s3.8,8.5,8.5,8.5h93.9v342.9c-2.7-1-5.5-1.6-8.5-1.6
				c-1.5,0-2.9,0.1-4.4,0.4c-5.9-10.6-17.1-17.5-29.7-17.5s-23.9,6.8-29.7,17.5c-1.4-0.3-2.9-0.4-4.4-0.4
				c-14.1,0-25.6,11.5-25.6,25.6s11.5,25.6,25.6,25.6h68.3c14.1,0,25.6-11.5,25.6-25.6V275.8C471,271.1,467.2,267.3,462.5,267.3z
				 M445.4,659.8h-68.3c-4.7,0-8.5-3.8-8.5-8.5c0-4.7,3.8-8.5,8.5-8.5c1.6,0,3.2,0.5,4.6,1.4c2.3,1.5,5.3,1.8,7.8,0.7
				c2.6-1,4.5-3.3,5.1-6c1.8-7.8,8.6-13.2,16.6-13.2s14.8,5.4,16.6,13.2c0.6,2.7,2.5,4.9,5.1,6c2.6,1,5.5,0.8,7.8-0.7
				c5.6-3.6,13.2,0.8,13.2,7.1C453.9,656,450.1,659.8,445.4,659.8z"/>
			<path fill="#FFFFFF" d="M240.6,284.4h34.1c4.7,0,8.5-3.8,8.5-8.5v-51.2c0-4.7-3.8-8.5-8.5-8.5h-34.1c-4.7,0-8.5,3.8-8.5,8.5v51.2
				C232.1,280.5,235.9,284.4,240.6,284.4z M249.1,233.2h17.1v34.1h-17.1L249.1,233.2L249.1,233.2z"/>
			<path fill="#FFFFFF" d="M232.1,480.6c0,4.7,3.8,8.5,8.5,8.5h34.1c4.7,0,8.5-3.8,8.5-8.5v-51.2c0-4.7-3.8-8.5-8.5-8.5h-34.1
				c-4.7,0-8.5,3.8-8.5,8.5L232.1,480.6L232.1,480.6z M249.1,438h17.1v34.1h-17.1L249.1,438L249.1,438z"/>
			<path fill="#FFFFFF" d="M155.3,284.4h34.1c4.7,0,8.5-3.8,8.5-8.5v-51.2c0-4.7-3.8-8.5-8.5-8.5h-34.1c-4.7,0-8.5,3.8-8.5,8.5v51.2
				C146.7,280.5,150.6,284.4,155.3,284.4z M163.8,233.2h17.1v34.1h-17.1V233.2z"/>
			<path fill="#FFFFFF" d="M208.9,577c-1.5,1.6-2.5,3.8-2.5,6.1s0.9,4.4,2.5,6.1c1.6,1.5,3.8,2.5,6.1,2.5c2.2,0,4.4-0.9,6.1-2.5
				c1.5-1.6,2.5-3.8,2.5-6.1s-0.9-4.4-2.5-6.1C217.8,573.8,212.2,573.8,208.9,577z"/>
			<path fill="#FFFFFF" d="M146.7,480.6c0,4.7,3.8,8.5,8.5,8.5h34.1c4.7,0,8.5-3.8,8.5-8.5v-51.2c0-4.7-3.8-8.5-8.5-8.5h-34.1
				c-4.7,0-8.5,3.8-8.5,8.5L146.7,480.6L146.7,480.6z M163.8,438h17.1v34.1h-17.1V438z"/>
			<path fill="#FFFFFF" d="M129.7,531.8c0,4.7,3.8,8.5,8.5,8.5h25.6v76.8c0,4.7,3.8,8.5,8.5,8.5s8.5-3.8,8.5-8.5v-76.8h68.3v76.8
				c0,4.7,3.8,8.5,8.5,8.5s8.5-3.8,8.5-8.5v-76.8h25.6c4.7,0,8.5-3.8,8.5-8.5c0-4.7-3.8-8.5-8.5-8.5H138.2
				C133.5,523.3,129.7,527.1,129.7,531.8z"/>
			<path fill="#FFFFFF" d="M368.6,480.6c0,4.7,3.8,8.5,8.5,8.5h34.1c4.7,0,8.5-3.8,8.5-8.5v-51.2c0-4.7-3.8-8.5-8.5-8.5h-34.1
				c-4.7,0-8.5,3.8-8.5,8.5V480.6z M385.7,438h17.1v34.1h-17.1V438z"/>
			<path fill="#FFFFFF" d="M325.9,164.9H104.1c-4.7,0-8.5,3.8-8.5,8.5v443.7c0,4.7,3.8,8.5,8.5,8.5s8.5-3.8,8.5-8.5V182h204.8v435.2
				c0,4.7,3.8,8.5,8.5,8.5s8.5-3.8,8.5-8.5V173.4C334.5,168.7,330.6,164.9,325.9,164.9z"/>
		</g>
	</g>
</g>
<path fill="#FDCF79" d="M585.1,50.8V791h-740.2V50.8H585.1 M602.1,33.8h-774.2V808h774.2V33.8L602.1,33.8z"/>
</svg>
