<?xml version="1.0" encoding="iso-8859-1"?>
<!-- Generator: Adobe Illustrator 19.0.0, SVG Export Plug-In . SVG Version: 6.00 Build 0)  -->
<svg version="1.1" id="Layer_1" xmlns="http://www.w3.org/2000/svg" xmlns:xlink="http://www.w3.org/1999/xlink" x="0px" y="0px"
	 viewBox="0 0 512 512" style="enable-background:new 0 0 512 512;" xml:space="preserve">
<g>
	<g>
		<path d="M297.811,257.216h-30.164l-0.003-66.751c0-8.802-7.135-15.936-15.936-15.936c-8.802,0-15.936,7.135-15.936,15.936
			l0.003,82.686c0,8.801,7.135,15.936,15.936,15.936h46.1c8.801,0,15.936-7.135,15.936-15.936
			C313.747,264.351,306.612,257.216,297.811,257.216z"/>
	</g>
</g>
<g>
	<g>
		<path d="M256,60.375C148.132,60.375,60.375,148.132,60.375,256S148.132,451.625,256,451.625S451.625,363.868,451.625,256
			S363.868,60.375,256,60.375z M384.109,357.873l-10.505-10.505c-6.223-6.224-16.313-6.224-22.537,0s-6.224,16.313,0,22.537
			l10.862,10.862c-24.77,21.062-55.862,34.896-89.993,38.208v-16.292c0-8.801-7.135-15.936-15.936-15.936
			s-15.936,7.135-15.936,15.936v16.293c-34.131-3.312-65.223-17.146-89.993-38.208l10.862-10.862c6.224-6.224,6.224-16.313,0-22.537
			c-6.223-6.224-16.313-6.224-22.537,0l-10.505,10.505c-19.913-24.988-32.684-55.904-35.188-89.635h12.916
			c8.801,0,15.936-7.135,15.936-15.936s-7.135-15.936-15.936-15.936H93.428c3.922-32.677,17.505-62.423,37.804-86.295l7.164,7.164
			c3.112,3.112,7.19,4.668,11.269,4.668c4.078,0,8.157-1.556,11.268-4.667c6.224-6.224,6.224-16.313,0-22.537l-6.807-6.807
			c24.072-19.182,53.645-31.734,85.938-34.867v8.897c0,8.801,7.135,15.936,15.936,15.936s15.936-7.135,15.936-15.936v-8.899
			c32.293,3.133,61.866,15.685,85.938,34.867l-6.807,6.807c-6.222,6.224-6.222,16.313,0,22.537c3.112,3.112,7.19,4.667,11.268,4.667
			c4.077,0,8.157-1.555,11.269-4.668l7.164-7.164c20.298,23.872,33.881,53.617,37.804,86.295h-12.191
			c-8.801,0-15.936,7.135-15.936,15.936s7.137,15.937,15.938,15.937h12.916C416.793,301.97,404.021,332.885,384.109,357.873z"/>
	</g>
</g>
<g>
	<g>
		<path d="M437.02,74.98C388.667,26.628,324.381,0,256,0S123.332,26.628,74.98,74.98S0,187.619,0,256s26.628,132.667,74.98,181.02
			C123.332,485.372,187.619,512,256,512s132.668-26.628,181.02-74.98S512,324.381,512,256S485.371,123.332,437.02,74.98z
			 M256,480.128C132.416,480.128,31.872,379.584,31.872,256S132.416,31.872,256,31.872S480.128,132.416,480.128,256
			S379.584,480.128,256,480.128z"/>
	</g>
</g>
<g>
</g>
<g>
</g>
<g>
</g>
<g>
</g>
<g>
</g>
<g>
</g>
<g>
</g>
<g>
</g>
<g>
</g>
<g>
</g>
<g>
</g>
<g>
</g>
<g>
</g>
<g>
</g>
<g>
</g>
</svg>
