<?xml version="1.0" encoding="utf-8"?>
<!-- Generator: Adobe Illustrator 19.0.0, SVG Export Plug-In . SVG Version: 6.00 Build 0)  -->
<svg version="1.1" id="Слой_1" xmlns="http://www.w3.org/2000/svg" xmlns:xlink="http://www.w3.org/1999/xlink" x="0px" y="0px"
	 viewBox="0 0 202.2 121.4" style="enable-background:new 0 0 202.2 121.4;" xml:space="preserve">
<path id="XMLID_161_" d="M38.5,86.1c-0.2,0-0.3,0-0.5-0.1l-1.9-1.1c-0.3-0.2-0.5-0.5-0.5-0.9V68.6c0-0.6,0.4-1,1-1s1,0.4,1,1v14.9
	l1.4,0.8c0.5,0.3,0.6,0.9,0.4,1.4C39.2,85.9,38.9,86.1,38.5,86.1z M37.6,50.5V12.9L63.9,2.1l30,10.1V20c0,0.6,0.4,1,1,1s1-0.4,1-1
	v-8.5c0-0.4-0.3-0.8-0.7-0.9l-31-10.5C64,0,63.7,0,63.5,0.1L36.2,11.3c-0.4,0.2-0.6,0.5-0.6,0.9v38.3c0,0.6,0.4,1,1,1
	S37.6,51.1,37.6,50.5z M71.7,98.8c0.3-0.2,0.5-0.5,0.5-0.8V24.4c0-0.4-0.3-0.8-0.7-0.9L37,11.3c-0.5-0.2-1.1,0.1-1.3,0.6
	c-0.2,0.5,0.1,1.1,0.6,1.3l33.9,11.9v71.2l-7.8-3.5c-0.5-0.2-1.1,0-1.3,0.5c-0.2,0.5,0,1.1,0.5,1.3l9.2,4.2c0.1,0.1,0.3,0.1,0.4,0.1
	C71.4,98.9,71.6,98.9,71.7,98.8z M71.7,25.3l23.7-12.9c0.5-0.3,0.7-0.9,0.4-1.4s-0.9-0.7-1.4-0.4L70.7,23.5
	c-0.5,0.3-0.7,0.9-0.4,1.4c0.2,0.3,0.5,0.5,0.9,0.5C71.4,25.4,71.5,25.4,71.7,25.3z M71.2,97.9 M71.8,98.7l6.3-4.5
	c0.5-0.3,0.6-0.9,0.2-1.4c-0.3-0.4-0.9-0.6-1.4-0.2l-6.3,4.5c-0.5,0.3-0.6,0.9-0.2,1.4c0.2,0.3,0.5,0.4,0.8,0.4
	C71.4,98.9,71.6,98.9,71.8,98.7z M164.6,72l5.6-2.9c0.3-0.2,0.5-0.5,0.5-0.9V46.6c0-0.4-0.2-0.7-0.6-0.9l-18-8.7
	c-0.3-0.1-0.6-0.1-0.9,0l-15.7,7.7c-0.5,0.2-0.7,0.8-0.5,1.3c0.2,0.5,0.8,0.7,1.3,0.5l15.2-7.5l17,8.2v20.4l-5.1,2.6
	c-0.5,0.3-0.7,0.9-0.4,1.3c0.2,0.3,0.5,0.5,0.9,0.5C164.3,72.2,164.4,72.1,164.6,72z M86.4,102.3c0.2-0.5-0.1-1.1-0.7-1.2l-7.2-2.2
	V28.7l25.9-10.9l29.3,8.7v59.9c0,0.3,0.2,0.7,0.5,0.9c0.3,0.2,0.7,0.2,1,0l21.5-11.2c0.5-0.3,0.7-0.9,0.4-1.3
	c-0.3-0.5-0.9-0.7-1.3-0.4l-20.1,10.4v-59c0-0.4-0.3-0.8-0.7-1l-30.3-9c-0.2-0.1-0.5-0.1-0.7,0L77.2,27.2c-0.4,0.2-0.6,0.5-0.6,0.9
	v71.5c0,0.4,0.3,0.8,0.7,1l7.9,2.4c0.1,0,0.2,0,0.3,0C85.9,103,86.3,102.7,86.4,102.3z M112.9,113.4l11.3-6.5
	c0.5-0.3,0.6-0.9,0.4-1.4c-0.3-0.5-0.9-0.6-1.4-0.4l-9.8,5.6v-71l21.9-13.2c0.5-0.3,0.6-0.9,0.3-1.4c-0.3-0.5-0.9-0.6-1.4-0.3
	l-22.3,13.5c-0.3,0.2-0.5,0.5-0.5,0.9v73.3c0,0.4,0.2,0.7,0.5,0.9c0.2,0.1,0.3,0.1,0.5,0.1S112.7,113.5,112.9,113.4z M113.3,39.6
	c0.2-0.5-0.1-1.1-0.6-1.3L77.8,27.1c-0.5-0.2-1.1,0.1-1.3,0.6c-0.2,0.5,0.1,1.1,0.6,1.3l34.8,11.2c0.1,0,0.2,0,0.3,0
	C112.8,40.3,113.2,40,113.3,39.6z M85.1,101.6V39.7l18.3,6.6v44c0,0.6,0.4,1,1,1s1-0.4,1-1V45.6c0-0.4-0.3-0.8-0.7-0.9l-20.3-7.3
	c-0.3-0.1-0.6-0.1-0.9,0.1c-0.3,0.2-0.4,0.5-0.4,0.8v63.4c0,0.6,0.4,1,1,1S85.1,102.2,85.1,101.6z M112.8,51.8l22.3-11.7
	c0.5-0.3,0.7-0.9,0.4-1.3c-0.3-0.5-0.9-0.7-1.3-0.4L111.9,50c-0.5,0.3-0.7,0.9-0.4,1.3c0.2,0.3,0.5,0.5,0.9,0.5
	C112.5,51.9,112.7,51.9,112.8,51.8z M112.9,64.5l22.3-12.7c0.5-0.3,0.6-0.9,0.4-1.4s-0.9-0.6-1.4-0.4l-22.3,12.7
	c-0.5,0.3-0.6,0.9-0.4,1.4c0.2,0.3,0.5,0.5,0.9,0.5C112.5,64.6,112.7,64.5,112.9,64.5z M112.8,76.5l22.3-12l35-17
	c0.5-0.2,0.7-0.8,0.5-1.3c-0.2-0.5-0.8-0.7-1.3-0.5l-35,17l-22.3,12c-0.5,0.3-0.7,0.9-0.4,1.4c0.2,0.3,0.5,0.5,0.9,0.5
	C112.5,76.6,112.7,76.5,112.8,76.5z M112.9,90.5L170.2,59c0.5-0.3,0.7-0.9,0.4-1.4c-0.3-0.5-0.9-0.7-1.4-0.4l-57.3,31.5
	c-0.5,0.3-0.7,0.9-0.4,1.4c0.2,0.3,0.5,0.5,0.9,0.5C112.5,90.6,112.7,90.5,112.9,90.5z M112.9,102.5l16-9.3c0.5-0.3,0.6-0.9,0.4-1.4
	c-0.3-0.5-0.9-0.6-1.4-0.4l-16,9.3c-0.5,0.3-0.6,0.9-0.4,1.4c0.2,0.3,0.5,0.5,0.9,0.5C112.5,102.6,112.7,102.6,112.9,102.5z
	 M124.2,101.6c0.6,0,1-0.5,1-1l-0.7-68.1c0-0.5-0.5-1-1-1c0,0,0,0,0,0c-0.6,0-1,0.5-1,1l0.7,68.1
	C123.2,101.1,123.7,101.6,124.2,101.6C124.2,101.6,124.2,101.6,124.2,101.6z M153,77.9c0.6,0,1-0.5,1-1L153.2,55c0-0.6-0.5-1-1-1
	c-0.6,0-1,0.5-1,1L152,77C152,77.5,152.4,77.9,153,77.9C153,77.9,153,77.9,153,77.9z M94.8,89.8v-48c0-0.6-0.4-1-1-1s-1,0.4-1,1v48
	c0,0.6,0.4,1,1,1S94.8,90.3,94.8,89.8z M105.3,57.6c0.2-0.5-0.1-1.1-0.6-1.3l-20.3-7.8c-0.5-0.2-1.1,0.1-1.3,0.6s0.1,1.1,0.6,1.3
	l20.3,7.8c0.1,0,0.2,0.1,0.4,0.1C104.8,58.3,105.2,58,105.3,57.6z M105.3,67.4c0.2-0.5-0.1-1.1-0.6-1.3l-20.3-7.6
	c-0.5-0.2-1.1,0.1-1.3,0.6c-0.2,0.5,0.1,1.1,0.6,1.3L104,68c0.1,0,0.2,0.1,0.3,0.1C104.8,68.1,105.2,67.8,105.3,67.4z M105.3,77.3
	c0.2-0.5-0.1-1.1-0.6-1.3l-20.3-7.8c-0.5-0.2-1.1,0.1-1.3,0.6c-0.2,0.5,0.1,1.1,0.6,1.3l20.3,7.8c0.1,0,0.2,0.1,0.4,0.1
	C104.8,77.9,105.2,77.7,105.3,77.3z M105.3,87.4c0.2-0.5-0.1-1.1-0.6-1.3l-20.3-7.3c-0.5-0.2-1.1,0.1-1.3,0.6
	c-0.2,0.5,0.1,1.1,0.6,1.3L104,88c0.1,0,0.2,0.1,0.3,0.1C104.8,88.1,105.2,87.8,105.3,87.4z M90.9,92.6c0.2-0.5,0-1.1-0.5-1.3
	l-5.8-2.6c-0.5-0.2-1.1,0-1.3,0.5c-0.2,0.5,0,1.1,0.5,1.3l5.8,2.6c0.1,0.1,0.3,0.1,0.4,0.1C90.3,93.2,90.7,92.9,90.9,92.6z
	 M64.8,94.5V30.4c0-0.4-0.3-0.8-0.7-0.9L43.9,22c-0.3-0.1-0.7-0.1-0.9,0.1s-0.4,0.5-0.4,0.8v52c0,0.6,0.4,1,1,1s1-0.4,1-1V24.4
	l18.3,6.8v63.4c0,0.6,0.4,1,1,1C64.4,95.5,64.8,95.1,64.8,94.5z M112.8,34.6l11.8-5.6c0.4-0.2,0.6-0.6,0.6-1c0-0.4-0.3-0.8-0.7-0.9
	l-19.8-6.8c-0.2-0.1-0.5-0.1-0.7,0l-13.2,5.5c-0.4,0.2-0.6,0.5-0.6,1c0,0.4,0.3,0.8,0.7,0.9l21.2,6.9c0.1,0,0.2,0,0.3,0
	C112.5,34.7,112.7,34.6,112.8,34.6z M104.4,22.3l17.1,5.9l-9.3,4.4l-18.2-6L104.4,22.3z M70.8,18.9l12-5.7c0.4-0.2,0.6-0.6,0.6-1
	c0-0.4-0.3-0.8-0.7-0.9l-18.6-6c-0.2-0.1-0.5-0.1-0.7,0l-12.6,5.3c-0.4,0.2-0.6,0.5-0.6,1c0,0.4,0.3,0.8,0.7,0.9l19.2,6.5
	c0.1,0,0.2,0.1,0.3,0.1C70.5,19,70.7,18.9,70.8,18.9z M63.8,7.3l15.8,5.1l-9.4,4.5L54,11.4L63.8,7.3z M53.8,73.1V26.4
	c0-0.6-0.4-1-1-1s-1,0.4-1,1v46.7c0,0.6,0.4,1,1,1S53.8,73.6,53.8,73.1z M64.7,42.1c0.2-0.5,0-1.1-0.6-1.3l-20.3-8.1
	c-0.5-0.2-1.1,0-1.3,0.6c-0.2,0.5,0,1.1,0.6,1.3l20.3,8.1c0.1,0,0.2,0.1,0.4,0.1C64.2,42.8,64.6,42.5,64.7,42.1z M64.7,52.3
	c0.2-0.5-0.1-1.1-0.6-1.3l-20.3-7.8c-0.5-0.2-1.1,0.1-1.3,0.6s0.1,1.1,0.6,1.3l20.3,7.8c0.1,0,0.2,0.1,0.4,0.1
	C64.2,52.9,64.6,52.7,64.7,52.3z M64.7,62.4c0.2-0.5-0.1-1.1-0.6-1.3l-20.3-7.8c-0.5-0.2-1.1,0.1-1.3,0.6c-0.2,0.5,0.1,1.1,0.6,1.3
	L63.4,63c0.1,0,0.2,0.1,0.4,0.1C64.2,63.1,64.6,62.8,64.7,62.4z M64.7,72.4c0.2-0.5-0.1-1.1-0.6-1.3l-20.3-7.8
	c-0.5-0.2-1.1,0.1-1.3,0.6c-0.2,0.5,0.1,1.1,0.6,1.3L63.4,73c0.1,0,0.2,0.1,0.4,0.1C64.2,73.1,64.6,72.8,64.7,72.4z M9.6,92.7
	c0.6,0,1-0.5,1-1l-0.2-9.8c0-0.4-0.3-0.8-0.7-1c-0.1,0-5.7-1.5-7.3-5.1c-0.7-1.6-0.4-3.4,0.7-5.4c0.1-0.2,0.1-0.4,0.1-0.6
	c-0.2-1.7-0.5-5.7,1.7-7.5c1.4-1.2,3.7-1.3,6.8-0.3c0.5,0.2,1.1-0.1,1.3-0.7c0.2-0.5-0.1-1.1-0.7-1.3c-3.8-1.2-6.7-1-8.7,0.6
	c-2.7,2.2-2.7,6.4-2.5,9c-1.3,2.5-1.5,4.8-0.6,6.9c1.6,3.7,6.1,5.5,7.9,6.1l0.2,9.1C8.6,92.3,9,92.7,9.6,92.7
	C9.5,92.7,9.6,92.7,9.6,92.7z M9.4,82.9c10.1-0.5,10.8-8.9,10.8-9c0-0.6-0.4-1-0.9-1.1c-0.5,0-1,0.4-1.1,0.9c0,0.3-0.5,6.7-8.9,7.2
	c-0.6,0-1,0.5-0.9,1.1C8.4,82.5,8.8,82.9,9.4,82.9C9.4,82.9,9.4,82.9,9.4,82.9z M26.7,91V75.3c0,0,0.1-0.1,0.1-0.1
	c0.4-0.2,1.2-0.5,2.9-1.2c2.7-1,5.5-3,7.6-5.3c1.2-1.3,2.7-3.3,3-5.3c0.3-2.1-0.5-4.2-1.3-6.2c-0.7-1.7-1.4-3.5-1.4-5.3
	c0-0.4,0-0.8-0.1-1.2c-0.9-4.4-6.2-7.8-11.8-7.6c-2.1,0.1-4.1,1-5.6,2.7c-2.2,2.5-3.2,6.1-3.1,8.7c-3,1.8-4.6,3.6-5.2,5.8
	c-0.7,2.5,0.1,5.4,2.4,9.4c3.2,5.5,8.2,6.1,10.5,6.1c0,0,0,0,0,0V91c0,0.6,0.4,1,1,1S26.7,91.6,26.7,91z M35.5,51.1
	c0.1,0.3,0.1,0.5,0.1,0.8c0,2.1,0.8,4.1,1.5,6c0.7,1.9,1.4,3.7,1.2,5.2c-0.2,1.2-1.1,2.7-2.5,4.2c-1.9,2-4.5,3.8-6.9,4.8
	c-2.1,0.8-3.2,1.2-3.7,1.7c-1.3,0.1-6.3,0.1-9.4-5.1c-2-3.5-2.7-5.9-2.2-7.8c0.5-1.8,2-3.3,4.8-4.9c0.3-0.2,0.5-0.6,0.5-1
	c-0.2-1.9,0.5-5.5,2.6-7.9c1.1-1.3,2.5-2,4.1-2c0.1,0,0.2,0,0.3,0C30.9,45.1,34.9,48.2,35.5,51.1z M188.2,86.7V71.1
	c0,0,0.1-0.1,0.1-0.1c0.4-0.2,1.2-0.5,2.9-1.2c4.6-1.8,10-6.6,10.6-10.6c0.3-2.1-0.5-4.2-1.3-6.2c-0.7-1.7-1.4-3.5-1.4-5.3
	c0-1.8-0.9-3.7-2.5-5.3c-2.4-2.3-5.9-3.6-9.4-3.5c-2.1,0.1-4.1,1-5.6,2.7c-2.2,2.4-3.2,6.1-3.1,8.7c-3,1.8-4.6,3.6-5.2,5.8
	c-0.7,2.5,0.1,5.4,2.4,9.4c3.2,5.5,8.2,6.1,10.5,6.1c0,0,0,0,0,0v15.2c0,0.6,0.4,1,1,1S188.2,87.3,188.2,86.7z M195.2,43.8
	c1.2,1.2,1.9,2.6,1.9,3.9c0,2.1,0.8,4.1,1.5,6c0.7,1.9,1.4,3.7,1.2,5.2c-0.4,2.9-5,7.3-9.4,9c-2.1,0.8-3.2,1.2-3.7,1.7
	c-1.3,0.1-6.3,0.1-9.4-5.1c-2-3.5-2.7-5.9-2.2-7.8c0.5-1.8,2-3.3,4.8-4.9c0.3-0.2,0.5-0.6,0.5-1c-0.2-1.9,0.5-5.5,2.6-7.9
	c1.1-1.3,2.5-2,4.1-2c0.1,0,0.2,0,0.3,0C190.4,40.8,193.3,41.9,195.2,43.8z M50.8,104.4C50.8,104.4,50.8,104.4,50.8,104.4
	c5.5,0,10.8-6.5,12.3-12.4c1.1-4.3-2.1-5.2-3.6-5.7c-0.2-0.1-0.4-0.1-0.6-0.2c2.1-3,2.3-3.9,0.1-9.5c-1.7-4.3-2.9-4.5-6.3-4.1
	c-1.1,0.2-2.6,0.3-4.5,0.3c-7.7,0-8.1,7.1-8.2,10.9c-5.7,2.3-4.7,6.4-3.5,11.6c0.3,1.2,0.6,2.4,0.8,3.8c0.4,2.1,1.4,3.7,3.1,4.7
	c1.6,1,3.6,1.3,5.4,1.3C48.1,105.1,50.2,104.6,50.8,104.4z M57,77.3c2,5.1,1.8,5.3,0.1,7.7c-0.5,0.6-0.6,1.2-0.4,1.8
	c0.3,0.9,1.2,1.2,2.1,1.4c1.8,0.6,2.8,1,2.2,3.3c-1.3,5.2-6.1,11.1-10.4,10.9c-0.1,0-0.2,0-0.3,0c-0.1,0-5.7,1.6-9-0.4
	c-1.2-0.7-1.9-1.8-2.2-3.4c-0.3-1.4-0.6-2.7-0.8-3.9c-1.2-5.4-1.8-7.9,2.9-9.5c0.4-0.1,0.7-0.5,0.7-0.9c0-5.8,1-9.6,6.2-9.6
	c2,0,3.6-0.2,4.7-0.4c0.7-0.1,1.2-0.2,1.6-0.2C55.7,74.3,56.1,74.9,57,77.3z M98.3,120.7C98.4,120.7,98.4,120.7,98.3,120.7
	c5.5,0,10.8-6.5,12.3-12.4c1.1-4.3-2.1-5.2-3.6-5.7c-0.2-0.1-0.4-0.1-0.6-0.2c2.1-3,2.3-3.9,0.1-9.5c-1.7-4.3-2.9-4.6-6.3-4.1
	c-1.1,0.2-2.6,0.3-4.5,0.3c-7.7,0-8.1,7.1-8.2,10.9c-5.7,2.3-4.7,6.4-3.5,11.6c0.3,1.2,0.6,2.4,0.8,3.8c0.4,2.1,1.4,3.7,3.1,4.7
	c1.6,1,3.6,1.3,5.4,1.3C95.7,121.4,97.7,120.9,98.3,120.7z M104.6,93.6c2,5.1,1.8,5.3,0.1,7.7c-0.5,0.6-0.6,1.2-0.4,1.8
	c0.3,0.9,1.2,1.2,2.1,1.4c1.8,0.6,2.8,1,2.2,3.3c-1.3,5.2-6.1,11.1-10.4,10.9c-0.1,0-0.2,0-0.3,0c-0.1,0-5.7,1.6-9-0.4
	c-1.2-0.7-1.9-1.8-2.2-3.4c-0.3-1.4-0.6-2.7-0.8-3.9c-1.2-5.4-1.8-7.9,2.9-9.5c0.4-0.1,0.7-0.5,0.7-0.9c0-5.8,1-9.6,6.2-9.6
	c2,0,3.6-0.2,4.7-0.4c0.7-0.1,1.2-0.2,1.6-0.2C103.3,90.6,103.7,91.2,104.6,93.6z M138.1,117.3C138.1,117.3,138.2,117.3,138.1,117.3
	c5.5,0,10.8-6.5,12.3-12.4c1.1-4.3-2.1-5.2-3.6-5.7c-0.2-0.1-0.4-0.1-0.6-0.2c2.1-3,2.3-3.9,0.1-9.5c-1.7-4.3-2.9-4.5-6.3-4.1
	c-1.1,0.2-2.6,0.3-4.5,0.3c-7.7,0-8.1,7.1-8.2,10.9c-5.7,2.3-4.7,6.4-3.5,11.6c0.3,1.2,0.6,2.4,0.8,3.8c0.4,2.1,1.4,3.7,3.1,4.7
	c1.6,1,3.6,1.3,5.4,1.3C135.4,118,137.5,117.5,138.1,117.3z M144.4,90.2c2,5.1,1.8,5.3,0.1,7.7c-0.5,0.6-0.6,1.2-0.4,1.8
	c0.3,0.9,1.2,1.2,2.1,1.4c1.8,0.6,2.8,1,2.2,3.3c-1.3,5.2-6.1,11.1-10.4,10.9c-0.1,0-0.2,0-0.3,0c-0.1,0-5.7,1.6-9-0.4
	c-1.2-0.7-1.9-1.8-2.2-3.4c-0.3-1.4-0.6-2.7-0.8-3.9c-1.2-5.4-1.8-7.9,2.9-9.5c0.4-0.1,0.7-0.5,0.7-0.9c0-5.8,1-9.6,6.2-9.6
	c2,0,3.6-0.2,4.7-0.4c0.7-0.1,1.2-0.2,1.6-0.2C143.1,87.2,143.4,87.8,144.4,90.2z M165.5,101.9C165.5,101.9,165.5,101.9,165.5,101.9
	c5.5,0,10.8-6.5,12.3-12.4c1.1-4.3-2.1-5.2-3.6-5.7c-0.2-0.1-0.4-0.1-0.6-0.2c2.1-3,2.3-3.9,0.1-9.5c-1.7-4.3-2.9-4.6-6.3-4.1
	c-1.1,0.2-2.6,0.3-4.5,0.3c-7.7,0-8.1,7.1-8.2,10.9c-5.7,2.3-4.7,6.4-3.5,11.6c0.3,1.2,0.6,2.4,0.8,3.8c0.4,2.1,1.4,3.7,3.1,4.7
	c1.6,1,3.6,1.3,5.4,1.3C162.8,102.6,164.9,102.1,165.5,101.9z M171.8,74.8c2,5.1,1.8,5.3,0.1,7.7c-0.5,0.6-0.6,1.2-0.4,1.8
	c0.3,0.9,1.2,1.2,2.1,1.4c1.8,0.6,2.8,1,2.2,3.3c-1.3,5.2-6.1,11-10.4,10.9c-0.1,0-0.2,0-0.3,0c-0.1,0-5.7,1.6-9-0.4
	c-1.2-0.7-1.9-1.8-2.2-3.4c-0.3-1.4-0.6-2.7-0.8-3.9c-1.2-5.4-1.8-7.9,2.9-9.5c0.4-0.1,0.7-0.5,0.7-0.9c0-5.8,1-9.6,6.2-9.6
	c2,0,3.6-0.2,4.7-0.4c0.7-0.1,1.2-0.2,1.6-0.2C170.5,71.8,170.8,72.4,171.8,74.8z"/>
</svg>
