<?xml version="1.0" encoding="utf-8"?>
<!-- Generator: Adobe Illustrator 19.0.0, SVG Export Plug-In . SVG Version: 6.00 Build 0)  -->
<svg version="1.1" id="Слой_1" xmlns="http://www.w3.org/2000/svg" xmlns:xlink="http://www.w3.org/1999/xlink" x="0px" y="0px"
	 viewBox="-28 70.6 202.2 121.4" style="enable-background:new -28 70.6 202.2 121.4;" xml:space="preserve">
<path d="M107.4,164.1c-0.3,0-0.7-0.1-0.9-0.4c-1-1.1-9.2-10.3-7-15.8L89,137c-0.5-0.5-0.5-1.3,0-1.8c0.5-0.5,1.3-0.5,1.8,0
	l11.1,11.5c0.4,0.4,0.5,1.1,0.1,1.6c-1.9,2.8,2.8,9.8,6.3,13.6c0.5,0.5,0.4,1.3-0.1,1.8C108,163.9,107.7,164.1,107.4,164.1z
	 M155.3,163.7c0.3-0.2,6.1-5.4,7.3-16.1c1.2-10.6-9.9-19.8-13.5-21c-1.1-0.7-8.4-4.6-18.2-4.3c-0.7,0-1.2,0.6-1.2,1.2V146H101
	c-0.7,0-1.3,0.6-1.3,1.3s0.6,1.3,1.3,1.3h30c0.7,0,1.3-0.6,1.3-1.3v-22.4c9.1,0,15.7,4,15.8,4c0.1,0.1,0.2,0.1,0.3,0.1
	c2.1,0.6,12.9,8.9,11.8,18.4c-1.1,9.6-6.4,14.4-6.5,14.5c-0.5,0.5-0.6,1.2-0.1,1.8c0.2,0.3,0.6,0.4,0.9,0.4
	C154.8,164.1,155.1,163.9,155.3,163.7z M162.6,147.5c0-0.7-0.6-1.3-1.3-1.3H137c-0.7,0-1.3,0.6-1.3,1.3s0.6,1.3,1.3,1.3h24.4
	C162.1,148.8,162.6,148.2,162.6,147.5z M128.7,175.9c0-6.5-5.3-11.8-11.8-11.8s-11.8,5.3-11.8,11.8c0,6.5,5.3,11.8,11.8,11.8
	S128.7,182.4,128.7,175.9z M126.2,175.9c0,5.1-4.2,9.3-9.3,9.3s-9.3-4.2-9.3-9.3s4.2-9.3,9.3-9.3S126.2,170.8,126.2,175.9z
	 M156.7,175.9c0-6.5-5.3-11.8-11.8-11.8s-11.8,5.3-11.8,11.8c0,6.5,5.3,11.8,11.8,11.8S156.7,182.4,156.7,175.9z M154.2,175.9
	c0,5.1-4.2,9.3-9.3,9.3s-9.3-4.2-9.3-9.3s4.2-9.3,9.3-9.3S154.2,170.8,154.2,175.9z"/>
<path d="M59.2,173c-0.2,0-0.3,0-0.5-0.1l0,0c-0.2,0.1-0.3,0.1-0.5,0.1c-0.5,0-1-0.3-1.2-0.8l-33.1-13.7c-0.5-0.2-0.8-0.6-0.8-1.2
	v-3.3c0-0.7,0.6-1.3,1.3-1.3s1.3,0.6,1.3,1.3v2.4l31.3,12.9v-70L24.5,87.9l0.1,25.2c0,0.7-0.6,1.3-1.2,1.3c0,0,0,0,0,0
	c-0.7,0-1.2-0.6-1.3-1.2l-0.1-27c0-0.1,0-0.2,0-0.4c0-0.1,0-0.1,0.1-0.2c0.1-0.2,0.3-0.4,0.4-0.5h0c0,0,0,0,0,0
	c0.1,0,0.1-0.1,0.2-0.1c0,0,0,0,0.1,0l26.3-9.6c0.3-0.1,0.5-0.1,0.8,0L82,84.9c0.2,0,0.3,0.1,0.5,0.2c0,0,0.1,0.1,0.1,0.1v0
	c0,0,0,0,0,0c0.2,0.2,0.3,0.5,0.3,0.8c0,0,0,0,0,0.1v10.8l32.2-14.3c0.3-0.1,0.6-0.1,0.9,0l27,9.3c0.5,0.2,0.8,0.6,0.8,1.2v9.1
	c0,0,0,0,0,0.1v18.5c0,0.7-0.6,1.3-1.3,1.3s-1.3-0.6-1.3-1.3v-16.5l-13.3,6.7v9.7c0,0.7-0.6,1.3-1.3,1.3s-1.3-0.6-1.3-1.3v-8.5
	l-12.6,6.4v23.6l10.8-5.7c0.6-0.3,1.4-0.1,1.7,0.5c0.3,0.6,0.1,1.4-0.5,1.7l-11.9,6.3c-0.6,0.3-1.4,0.1-1.7-0.5
	c0-0.1-0.1-0.1-0.1-0.2c-0.5-0.2-0.8-0.6-0.8-1.2v-23.2l-12.7,6.4v9.8c0,0.7-0.6,1.3-1.3,1.3s-1.3-0.6-1.3-1.3v-8.5l-11.4,5.7
	c-0.3,0.2-0.7,0.2-1,0.1v8.7c0,0,0,0,0,0.1v15.5l11.6-6.2c0.6-0.3,1.4-0.1,1.7,0.5c0.3,0.6,0.1,1.4-0.5,1.7l-13,6.9
	c-0.2,0.3-0.6,0.6-1,0.6c0,0,0,0,0,0l-21.9,11.7C59.6,173,59.4,173,59.2,173z M59.4,154.8v15.4l10.2-5.4v-15l-9.5,4.9
	C59.8,154.8,59.6,154.9,59.4,154.8z M72,148.5v14.9l8.4-4.5v-14.8L72,148.5z M59.4,136.2v16l10.2-5.2v-15.8l-9.8,4.9
	C59.6,136.2,59.5,136.2,59.4,136.2z M72,130v15.8l8.4-4.3v-15.7L72,130z M59.4,119.7v13.8l10.2-5.1v-13.8l-9.5,4.9
	C59.8,119.7,59.6,119.7,59.4,119.7z M82.9,124.5v6.6l13-6.6c0,0,0,0,0.1,0l15.2-7.7c0,0,0,0,0,0l15.1-7.6c0,0,0,0,0.1,0l15.1-7.6
	v-6.1L82.9,124.5z M72,113.4v13.8l8.4-4.2v-13.9L72,113.4z M82.9,117v4.7l56.8-28.3l-24-8.3L82.9,99.7v5.2l32.4-15.3
	c0.3-0.1,0.6-0.2,0.9-0.1l11.6,4c0.5,0.2,0.8,0.6,0.8,1.1c0,0.5-0.3,1-0.7,1.2L82.9,117z M59.4,99.4v17.7l10.2-5.2V94L59.4,99.4z
	 M82.9,107.7v6.5l41.2-19.3l-8.2-2.8l-32,15.1c-0.2,0.1-0.5,0.1-0.7,0.1C83.1,107.5,83,107.6,82.9,107.7z M72,92.6v17.9l8.4-4.3
	V88.2L72,92.6z M26.9,86.1L58,97.2l12.1-6.5c0,0,0,0,0.1,0l8.2-4.3l-28.8-8.6L26.9,86.1z M50.8,158.9c-0.2,0-0.3,0-0.5-0.1
	l-13.5-5.1c-0.5-0.2-0.8-0.6-0.8-1.2c0,0,0.2-1.6,2.3-1l0.2,0.1l11,4.1v-49.4l-17-6.2v19.8c0,0.7-0.6,1.3-1.3,1.3s-1.3-0.6-1.3-1.3
	V98.3c0-0.4,0.2-0.8,0.5-1c0.3-0.2,0.8-0.3,1.1-0.1l19.5,7.2c0.5,0.2,0.8,0.6,0.8,1.2v52.2c0,0.4-0.2,0.8-0.6,1
	C51.3,158.8,51.1,158.9,50.8,158.9z M57.8,94.3c-0.1,0-0.3,0-0.4-0.1l-20.4-7c-0.5-0.2-0.8-0.6-0.8-1.2c0-0.5,0.3-1,0.8-1.2L49,80.2
	c0.3-0.1,0.5-0.1,0.8,0l19.9,6c0.5,0.1,0.8,0.6,0.9,1.1s-0.2,1-0.7,1.2l-11.6,5.7C58.1,94.3,57.9,94.3,57.8,94.3z M41,86l16.7,5.7
	l8.3-4.1l-16.4-5L41,86z"/>
<g>
	<g id="Layer_1_17_">
		<path d="M36.3,133.1c0-0.3,0-0.5,0-0.7c0-3.6-2.9-6.5-6.5-6.5h-0.1c-0.6-3.6-3.7-6.4-7.5-6.4c-1.1,0-2.1,0.2-3.1,0.7
			c-2.1-2.4-5.2-3.8-8.4-3.8c-5.3,0-9.8,3.7-10.9,8.7c-4.4-0.3-8.3,3.1-8.6,7.4c-4.6,0.2-8.2,4-8.2,8.6c0,4.7,3.9,8.6,8.6,8.6
			c1.5,0,2.9-0.4,4.2-1.1c1.4,1.9,3.6,3.1,6,3.3c0.3,0,0.6,0,0.9,0c0.3,0,0.6,0,0.9,0c2.3-0.2,4.4-1.4,5.8-3.2
			c0.9,2.4,1.6,5.2,1.6,8.5v9.1c-0.1-0.1-0.3-0.2-0.4-0.3c-0.3-2.5-2.4-4.4-5-4.4c-1.7,0-3.2,0.9-4.1,2.2c-0.4-0.2-0.8-0.3-1.3-0.3
			c-1.6,0-3,1.1-3.3,2.7c-0.9,0.2-1.7,0.7-2.3,1.4c-0.4-0.1-0.8-0.2-1.2-0.2c-2.5,0-4.5,2-4.5,4.5c0,1.1,0.4,3.5,4.5,3.5
			c0.6,0,1.3-0.1,1.8-0.4c1.6,1,3.7,0.9,5.2-0.1c0.8,0.5,1.7,0.8,2.6,0.8h0.8c0.7,0,1.8,0,2.7-0.7c0.5,0.2,1,0.3,1.6,0.3
			c0.1,0,0.1,0,0.2,0h0c0.2,0.1,0.4,0.2,0.6,0.2c1.4,0,2.5-0.4,3.1-0.7c0.7,0.3,1.8,0.7,3.1,0.7c0.6,0,1.1-0.5,1.1-1.1
			c0-0.6-0.5-1.1-1.1-1.1c-0.8,0-1.6-0.2-2-0.4v-15.7c0-3.8,0.9-7.1,2.1-9.7v0c0.1,0,0.1,0,0.2-0.1c1.6,1.4,3.6,2.2,5.7,2.2
			c2.4,0,4.7-1,6.3-2.8c1.6,1.8,3.8,2.8,6.3,2.8c4.7,0,8.5-3.8,8.5-8.5C42.2,137.4,39.8,134.2,36.3,133.1z M8.1,173.1
			c-0.5,0-0.9-0.1-1.3-0.4c-0.3-0.1-0.6-0.2-0.9-0.1c-0.3,0.1-0.5,0.3-0.7,0.5c-0.1,0.3-0.3,0.4-1.4,0.4l-0.8,0
			c-0.7,0-1.3-0.3-1.8-0.8c-0.2-0.2-0.5-0.3-0.8-0.3c-0.3,0-0.6,0.1-0.8,0.3c-0.9,1-2.5,1-3.5,0.1c-0.4-0.4-1-0.4-1.4-0.1
			c-0.4,0.3-0.8,0.4-1.3,0.4c-2.2,0-2.2-0.8-2.2-1.3c0-1.2,1-2.2,2.2-2.2c0.4,0,0.7,0.1,1.1,0.3c0.3,0.2,0.6,0.2,0.9,0.1
			c0.3-0.1,0.5-0.3,0.7-0.6c0.4-0.8,1.1-1.2,1.8-1.2c0.4,0,0.7-0.1,1-0.4c0.2-0.3,0.3-0.6,0.3-0.9c0,0,0-0.1,0-0.1
			c0-0.6,0.5-1.1,1.1-1.1c0.4,0,0.7,0.3,0.9,0.4c0.3,0.3,0.7,0.5,1.1,0.4c0.4-0.1,0.7-0.4,0.8-0.8c0.3-1.2,1.4-2,2.6-2
			c1.5,0,2.7,1.2,2.7,2.7c0,0,0,0.2,0,0.2c0,0.5,0.3,0.9,0.7,1.1c1.1,0.4,1.8,1.4,1.8,2.6C10.8,171.9,9.6,173.1,8.1,173.1z M12,151
			c-0.2-0.5-0.3-2.3-0.5-2.8c0.3,0,0.7,0,1,0C12.3,148.6,12.2,150.4,12,151z M33.7,147.4c-2.2,0-4.2-1.1-5.3-3
			c-0.4-0.7-1.5-0.7-1.9,0c-1.1,1.9-3.1,3-5.3,3c-1.8,0-3.5-0.8-4.7-2.1c0,0,0,0-0.1-0.1c1.5-2.7,3-4.2,3.1-4.2
			c0.4-0.4,0.5-1.1,0-1.6c-0.4-0.4-1.1-0.5-1.6,0c-0.2,0.2-2.4,2.4-4.4,6.3c-1,0.3-2.1,0.3-3.1,0.1c-1.9-4-4.2-6.2-4.4-6.4
			c-0.4-0.4-1.2-0.4-1.6,0c-0.4,0.5-0.4,1.2,0,1.6c0,0,2,1.9,3.7,5.2c-1,1.9-2.8,3.1-5,3.3c-0.4,0-0.9,0-1.3,0
			c-2-0.2-3.9-1.4-4.9-3.2c-0.2-0.3-0.4-0.5-0.7-0.5c-0.1,0-0.2,0-0.2,0c-0.3,0-0.5,0.1-0.7,0.2c-1.1,0.8-2.4,1.3-3.8,1.3
			c-3.5,0-6.4-2.9-6.4-6.4c0-3.5,2.9-6.4,6.4-6.4c0.2,0,0.4,0,0.6,0c0.3,0,0.7-0.1,0.9-0.4c0.2-0.2,0.4-0.6,0.3-0.9
			c0-0.1,0-0.2,0-0.3c0-3.6,3.4-6.5,7.1-5.7c0.3,0.1,0.6,0,0.9-0.2c0.3-0.2,0.4-0.5,0.5-0.8c0.5-4.5,4.3-7.9,8.8-7.9
			c2.8,0,5.5,1.4,7.2,3.6c0.4,0.5,1,0.6,1.5,0.3c0.9-0.5,1.8-0.8,2.8-0.8c3,0,5.4,2.4,5.4,5.3v0.1c0,0.3,0.1,0.7,0.4,0.9
			c0.3,0.2,0.6,0.3,0.9,0.2c2.8-0.6,5.2,1.5,5.2,4.2c0,0.4-0.1,0.8-0.2,1.2c-0.1,0.3,0,0.6,0.1,0.9c0.2,0.3,0.4,0.5,0.8,0.5
			c3,0.5,5.1,3.1,5.1,6.1C39.9,144.6,37.1,147.4,33.7,147.4z"/>
	</g>
</g>
</svg>
