<?xml version="1.0" encoding="utf-8"?>
<!-- Generator: Adobe Illustrator 19.0.0, SVG Export Plug-In . SVG Version: 6.00 Build 0)  -->
<svg version="1.1" id="Layer_1" xmlns="http://www.w3.org/2000/svg" xmlns:xlink="http://www.w3.org/1999/xlink" x="0px" y="0px"
	 viewBox="-41 164.9 512 512" style="enable-background:new -41 164.9 512 512;" xml:space="preserve">
<g>
	<g>
		<g>
			<path d="M10.2,310c0,4.7,3.8,8.5,8.5,8.5h8.5v51.2h-8.5c-4.7,0-8.5,3.8-8.5,8.5c0,4.7,3.8,8.5,8.5,8.5h8.5V438h-8.5
				c-4.7,0-8.5,3.8-8.5,8.5s3.8,8.5,8.5,8.5h8.5v51.2h-8.5c-4.7,0-8.5,3.8-8.5,8.5c0,4.7,3.8,8.5,8.5,8.5h8.5v51.2h-8.5
				c-4.7,0-8.5,3.8-8.5,8.5c0,4.7,3.8,8.5,8.5,8.5h8.5v42.7c0,4.7,3.8,8.5,8.5,8.5s8.5-3.8,8.5-8.5v-42.7h34.1v42.7
				c0,4.7,3.8,8.5,8.5,8.5s8.5-3.8,8.5-8.5v-42.7h34.1v42.7c0,4.7,3.8,8.5,8.5,8.5s8.5-3.8,8.5-8.5v-42.7h34.1v42.7
				c0,4.7,3.8,8.5,8.5,8.5s8.5-3.8,8.5-8.5v-42.7h8.5c4.7,0,8.5-3.8,8.5-8.5c0-4.7-3.8-8.5-8.5-8.5h-8.5v-51.2h8.5
				c4.7,0,8.5-3.8,8.5-8.5c0-4.7-3.8-8.5-8.5-8.5h-8.5V455c4.7,0,8.5-3.8,8.5-8.5s-3.8-8.5-8.5-8.5c0-4.7-3.8-8.5-8.5-8.5
				s-8.5,3.8-8.5,8.5h-34.1v-51.2h25.6c4.7,0,8.5-3.8,8.5-8.5c0-4.7-3.8-8.5-8.5-8.5h-25.6v-51.2h4.3c4.7,0,8.5-3.8,8.5-8.5
				c0-4.7-3.8-8.5-8.5-8.5H18.7C14,301.4,10.2,305.2,10.2,310z M146.7,455h34.1v51.2h-34.1V455z M146.7,523.3h34.1v51.2h-34.1V523.3
				z M95.5,318.5h34.1v51.2H95.5V318.5z M95.5,386.8h34.1V438H95.5V386.8z M95.5,455h34.1v51.2H95.5V455z M95.5,523.3h34.1v51.2
				H95.5V523.3z M44.3,318.5h34.1v51.2H44.3V318.5z M44.3,386.8h34.1V438H44.3V386.8z M44.3,455h34.1v51.2H44.3V455z M44.3,523.3
				h34.1v51.2H44.3V523.3z"/>
			<path d="M138.2,284.4c4.7,0,8.5-3.8,8.5-8.5s-3.8-8.5-8.5-8.5H87c-4.7,0-8.5,3.8-8.5,8.5s3.8,8.5,8.5,8.5H138.2z"/>
			<path d="M462.5,659.8h-128v-35c19.4-4,34.1-21.2,34.1-41.8c0-1.1-0.5-110.9-42.7-110.9S283.3,581.9,283.3,583
				c0,20.6,14.7,37.8,34.1,41.8v35h-68.3V463.6c0-4.7-3.8-8.5-8.5-8.5s-8.5,3.8-8.5,8.5v196.3H-6.9V284.4h59.7
				c4.7,0,8.5-3.8,8.5-8.5v-25.6h76.8c4.7,0,8.5-3.8,8.5-8.5c0-4.7-3.8-8.5-8.5-8.5H52.9c-4.7,0-8.5,3.8-8.5,8.5v25.6h-59.7
				c-4.7,0-8.5,3.8-8.5,8.5v384h-8.5c-4.7,0-8.5,3.8-8.5,8.5c0,4.7,3.8,8.5,8.5,8.5h494.9c4.7,0,8.5-3.8,8.5-8.5
				C471,663.6,467.2,659.8,462.5,659.8z M300.3,583c0-42.5,11.4-93.9,25.6-93.9s25.6,51.4,25.6,93.9c0,14.1-11.5,25.6-25.6,25.6
				S300.3,597.1,300.3,583z"/>
			<g>
				<path d="M421.8,434l-57.3-57.3c17-19.1,27.6-44,27.6-71.5c0-59.8-48.6-108.4-108.4-108.4c-59.7,0-108.4,48.6-108.4,108.4
					c0,59.7,48.6,108.3,108.4,108.3c24.5,0,46.8-8.5,65-22.2l57.9,57.9c2.1,2.1,4.9,3.2,7.6,3.2c2.8,0,5.5-1,7.6-3.2
					C426,445,426,438.2,421.8,434z M196.8,305.1c0-47.9,39-86.8,86.8-86.8c47.9,0,86.8,39,86.8,86.8s-39,86.8-86.8,86.8
					C235.7,391.9,196.8,353,196.8,305.1z"/>
			</g>
		</g>
	</g>
</g>
</svg>
