<?xml version="1.0" encoding="utf-8"?>
<!-- Generator: Adobe Illustrator 19.0.0, SVG Export Plug-In . SVG Version: 6.00 Build 0)  -->
<svg version="1.1" id="Слой_1" xmlns="http://www.w3.org/2000/svg" xmlns:xlink="http://www.w3.org/1999/xlink" x="0px" y="0px"
	 viewBox="0 0 228.5 193.1" style="enable-background:new 0 0 228.5 193.1;" xml:space="preserve">
<g>
	<path style="fill-rule:evenodd;clip-rule:evenodd;fill:#4BB3CC;" d="M182.6,146.7h35.1v4.6h-35.1V146.7z M125.3,146.7h35.1v4.6h-35.1V146.7z M67.9,146.7H103v4.6H67.9V146.7z
		 M10.7,146.7h35.1v4.6H10.7V146.7z M0,144.2h228.5v10.5H0V144.2z"/>
	<path style="fill-rule:evenodd;clip-rule:evenodd;fill:#21528A;" d="M111.5,74.7v64.9h33.7V74.7H111.5z M139.7,134.1h-11.4v-8.7h11.4V134.1z M139.7,119h-11.4v-8.7h11.4V119z
		 M139.7,103.9h-11.4v-8.7h11.4V103.9z M139.7,88.8h-11.4v-8.7h11.4V88.8z"/>
	<path style="fill-rule:evenodd;clip-rule:evenodd;fill:#21528A;" d="M0,74.7v64.9h37.2V74.7H0z M6,125.4h12.6v8.7H6V125.4z M6,110.3h12.6v8.7H6V110.3z M6,95.2h12.6v8.7H6V95.2z
		 M6,80.1h12.6v8.7H6V80.1z"/>
	<rect x="198.8" y="91.5" style="fill-rule:evenodd;clip-rule:evenodd;fill:#21528A;" width="21.7" height="9.9"/>
	<rect x="197" y="124.1" style="fill-rule:evenodd;clip-rule:evenodd;fill:#21528A;" width="21.7" height="9.9"/>
	<rect x="163.8" y="124.1" style="fill-rule:evenodd;clip-rule:evenodd;fill:#21528A;" width="21.7" height="9.9"/>
	<rect x="197" y="109.9" style="fill-rule:evenodd;clip-rule:evenodd;fill:#21528A;" width="21.7" height="9.9"/>
	<rect x="163.8" y="109.9" style="fill-rule:evenodd;clip-rule:evenodd;fill:#21528A;" width="21.7" height="9.9"/>
	<path style="fill-rule:evenodd;clip-rule:evenodd;fill:#21528A;" d="M71.6,74.7v5.6h-2.5V89h2.5v6.4h-2.5v8.6h2.5v6.4h-2.5v8.6h2.5v6.4h-2.5v8.6h2.5v5.6h37.1V74.7H71.6z
		 M105.2,136.5H75V134h27.8v-8.6H75V119h27.8v-8.6H75V104h27.8v-8.6H75V89h27.8v-8.6H75v-2.5h30.3V136.5z"/>
	<path style="fill-rule:evenodd;clip-rule:evenodd;fill:#21528A;" d="M216.4,85.7V64.4h-13.6v21.3h-12v18.5h-36.8v35.4h74.4v-34.2v-1.3V85.7H216.4z M206.3,67.5h6.8v18.2h-6.8V67.5
		z M225.1,136.5h-67.6v-29.3h67.6V136.5z M225.1,104.2h-30.8V88.8h30.8V104.2z"/>
	<path style="fill-rule:evenodd;clip-rule:evenodd;fill:#21528A;" d="M224.5,35.5L224.5,35.5l-8.4-5.2l-4.1-2.6l-0.9-0.5L53.7,0h0L0.6,38h4.9h0.5h35v101.6h3.4v-0.1h17l-0.2,0.1h6
		V38h17h2.1h115.3h2.8h24L224.5,35.5z M54.1,9.7l9.5,24.2h-19L54.1,9.7z M60.3,38L44.5,52.3V38H60.3z M9.1,34.9l5.5-3.8l5.5,3.8H9.1
		z M17.5,30.3h10.9L23,34.1L17.5,30.3z M27.3,34.9l5.5-3.8l5.5,3.8H27.3z M41.3,33.2l-8.7-6H21.1L52.5,4.8L41.3,33.2z M61.4,57.5
		l-17,15.3V57.5H61.4z M61.4,78l-17,15.3V78H61.4z M61.4,98.5l-17,15.3V98.5H61.4z M44.5,119h17l-17,15.3V119z M63.9,136.4h-17
		l17-15.3V136.4z M63.9,115.9h-17l17-15.3V115.9z M63.9,95.4h-17l17-15.3V95.4z M63.9,74.9h-17l17-15.3V74.9z M63.9,54.4h-17
		l17-15.3V54.4z M84.3,34.9H70.1l6.7-4.6h7.5V34.9z M84.3,27.2h-8.7l-8.7,6L55.3,3.4l137.7,23.8H90.2H84.3z M87.7,30.3h3.1h4.5
		l-7.6,2.9V30.3z M101,34.9h-9l9-3.4V34.9z M104.4,30.3h7.6l-7.6,2.9V30.3z M117.7,34.9h-9l9-3.4V34.9z M121,30.3h7.6l-7.6,2.9V30.3
		z M134.3,34.9h-9l9-3.4V34.9z M137.7,30.3h7.6l-7.6,2.9V30.3z M151,34.9h-9l9-3.4V34.9z M154.4,30.3h7.6l-7.6,2.9V30.3z
		 M167.7,34.9h-9l9-3.4V34.9z M171.1,30.3h7.6l-7.6,2.9V30.3z M184.4,34.9h-9l9-3.4V34.9z M187.7,30.3h7.6l-7.6,2.9V30.3z M201,34.9
		h-9l9-3.4V34.9z M204.4,34.9v-4.6h5.6l7.5,4.6H204.4z"/>
	<path style="fill:#21528A" d="M23,180.5c0,9.9-3.8,12.6-11.3,12.6c-7.6,0-11.4-2.8-11.4-12.6c0-9.7,3.8-12.3,11.4-12.3
		C19.2,168.2,23,170.8,23,180.5z M18.2,180.6c0-7.2-1.3-8.3-6.5-8.3c-5.2,0-6.5,1.1-6.5,8.3c0,7.2,1.3,8.5,6.5,8.5
		C16.9,189.1,18.2,187.8,18.2,180.6z M29.8,192.7v-23.9h12.4c5,0,6.6,3.5,6.6,8.2c0,4.1-1.9,7.8-6.5,7.8h-8v7.9H29.8z M40.9,181
		c1.9,0,2.9-1.4,2.9-4.1c0-2.9-1-4.3-2.8-4.3h-6.7v8.4H40.9z M72.3,168.8v3.9H59.5v5.5h9.1v3.9h-9.1v6.7h12.8v3.9H55v-23.9H72.3z
		 M61.8,165c0,1.8-0.5,2.1-2,2.1c-1.5,0-2.1-0.3-2.1-2.1c0-1.6,0.5-1.9,2.1-1.9C61.4,163.1,61.8,163.4,61.8,165z M69.1,165
		c0,1.8-0.5,2.1-2,2.1c-1.6,0-2.1-0.3-2.1-2.1c0-1.6,0.5-1.9,2.1-1.9C68.7,163.1,69.1,163.4,69.1,165z M86.5,172.7
		c-0.5,6.1-1.9,13.4-4.2,20h-4.8c2.3-7.1,4.5-15.2,4.8-23.9h16v23.9h-4.4v-20H86.5z M116.3,168.2c2.2,0,5,0.4,6.8,0.9l-1,4
		c-1.2-0.4-3.5-0.8-5.1-0.8c-5.2,0-7.2,0.9-7.2,8.2c0,7.3,2,8.5,7.2,8.5c1.6,0,3.8-0.3,5.1-0.8l1,4c-1.8,0.5-4.7,0.9-6.8,0.9
		c-7.6,0-11.2-2.9-11.2-12.6C105.1,170.8,108.7,168.2,116.3,168.2z M135.6,192.7v-20h-8v-3.9h20.6v3.9h-8v20H135.6z M154,192.7
		v-23.9h12.4c5,0,6.6,3.5,6.6,8.2c0,4.1-2,7.8-6.5,7.8h-8v7.9H154z M165.1,181c1.9,0,2.9-1.4,2.9-4.1c0-2.9-1-4.3-2.8-4.3h-6.7v8.4
		H165.1z M201.3,180.5c0,9.9-3.8,12.6-11.3,12.6c-7.6,0-11.4-2.8-11.4-12.6c0-9.7,3.8-12.3,11.4-12.3
		C197.5,168.2,201.3,170.8,201.3,180.5z M196.5,180.6c0-7.2-1.3-8.3-6.5-8.3c-5.2,0-6.5,1.1-6.5,8.3c0,7.2,1.3,8.5,6.5,8.5
		C195.2,189.1,196.5,187.8,196.5,180.6z M228.5,192.7H224v-17.3c-3.1,5.8-6.6,11.8-10.1,17.3H208v-23.9h4.4v18c3.7-6,7.3-12,10.5-18
		h5.4V192.7z M216.1,162.9c0,1.6,0.8,2,2.3,2c1.5,0,2.3-0.4,2.3-2h2.7c0,3.3-1.8,4.7-5.1,4.7c-3.2,0-5.1-1.4-5.1-4.7H216.1z"/>
</g>
</svg>
