<?xml version="1.0" encoding="utf-8"?>
<!-- Generator: Adobe Illustrator 19.0.0, SVG Export Plug-In . SVG Version: 6.00 Build 0)  -->
<svg version="1.1" id="Layer_1" xmlns="http://www.w3.org/2000/svg" xmlns:xlink="http://www.w3.org/1999/xlink" x="0px" y="0px"
	 viewBox="-41 164.9 512 512" style="enable-background:new -41 164.9 512 512;" xml:space="preserve">
<g>
	<path d="M131,242.9H82.3c-5.9,0-11.2-3.6-13.5-9c-2.3-5.5-1-11.7,3.2-15.9l48.7-48.7c4.2-4.2,10.4-5.4,15.9-3.2
		c5.5,2.3,9,7.6,9,13.5v48.7C145.6,236.4,139.1,242.9,131,242.9z"/>
	<path d="M347.7,330.8c-8.1,0-14.6-6.5-14.6-14.6v-122H195.7c-8.1,0-14.6-6.5-14.6-14.6c0-8.1,6.5-14.6,14.6-14.6h139.4
		c15,0,27.1,12.2,27.1,27.1v124C362.3,324.3,355.7,330.8,347.7,330.8z"/>
	<path d="M82.3,330.8c-8.1,0-14.6-6.5-14.6-14.6v-87.9c0-3.9,1.5-7.6,4.3-10.3l48.7-48.7c5.7-5.7,14.9-5.7,20.6,0
		c5.7,5.7,5.7,14.9,0,20.6l-44.4,44.4v81.8C96.9,324.3,90.4,330.8,82.3,330.8z"/>
	<path d="M347.7,676.7H82.3c-8.1,0-14.6-6.5-14.6-14.6V514.8c0-8.1,6.5-14.6,14.6-14.6h265.4c8.1,0,14.6,6.5,14.6,14.6
		s-6.5,14.6-14.6,14.6H96.9v118.2h250.8c8.1,0,14.6,6.5,14.6,14.6C362.3,670.2,355.7,676.7,347.7,676.7z"/>
	<path d="M424.9,587.1h-77.2c-8.1,0-14.6-6.5-14.6-14.6v-43.2H96.9v43.2c0,8.1-6.5,14.6-14.6,14.6H5.1c-25.4,0-46.1-20.7-46.1-46.1
		V355.9c0-25.4,20.7-46.1,46.1-46.1h419.8c25.4,0,46.1,20.7,46.1,46.1V541C471,566.5,450.3,587.1,424.9,587.1z M362.3,558h62.6
		c9.3,0,16.9-7.6,16.9-16.9V355.9c0-9.3-7.6-16.9-16.9-16.9H5.1c-9.3,0-16.9,7.6-16.9,16.9V541c0,9.3,7.6,16.9,16.9,16.9h62.6v-43.2
		c0-8.1,6.5-14.6,14.6-14.6h265.4c8.1,0,14.6,6.5,14.6,14.6L362.3,558L362.3,558z"/>
</g>
<path d="M424.9,587.1h-77.2c-8.1,0-14.6-6.5-14.6-14.6v-43.2H96.9v43.2c0,8.1-6.5,14.6-14.6,14.6H5.1c-25.4,0-46.1-20.7-46.1-46.1
	v-92.6c0-8.1,6.5-14.6,14.6-14.6h482.8c8.1,0,14.6,6.5,14.6,14.6V541C471,566.5,450.3,587.1,424.9,587.1z M362.3,558h62.6
	c9.3,0,16.9-7.6,16.9-16.9v-78H-11.8v78c0,9.3,7.6,16.9,16.9,16.9h62.6v-43.2c0-8.1,6.5-14.6,14.6-14.6h265.4
	c8.1,0,14.6,6.5,14.6,14.6V558z"/>
</svg>
